{"glyphs":{"0":{"ha":842,"x_min":35,"x_max":807,"o":"m 35 396 q 85 183 35 278 q 223 35 135 89 q 421 -18 311 -18 q 619 35 531 -18 q 757 184 707 89 q 807 399 807 279 q 758 607 807 514 q 620 752 708 700 q 422 804 532 804 q 223 751 311 804 q 85 606 135 699 q 35 396 35 513 m 200 400 q 228 529 200 472 q 308 619 257 586 q 421 651 358 651 q 535 618 485 651 q 615 526 586 585 q 644 393 644 467 q 616 261 644 319 q 537 169 588 203 q 422 136 486 136 q 308 170 358 136 q 228 265 257 204 q 200 400 200 325 z "},"1":{"ha":511,"x_min":14,"x_max":421,"o":"m 300 786 l 14 660 l 82 525 l 240 586 l 240 0 l 421 0 l 421 786 l 300 786 z "},"2":{"ha":676,"x_min":35,"x_max":649,"o":"m 321 804 q 53 732 174 804 l 85 588 q 303 658 208 658 q 413 631 372 658 q 454 553 454 604 q 421 467 454 513 q 315 360 388 421 l 35 121 l 35 0 l 649 0 l 632 138 l 281 138 l 413 247 q 563 403 519 338 q 606 560 606 468 q 571 685 606 629 q 472 772 536 740 q 321 804 408 804 z "},"3":{"ha":672,"x_min":0,"x_max":631,"o":"m 322 804 q 171 779 243 804 q 26 707 99 754 l 111 586 q 318 658 215 658 q 413 630 376 658 q 449 560 449 601 q 399 477 449 508 q 265 446 349 446 l 174 446 l 199 306 l 257 306 q 414 269 363 306 q 465 167 465 232 q 418 75 465 110 q 306 40 371 40 q 196 55 244 40 q 92 103 147 69 l 0 -18 q 151 -81 71 -56 q 303 -106 232 -106 q 475 -69 400 -106 q 590 29 550 -33 q 631 168 631 92 q 610 268 631 222 q 559 343 589 314 q 501 379 529 372 q 579 451 544 399 q 614 563 614 503 q 581 684 614 629 q 481 772 547 739 q 322 804 415 804 z "},"4":{"ha":778,"x_min":14,"x_max":750,"o":"m 604 793 l 469 793 l 14 231 l 38 82 l 422 82 l 422 -96 l 604 -96 l 604 82 l 732 82 l 750 231 l 604 231 l 604 793 m 208 231 l 422 504 l 422 231 l 208 231 z "},"5":{"ha":711,"x_min":35,"x_max":676,"o":"m 254 286 q 297 331 265 311 q 374 351 329 351 q 474 311 435 351 q 513 204 513 271 q 463 89 513 132 q 339 46 414 46 q 231 60 279 46 q 124 107 182 75 l 35 -19 q 183 -81 103 -57 q 335 -106 263 -106 q 516 -67 439 -106 q 635 43 593 -28 q 676 204 676 114 q 640 351 675 285 q 536 456 606 417 q 367 496 467 496 q 264 475 304 496 l 272 640 l 608 640 l 628 786 l 119 786 l 94 286 l 254 286 z "},"6":{"ha":729,"x_min":35,"x_max":694,"o":"m 390 558 q 546 519 476 558 q 655 415 615 481 q 694 271 694 350 q 656 121 694 186 q 549 19 617 56 q 394 -18 481 -18 q 208 24 289 -18 q 81 149 126 67 q 35 350 35 232 q 119 617 35 503 q 329 799 204 732 q 576 881 454 865 l 601 732 q 251 526 343 661 q 390 558 318 558 m 389 131 q 492 169 450 131 q 533 264 533 208 q 492 373 533 329 q 386 417 450 417 q 203 360 279 417 q 254 187 204 243 q 389 131 304 131 z "},"7":{"ha":658,"x_min":14,"x_max":631,"o":"m 578 786 l 14 786 l 36 640 l 432 640 l 190 -47 l 358 -96 l 631 714 l 578 786 z "},"8":{"ha":714,"x_min":35,"x_max":679,"o":"m 358 893 q 207 860 272 893 q 106 772 142 828 q 71 650 71 717 q 103 544 71 593 q 190 472 136 496 q 82 388 129 451 q 35 257 35 325 q 74 118 35 181 q 186 19 113 56 q 358 -18 260 -18 q 528 19 456 -18 q 640 119 601 56 q 679 257 679 182 q 632 388 679 325 q 524 472 585 451 q 611 545 578 497 q 644 650 644 593 q 609 772 644 717 q 509 860 574 828 q 358 893 444 893 m 356 746 q 445 717 408 746 q 482 650 482 689 q 451 574 482 603 q 358 535 419 544 q 265 573 297 544 q 232 647 232 601 q 268 717 232 688 q 356 746 304 746 m 358 400 q 476 347 433 388 q 518 254 518 307 q 469 163 518 197 q 357 128 421 128 q 244 163 292 128 q 197 254 197 197 q 239 347 197 307 q 358 400 281 388 z "},"9":{"ha":729,"x_min":35,"x_max":694,"o":"m 335 804 q 522 762 440 804 q 649 637 603 719 q 694 436 694 554 q 610 169 694 283 q 400 -12 525 54 q 153 -94 275 -79 l 128 54 q 478 260 386 125 q 339 228 411 228 q 183 267 253 228 q 74 371 114 306 q 35 515 35 436 q 74 665 35 600 q 181 767 113 731 q 335 804 249 804 m 196 522 q 238 413 196 457 q 343 369 279 369 q 526 426 450 369 q 475 599 525 543 q 340 656 425 656 q 238 617 279 656 q 196 522 196 578 z "},"\r":{"ha":0,"x_min":0,"x_max":0,"o":""}," ":{"ha":313,"x_min":0,"x_max":0,"o":""},"\u0000":{"ha":0,"x_min":0,"x_max":0,"o":""}," ":{"ha":328,"x_min":0,"x_max":0,"o":""},"‌":{"ha":0,"x_min":-42,"x_max":42,"o":"m 42 1718 l -42 1718 l -42 -94 l 42 -94 l 42 1718 z "},"‍":{"ha":0,"x_min":-157,"x_max":158,"o":"m -157 1778 l -54 1675 l -157 1572 l -103 1518 l -42 1578 l -42 -94 l 42 -94 l 42 1579 l 104 1518 l 158 1572 l 56 1675 l 158 1778 l 103 1833 l 0 1731 l -101 1833 l -157 1778 z "},"◌":{"ha":840,"x_min":63,"x_max":778,"o":"m 419 638 q 449 649 438 638 q 460 678 460 660 q 449 708 460 696 q 419 719 438 719 q 390 708 401 719 q 379 678 379 696 q 390 649 379 660 q 419 638 401 638 m 296 697 q 267 686 278 697 q 256 657 256 675 q 267 628 256 639 q 296 617 278 617 q 325 628 314 617 q 336 657 336 639 q 325 686 336 675 q 296 697 314 697 m 544 617 q 574 628 563 617 q 585 657 585 639 q 574 686 585 675 q 544 697 563 697 q 515 686 526 697 q 504 657 504 675 q 515 628 504 639 q 544 617 526 617 m 190 628 q 160 616 172 628 q 149 586 149 604 q 160 557 149 568 q 190 546 172 546 q 219 557 208 546 q 231 586 231 568 q 219 616 231 604 q 190 628 208 628 m 650 546 q 680 557 668 546 q 692 586 692 568 q 680 616 692 604 q 650 628 668 628 q 621 616 632 628 q 610 586 610 604 q 621 557 610 568 q 650 546 632 546 m 124 518 q 94 506 106 518 q 82 476 82 494 q 94 447 82 458 q 124 436 106 436 q 153 447 142 436 q 164 476 164 458 q 153 506 164 494 q 124 518 142 518 m 717 436 q 746 447 735 436 q 757 476 757 458 q 746 506 757 494 q 717 518 735 518 q 688 506 699 518 q 676 476 676 494 q 688 447 676 458 q 717 436 699 436 m 104 399 q 74 387 86 399 q 63 357 63 375 q 74 328 63 339 q 104 318 86 318 q 133 328 122 318 q 144 357 144 339 q 133 387 144 375 q 104 399 122 399 m 736 318 q 766 328 754 318 q 778 357 778 339 q 766 387 778 375 q 736 399 754 399 q 707 387 718 399 q 696 357 696 375 q 707 328 696 339 q 736 318 718 318 m 124 282 q 94 271 106 282 q 82 242 82 260 q 94 213 82 224 q 124 201 106 201 q 153 213 142 201 q 164 242 164 224 q 153 271 164 260 q 124 282 142 282 m 717 201 q 746 213 735 201 q 757 242 757 224 q 746 271 757 260 q 717 282 735 282 q 688 271 699 282 q 676 242 676 260 q 688 213 676 224 q 717 201 699 201 m 189 171 q 159 160 171 171 q 147 131 147 149 q 159 101 147 113 q 189 90 171 90 q 218 101 207 90 q 229 131 229 113 q 218 160 229 149 q 189 171 207 171 m 651 90 q 681 101 669 90 q 693 131 693 113 q 681 160 693 149 q 651 171 669 171 q 622 160 633 171 q 611 131 611 149 q 622 101 611 113 q 651 90 633 90 m 296 103 q 267 91 278 103 q 256 61 256 79 q 267 32 256 43 q 296 21 278 21 q 325 32 314 21 q 336 61 336 43 q 325 91 336 79 q 296 103 314 103 m 544 21 q 574 32 563 21 q 585 61 585 43 q 574 91 585 79 q 544 103 563 103 q 515 91 526 103 q 504 61 504 79 q 515 32 504 43 q 544 21 526 21 m 419 0 q 449 11 438 0 q 460 40 460 22 q 449 70 460 58 q 419 82 438 82 q 390 70 401 82 q 379 40 379 58 q 390 11 379 22 q 419 0 401 0 z "},"A":{"ha":915,"x_min":14,"x_max":901,"o":"m 194 0 l 278 222 l 636 222 l 721 -14 l 901 11 l 535 944 l 382 944 l 14 0 l 194 0 m 454 697 l 581 368 l 331 368 l 454 697 z "},"B":{"ha":874,"x_min":118,"x_max":839,"o":"m 506 0 q 749 74 658 0 q 839 278 839 149 q 693 513 839 436 q 794 681 794 592 q 713 881 794 817 q 485 944 631 944 l 118 944 l 118 0 l 506 0 m 458 794 q 567 768 531 794 q 604 678 604 742 q 557 590 604 619 q 431 560 510 560 l 297 560 l 297 794 l 458 794 m 504 414 q 612 378 572 414 q 651 276 651 342 q 608 182 651 215 q 492 149 565 149 l 297 149 l 297 414 l 504 414 z "},"C":{"ha":783,"x_min":49,"x_max":763,"o":"m 754 903 q 626 949 699 933 q 504 964 554 964 q 265 901 368 964 q 105 725 161 838 q 49 468 49 613 q 100 219 49 329 q 253 44 151 108 q 497 -19 354 -19 q 634 -3 558 -19 q 763 42 710 14 l 694 175 q 488 132 590 132 q 353 177 410 132 q 266 299 296 222 q 236 469 236 376 q 270 651 236 574 q 364 771 304 729 q 499 813 424 813 q 578 806 546 813 q 664 783 610 800 l 699 774 l 754 903 z "},"D":{"ha":960,"x_min":118,"x_max":911,"o":"m 476 0 q 798 128 685 3 q 911 478 911 254 q 863 722 911 617 q 717 885 815 826 q 476 944 619 944 l 118 944 l 118 0 l 476 0 m 483 792 q 665 710 606 792 q 725 478 725 629 q 659 230 725 308 q 474 151 593 151 l 297 151 l 297 792 l 483 792 z "},"E":{"ha":807,"x_min":118,"x_max":779,"o":"m 297 140 l 297 406 l 635 406 l 606 549 l 297 549 l 297 803 l 710 803 l 682 944 l 118 944 l 118 0 l 779 0 l 750 140 l 297 140 z "},"F":{"ha":708,"x_min":118,"x_max":681,"o":"m 297 803 l 681 803 l 653 944 l 118 944 l 118 0 l 297 0 l 297 400 l 619 400 l 593 540 l 297 540 l 297 803 z "},"G":{"ha":875,"x_min":49,"x_max":813,"o":"m 651 147 q 514 132 578 132 q 369 173 432 132 q 271 291 306 214 q 236 469 236 368 q 277 658 236 581 q 388 774 318 735 q 543 813 457 813 q 620 806 589 813 q 704 785 651 800 q 742 774 703 786 l 799 903 q 667 949 742 933 q 540 964 592 964 q 288 900 400 964 q 112 723 175 836 q 49 468 49 610 q 106 221 49 332 q 269 45 163 110 q 518 -19 375 -19 q 678 0 601 -19 q 813 50 754 19 l 813 517 l 468 517 l 453 378 l 651 378 l 651 147 z "},"H":{"ha":967,"x_min":118,"x_max":849,"o":"m 669 944 l 669 544 l 297 544 l 297 951 l 118 944 l 118 0 l 297 0 l 297 400 l 669 400 l 669 0 l 849 0 l 849 944 l 669 944 z "},"I":{"ha":415,"x_min":118,"x_max":297,"o":"m 118 944 l 118 0 l 297 0 l 297 944 l 118 944 z "},"J":{"ha":408,"x_min":14,"x_max":304,"o":"m 122 121 q 115 59 122 79 q 87 24 108 39 q 14 -8 65 10 l 86 -142 q 217 -84 171 -114 q 284 -12 264 -54 q 304 94 304 29 l 304 944 l 122 944 l 122 121 z "},"K":{"ha":914,"x_min":118,"x_max":900,"o":"m 299 296 l 299 0 l 118 0 l 118 944 l 299 944 l 299 549 l 708 965 l 842 863 l 517 524 l 900 0 l 676 0 l 392 393 l 299 296 z "},"L":{"ha":756,"x_min":118,"x_max":742,"o":"m 297 944 l 118 944 l 118 0 l 742 0 l 714 140 l 297 140 l 297 944 z "},"M":{"ha":1069,"x_min":118,"x_max":951,"o":"m 769 0 l 951 0 l 951 944 l 842 944 l 551 508 l 232 944 l 118 944 l 118 0 l 297 0 l 297 576 l 524 286 l 593 296 l 769 544 l 769 0 z "},"N":{"ha":1033,"x_min":118,"x_max":915,"o":"m 735 0 l 915 0 l 915 944 l 735 944 l 735 314 l 297 944 l 118 944 l 118 0 l 297 0 l 297 632 l 735 0 z "},"O":{"ha":1024,"x_min":49,"x_max":975,"o":"m 511 967 q 269 900 375 964 q 106 724 164 836 q 49 468 49 611 q 103 220 49 331 q 263 45 158 110 q 511 -19 368 -19 q 753 47 649 -17 q 917 222 858 110 q 975 478 975 333 q 920 726 975 615 q 760 902 865 838 q 511 967 654 967 m 236 469 q 274 651 236 572 q 376 772 313 729 q 514 814 439 814 q 658 771 596 814 q 754 651 721 728 q 788 478 788 575 q 751 287 788 365 q 651 170 714 208 q 510 132 588 132 q 365 174 426 132 q 269 294 303 217 q 236 469 236 371 z "},"P":{"ha":822,"x_min":118,"x_max":788,"o":"m 401 329 q 593 363 506 329 q 734 468 681 397 q 788 642 788 539 q 684 870 788 796 q 414 944 581 944 l 118 944 l 118 0 l 297 0 l 297 329 l 401 329 m 408 794 q 549 756 501 794 q 597 631 597 718 q 543 516 592 554 q 411 478 494 478 l 297 478 l 297 794 l 408 794 z "},"Q":{"ha":1024,"x_min":49,"x_max":975,"o":"m 975 478 q 944 286 975 374 q 857 133 914 199 l 950 43 l 844 -50 l 746 42 q 511 -19 640 -18 q 263 45 368 -19 q 103 220 158 110 q 49 468 49 331 q 106 724 49 611 q 269 900 164 836 q 511 967 375 964 q 760 902 654 967 q 920 726 865 838 q 975 478 975 615 m 510 132 q 624 156 569 132 l 510 261 l 632 354 l 733 256 q 788 478 788 343 q 754 651 788 575 q 658 771 721 728 q 514 814 596 814 q 376 772 439 814 q 274 651 313 729 q 236 469 236 572 q 269 294 236 371 q 365 174 303 217 q 510 132 426 132 z "},"R":{"ha":872,"x_min":118,"x_max":858,"o":"m 297 0 l 297 358 l 467 358 l 667 0 l 858 0 l 626 406 q 744 506 700 442 q 788 654 788 569 q 683 870 788 796 q 414 944 578 944 l 118 944 l 118 0 l 297 0 m 408 794 q 597 646 597 794 q 547 540 597 574 q 411 506 496 506 l 297 506 l 297 794 l 408 794 z "},"S":{"ha":732,"x_min":49,"x_max":697,"o":"m 65 63 q 199 8 113 33 q 344 -18 286 -18 q 535 15 456 -18 q 656 107 615 49 q 697 242 697 165 q 665 360 697 310 q 583 447 632 411 q 453 529 535 482 l 413 553 l 368 578 q 266 647 297 619 q 235 714 235 674 q 274 785 235 761 q 376 810 314 810 q 477 794 431 810 q 581 751 524 779 l 640 896 q 374 967 493 967 q 199 934 272 967 q 88 844 126 901 q 49 714 49 786 q 88 591 49 646 q 183 496 128 536 q 331 400 238 456 l 372 375 q 477 308 443 336 q 511 244 511 279 q 468 168 511 194 q 342 142 425 142 q 222 162 288 142 q 106 208 157 182 l 65 63 z "},"T":{"ha":821,"x_min":14,"x_max":807,"o":"m 14 803 l 301 803 l 301 0 l 483 0 l 483 803 l 807 803 l 778 944 l 14 944 l 14 803 z "},"U":{"ha":986,"x_min":104,"x_max":882,"o":"m 106 343 q 153 160 106 242 q 288 31 200 78 q 490 -15 375 -15 q 696 31 607 -15 q 833 159 785 78 q 882 343 882 240 l 882 944 l 700 944 l 700 357 q 644 190 700 247 q 493 132 588 132 q 342 188 399 132 q 286 357 286 244 l 286 944 l 104 944 l 106 343 z "},"V":{"ha":915,"x_min":14,"x_max":901,"o":"m 381 0 l 533 0 l 901 944 l 721 944 l 461 247 l 194 958 l 14 933 l 381 0 z "},"W":{"ha":1285,"x_min":14,"x_max":1271,"o":"m 833 0 l 642 689 l 450 0 l 297 0 l 14 933 l 194 958 l 378 247 l 554 944 l 735 944 l 914 247 l 1090 944 l 1271 944 l 986 0 l 833 0 z "},"X":{"ha":885,"x_min":14,"x_max":871,"o":"m 664 0 l 853 0 l 542 471 l 871 944 l 683 944 l 451 594 l 188 972 l 31 911 l 344 478 l 14 0 l 199 0 l 436 356 l 664 0 z "},"Y":{"ha":844,"x_min":14,"x_max":831,"o":"m 831 944 l 640 944 l 411 550 l 192 964 l 14 913 l 322 368 l 322 0 l 503 0 l 503 361 l 831 944 z "},"Z":{"ha":801,"x_min":21,"x_max":781,"o":"m 769 803 l 749 944 l 61 944 l 82 803 l 560 803 l 21 140 l 42 0 l 781 0 l 760 140 l 215 140 l 769 803 z "},"a":{"ha":699,"x_min":58,"x_max":628,"o":"m 142 481 q 236 512 181 499 q 338 525 292 525 q 416 497 388 525 q 446 417 444 468 l 314 417 q 128 360 197 417 q 58 201 58 304 q 119 42 58 101 q 301 -17 181 -17 q 479 72 394 -17 l 510 0 l 628 0 l 628 443 q 588 571 628 514 q 482 660 549 628 q 335 692 415 692 q 208 673 288 692 q 93 631 129 654 l 142 481 m 213 201 q 240 268 213 240 q 311 296 267 296 l 447 296 l 447 193 q 299 126 379 126 q 237 149 261 126 q 213 201 213 171 z "},"b":{"ha":769,"x_min":90,"x_max":735,"o":"m 396 692 q 644 597 553 692 q 735 339 735 501 q 694 153 735 233 q 575 28 653 72 q 390 -17 497 -17 q 303 1 349 -17 q 218 47 257 19 l 182 0 l 90 0 l 90 965 l 269 981 l 269 661 q 396 692 331 692 m 389 138 q 506 194 463 138 q 549 339 549 250 q 506 483 549 428 q 389 538 464 538 q 269 497 331 538 l 269 176 q 389 138 326 138 z "},"c":{"ha":656,"x_min":35,"x_max":626,"o":"m 626 621 q 510 672 579 653 q 393 692 440 692 q 203 648 285 692 q 78 524 122 604 q 35 336 35 443 q 78 149 35 229 q 203 26 122 69 q 393 -17 285 -17 q 514 1 444 -17 q 626 53 583 19 l 575 183 q 481 149 522 160 q 394 138 439 138 q 269 193 318 138 q 221 336 221 249 q 270 481 221 424 q 394 538 319 538 q 481 526 439 538 q 575 492 522 515 l 626 621 z "},"d":{"ha":794,"x_min":35,"x_max":704,"o":"m 704 0 l 610 0 l 568 61 q 374 -17 479 -17 q 126 78 217 -17 q 35 336 35 174 q 76 522 35 442 q 194 647 117 603 q 379 692 272 692 q 450 680 413 692 q 522 647 488 668 l 522 965 l 704 981 l 704 0 m 221 336 q 263 192 221 247 q 381 138 306 138 q 451 151 417 138 q 522 193 485 165 l 522 481 q 453 524 486 511 q 381 538 419 538 q 264 481 307 538 q 221 336 221 425 z "},"e":{"ha":715,"x_min":35,"x_max":681,"o":"m 681 339 q 647 517 681 438 q 544 644 614 597 q 374 692 475 692 q 193 648 269 692 q 76 524 117 604 q 35 336 35 443 q 134 77 35 171 q 425 -17 233 -17 q 567 5 507 -17 q 678 67 626 26 l 625 197 q 529 153 574 168 q 429 138 485 138 q 287 175 333 138 q 226 283 240 213 l 681 283 l 681 339 m 228 404 q 276 503 239 469 q 369 538 314 538 q 460 504 425 538 q 510 404 496 471 l 228 404 z "},"f":{"ha":518,"x_min":17,"x_max":518,"o":"m 121 0 l 301 0 l 301 533 l 486 533 l 429 672 l 301 672 l 301 699 q 324 787 301 754 q 392 819 346 819 q 467 801 421 819 l 518 932 q 456 963 496 950 q 383 975 415 975 q 190 908 260 975 q 121 724 121 842 l 121 672 l 17 672 l 17 533 l 121 533 l 121 0 z "},"g":{"ha":789,"x_min":35,"x_max":704,"o":"m 704 -32 q 607 -245 704 -171 q 346 -319 510 -319 q 207 -298 294 -319 q 71 -243 119 -276 l 125 -115 q 239 -160 188 -146 q 342 -175 290 -174 q 473 -135 424 -174 q 522 -31 522 -96 l 522 26 q 374 -17 453 -17 q 126 78 217 -17 q 35 336 35 174 q 76 522 35 442 q 194 647 117 603 q 379 692 272 692 q 477 669 425 692 q 569 613 529 647 l 610 674 l 704 674 l 704 -32 m 381 138 q 451 151 417 138 q 522 193 485 165 l 522 481 q 453 524 486 511 q 381 538 419 538 q 264 481 307 538 q 221 336 221 425 q 263 192 221 247 q 381 138 306 138 z "},"h":{"ha":799,"x_min":90,"x_max":728,"o":"m 497 696 q 676 624 625 696 q 728 422 728 551 l 728 0 l 547 0 l 547 414 q 522 511 547 476 q 450 546 496 546 q 361 524 403 546 q 269 467 319 503 l 269 0 l 90 0 l 90 965 l 269 981 l 269 622 q 388 676 326 657 q 497 696 449 696 z "},"i":{"ha":333,"x_min":65,"x_max":268,"o":"m 165 769 q 238 799 208 769 q 268 871 268 828 q 238 943 268 914 q 165 972 208 972 q 94 943 124 972 q 65 871 65 914 q 94 799 65 828 q 165 769 124 769 m 76 674 l 76 0 l 257 0 l 257 674 l 76 674 z "},"j":{"ha":363,"x_min":-7,"x_max":292,"o":"m 189 769 q 117 799 146 769 q 88 871 88 828 q 117 943 88 914 q 189 972 146 972 q 262 943 232 972 q 292 871 292 914 q 262 799 292 828 q 189 769 232 769 m 281 -15 q 263 -128 281 -83 q 198 -208 244 -174 q 64 -269 151 -242 l -7 -132 q 63 -94 40 -115 q 92 -45 86 -72 q 99 28 99 -18 l 99 674 l 281 674 l 281 -15 z "},"k":{"ha":718,"x_min":90,"x_max":718,"o":"m 342 285 l 511 0 l 718 0 l 471 400 l 660 565 l 558 693 l 269 428 l 269 981 l 90 965 l 90 0 l 269 0 l 269 221 l 342 285 z "},"l":{"ha":360,"x_min":90,"x_max":269,"o":"m 90 965 l 90 0 l 269 0 l 269 981 l 90 965 z "},"m":{"ha":1188,"x_min":76,"x_max":1117,"o":"m 900 696 q 1066 634 1015 696 q 1117 450 1117 572 l 1117 0 l 936 0 l 936 414 q 916 513 936 479 q 853 546 896 546 q 776 526 811 546 q 688 468 742 507 l 688 450 l 688 0 l 507 0 l 507 414 q 487 513 507 479 q 424 546 467 546 q 347 526 382 546 q 257 467 313 507 l 257 0 l 76 0 l 76 674 l 194 674 l 225 601 q 354 671 288 646 q 471 696 421 696 q 657 604 608 696 q 785 672 719 647 q 900 696 850 696 z "},"n":{"ha":786,"x_min":76,"x_max":715,"o":"m 257 467 q 349 524 307 503 q 438 546 390 546 q 509 511 483 546 q 535 414 535 476 l 535 0 l 715 0 l 715 422 q 664 624 715 551 q 485 696 613 696 q 358 671 429 696 q 225 601 288 646 l 194 674 l 76 674 l 76 0 l 257 0 l 257 467 z "},"o":{"ha":789,"x_min":35,"x_max":754,"o":"m 754 339 q 710 151 754 232 q 584 27 665 71 q 394 -17 503 -17 q 205 26 286 -17 q 79 149 124 69 q 35 336 35 229 q 79 524 35 443 q 205 648 124 604 q 394 692 286 692 q 584 649 503 692 q 710 526 665 606 q 754 339 754 446 m 394 138 q 519 194 469 138 q 568 339 568 251 q 519 482 568 426 q 394 538 471 538 q 270 481 319 538 q 221 336 221 424 q 269 193 221 249 q 394 138 318 138 z "},"p":{"ha":764,"x_min":85,"x_max":729,"o":"m 390 692 q 638 597 547 692 q 729 339 729 501 q 688 153 729 233 q 569 28 647 72 q 385 -17 492 -17 q 264 15 328 -17 l 264 -290 l 85 -304 l 85 674 l 176 674 l 213 628 q 390 692 294 692 m 383 138 q 500 194 457 138 q 543 339 543 250 q 501 483 543 428 q 383 538 458 538 q 264 497 325 538 l 264 176 q 383 138 321 138 z "},"q":{"ha":789,"x_min":35,"x_max":704,"o":"m 704 -290 l 522 -304 l 522 26 q 374 -17 453 -17 q 126 78 217 -17 q 35 336 35 174 q 76 522 35 442 q 194 647 117 603 q 379 692 272 692 q 477 669 425 692 q 569 613 529 647 l 610 674 l 704 674 l 704 -290 m 381 138 q 451 151 417 138 q 522 193 485 165 l 522 481 q 453 524 486 511 q 381 538 419 538 q 264 481 307 538 q 221 336 221 425 q 263 192 221 247 q 381 138 306 138 z "},"r":{"ha":510,"x_min":76,"x_max":496,"o":"m 257 411 q 383 496 315 463 q 496 529 450 529 l 460 674 q 344 639 410 674 q 231 561 279 604 l 171 674 l 76 674 l 76 0 l 257 0 l 257 411 z "},"s":{"ha":586,"x_min":38,"x_max":551,"o":"m 38 53 q 150 1 81 19 q 271 -17 219 -17 q 479 38 407 -17 q 551 194 551 93 q 486 331 551 275 q 322 422 421 386 q 244 455 271 440 q 217 488 217 469 q 240 528 217 511 q 297 546 263 546 q 383 535 342 546 q 476 500 424 524 l 531 621 q 415 672 483 653 q 300 692 347 692 q 108 637 179 692 q 38 486 38 582 q 101 360 38 410 q 261 278 165 310 q 379 188 379 242 q 344 144 379 160 q 268 129 310 129 q 92 175 194 129 l 38 53 z "},"t":{"ha":529,"x_min":14,"x_max":508,"o":"m 283 864 l 104 832 l 104 672 l 14 672 l 14 533 l 104 533 l 104 215 q 175 36 104 100 q 372 -28 246 -28 q 447 -15 406 -28 q 508 14 488 -3 l 456 144 q 382 126 418 126 q 309 160 335 126 q 283 247 283 193 l 283 533 l 461 533 l 406 672 l 283 672 l 283 864 z "},"u":{"ha":786,"x_min":71,"x_max":710,"o":"m 529 207 q 438 149 479 171 q 349 128 396 128 q 277 163 303 128 q 251 260 251 197 l 251 674 l 71 674 l 71 251 q 122 50 71 122 q 301 -22 174 -22 q 428 3 357 -22 q 561 72 499 28 l 592 0 l 710 0 l 710 674 l 529 674 l 529 207 z "},"v":{"ha":697,"x_min":14,"x_max":683,"o":"m 493 674 l 346 265 l 190 699 l 14 646 l 263 0 l 418 0 l 683 674 l 493 674 z "},"w":{"ha":996,"x_min":14,"x_max":982,"o":"m 792 674 l 696 282 l 592 674 l 393 674 l 296 282 l 192 699 l 14 646 l 215 0 l 368 0 l 489 413 l 615 0 l 767 0 l 982 674 l 792 674 z "},"x":{"ha":708,"x_min":14,"x_max":694,"o":"m 474 0 l 672 0 l 465 317 l 694 674 l 497 674 l 358 458 l 206 696 l 38 644 l 243 343 l 14 0 l 214 0 l 349 203 l 474 0 z "},"y":{"ha":699,"x_min":14,"x_max":685,"o":"m 214 -32 q 153 -101 199 -74 q 38 -160 108 -129 l 101 -308 q 274 -227 194 -286 q 383 -89 353 -168 l 685 674 l 494 674 l 347 265 l 192 699 l 14 646 l 246 47 l 214 -32 z "},"z":{"ha":615,"x_min":18,"x_max":597,"o":"m 69 525 l 353 525 l 18 96 l 42 0 l 597 0 l 583 146 l 244 146 l 583 571 l 574 674 l 35 674 l 69 525 z "},"ﬁ":{"ha":851,"x_min":17,"x_max":786,"o":"m 121 0 l 301 0 l 301 533 l 486 533 l 429 672 l 301 672 l 301 699 q 324 787 301 754 q 392 819 346 819 q 467 801 421 819 l 518 932 q 456 963 496 950 q 383 975 415 975 q 190 908 260 975 q 121 724 121 842 l 121 672 l 17 672 l 17 533 l 121 533 l 121 0 m 683 769 q 756 799 726 769 q 786 871 786 828 q 756 943 786 914 q 683 972 726 972 q 613 943 642 972 q 583 871 583 914 q 613 799 583 828 q 683 769 642 769 m 594 674 l 594 0 l 775 0 l 775 674 l 594 674 z "},"ﬂ":{"ha":878,"x_min":17,"x_max":788,"o":"m 121 0 l 301 0 l 301 533 l 486 533 l 429 672 l 301 672 l 301 699 q 324 787 301 754 q 392 819 346 819 q 467 801 421 819 l 518 932 q 456 963 496 950 q 383 975 415 975 q 190 908 260 975 q 121 724 121 842 l 121 672 l 17 672 l 17 533 l 121 533 l 121 0 m 608 965 l 608 0 l 788 0 l 788 981 l 608 965 z "},"`":{"ha":285,"x_min":14,"x_max":271,"o":"m 200 1046 l 14 1046 l 146 818 l 271 853 l 200 1046 z "},"¨":{"ha":474,"x_min":14,"x_max":460,"o":"m 106 838 q 168 863 143 838 q 193 926 193 889 q 168 990 193 964 q 106 1017 143 1017 q 40 990 67 1017 q 14 926 14 964 q 40 863 14 889 q 106 838 67 838 m 369 838 q 434 863 408 838 q 460 926 460 889 q 434 990 460 964 q 369 1017 408 1017 q 306 990 333 1017 q 279 926 279 964 q 306 863 279 889 q 369 838 332 838 z "},"¯":{"ha":392,"x_min":14,"x_max":378,"o":"m 364 994 l 14 994 l 14 851 l 378 851 l 364 994 z "},"´":{"ha":285,"x_min":14,"x_max":271,"o":"m 85 1046 l 14 853 l 139 818 l 271 1046 l 85 1046 z "},"ˆ":{"ha":549,"x_min":14,"x_max":535,"o":"m 535 840 l 324 1046 l 225 1046 l 14 840 l 185 818 l 278 908 l 369 818 l 535 840 z "},"ˇ":{"ha":549,"x_min":14,"x_max":535,"o":"m 14 1024 l 225 818 l 324 818 l 535 1024 l 369 1046 l 278 956 l 185 1046 l 14 1024 z "},"˘":{"ha":436,"x_min":14,"x_max":422,"o":"m 301 1046 q 281 976 301 1006 q 218 947 260 947 q 157 976 176 947 q 138 1046 138 1004 l 14 1046 q 67 885 14 951 q 218 818 119 819 q 369 885 317 819 q 422 1046 422 951 l 301 1046 z "},"˙":{"ha":231,"x_min":14,"x_max":217,"o":"m 117 825 q 188 854 160 825 q 217 926 217 883 q 188 999 217 969 q 117 1029 160 1029 q 44 999 74 1029 q 14 926 14 969 q 44 854 14 883 q 117 825 74 825 z "},"˚":{"ha":325,"x_min":14,"x_max":311,"o":"m 163 1101 q 58 1060 103 1101 q 14 961 14 1019 q 58 864 14 903 q 163 825 101 825 q 267 864 224 825 q 311 961 311 903 q 267 1060 311 1019 q 163 1101 222 1101 m 163 906 q 124 922 140 906 q 107 961 107 939 q 124 999 107 983 q 163 1015 140 1015 q 201 999 185 1015 q 217 961 217 983 q 201 922 217 939 q 163 906 185 906 z "},"˜":{"ha":482,"x_min":14,"x_max":468,"o":"m 356 994 q 344 965 356 978 q 318 951 333 951 q 279 957 294 951 q 243 975 264 963 q 206 994 224 988 q 163 1000 189 1000 q 57 960 100 1000 q 14 833 14 919 l 133 833 q 145 862 133 847 q 172 876 157 876 q 209 871 196 876 q 243 853 222 865 q 276 833 260 840 q 319 826 292 826 q 425 867 382 826 q 468 994 468 907 l 356 994 z "},"˝":{"ha":563,"x_min":14,"x_max":549,"o":"m 85 1046 l 14 853 l 139 818 l 271 1046 l 85 1046 m 363 1046 l 292 853 l 417 818 l 549 1046 l 363 1046 z "},"˛":{"ha":331,"x_min":14,"x_max":317,"o":"m 67 7 q 31 -58 49 -15 q 14 -131 14 -101 q 59 -242 14 -196 q 175 -287 104 -287 q 317 -242 256 -287 l 265 -131 q 234 -148 250 -142 q 208 -154 218 -154 q 176 -143 188 -154 q 165 -115 165 -132 q 185 -50 165 -87 q 226 7 206 -12 l 67 7 z "},"¸":{"ha":335,"x_min":14,"x_max":321,"o":"m 71 -104 q 158 -126 122 -110 q 193 -167 193 -142 q 179 -185 193 -179 q 146 -190 165 -190 q 102 -181 129 -190 q 56 -162 75 -172 l 14 -268 q 76 -296 35 -285 q 146 -307 117 -307 q 270 -270 219 -307 q 321 -164 321 -233 q 293 -92 321 -128 q 224 -40 265 -57 l 249 18 l 119 18 l 71 -104 z "},"":{"ha":0,"x_min":14,"x_max":219,"o":"m 117 -29 q 44 -61 75 -29 q 14 -132 14 -93 q 40 -201 14 -169 q 92 -232 65 -232 q 62 -280 83 -258 q 19 -310 40 -301 l 58 -394 q 174 -295 128 -361 q 219 -154 219 -229 q 190 -65 219 -100 q 117 -29 160 -29 z "},"Þ":{"ha":843,"x_min":118,"x_max":788,"o":"m 414 833 q 684 759 581 833 q 788 531 788 685 q 734 357 788 428 q 593 252 681 286 q 401 218 506 218 l 297 218 l 297 0 l 118 0 l 118 944 l 297 944 l 297 833 l 414 833 m 411 367 q 543 405 494 367 q 597 519 592 443 q 549 645 597 607 q 408 683 501 683 l 297 683 l 297 367 l 411 367 z "},"Ð":{"ha":960,"x_min":25,"x_max":911,"o":"m 476 944 q 717 885 619 944 q 863 722 815 826 q 911 478 911 617 q 797 130 911 257 q 476 -1 683 3 l 118 0 l 118 404 l 40 404 l 25 544 l 118 544 l 118 944 l 476 944 m 474 151 q 659 230 593 151 q 725 478 725 308 q 665 710 725 629 q 483 792 606 792 l 297 792 l 297 544 l 397 544 l 410 404 l 297 404 l 297 151 l 474 151 z "},"Æ":{"ha":1336,"x_min":0,"x_max":1308,"o":"m 647 222 l 647 0 l 1308 0 l 1281 140 l 829 140 l 829 406 l 1167 406 l 1138 549 l 829 549 l 829 803 l 1240 803 l 1214 944 l 629 944 l 0 11 l 172 -14 l 325 222 l 647 222 m 422 368 l 647 697 l 647 368 l 422 368 z "},"Đ":{"ha":960,"x_min":25,"x_max":911,"o":"m 476 944 q 717 885 619 944 q 863 722 815 826 q 911 478 911 617 q 798 128 911 254 q 476 0 685 3 l 118 0 l 118 404 l 40 404 l 25 544 l 118 544 l 118 944 l 476 944 m 474 151 q 659 230 593 151 q 725 478 725 308 q 665 710 725 629 q 483 792 606 792 l 297 792 l 297 544 l 397 544 l 410 404 l 297 404 l 297 151 l 474 151 z "},"Ł":{"ha":772,"x_min":7,"x_max":742,"o":"m 75 257 l 7 383 l 118 467 l 118 944 l 297 944 l 297 603 l 444 714 l 514 588 l 297 425 l 297 140 l 714 140 l 742 0 l 118 0 l 118 289 l 75 257 z "},"Œ":{"ha":1369,"x_min":49,"x_max":1342,"o":"m 681 10 q 497 -19 582 -19 q 253 44 354 -19 q 100 219 151 108 q 49 468 49 329 q 105 725 49 613 q 265 901 161 838 q 504 964 368 964 q 587 956 539 964 q 681 933 635 949 l 681 944 l 1244 944 l 1272 803 l 860 803 l 860 549 l 1168 549 l 1197 406 l 860 406 l 860 140 l 1313 140 l 1342 0 l 681 0 l 681 10 m 488 132 q 681 169 583 132 l 681 779 q 582 806 615 799 q 499 813 549 813 q 364 771 424 813 q 270 651 304 729 q 236 469 236 574 q 266 299 236 376 q 353 177 296 222 q 488 132 410 132 z "},"Ø":{"ha":1024,"x_min":49,"x_max":975,"o":"m 511 967 q 760 902 654 967 q 920 726 865 838 q 975 478 975 615 q 917 222 975 333 q 753 47 858 110 q 511 -19 649 -17 q 263 45 368 -19 q 103 220 158 110 q 49 468 49 331 q 106 724 49 611 q 269 900 164 836 q 511 967 375 964 m 514 814 q 376 772 439 814 q 274 651 313 729 q 236 469 236 572 q 257 326 236 392 q 318 217 278 261 l 565 810 q 514 814 540 814 m 510 132 q 651 170 588 132 q 751 287 714 208 q 788 478 788 365 q 718 715 788 622 l 474 135 q 510 132 496 132 z "},"ß":{"ha":869,"x_min":90,"x_max":828,"o":"m 269 654 q 313 774 269 729 q 425 819 357 819 q 528 785 486 819 q 571 693 571 750 q 526 599 571 638 q 410 560 482 560 l 361 560 l 361 415 l 492 415 q 594 375 551 415 q 638 276 638 335 q 591 185 638 222 q 479 149 544 149 l 353 149 l 353 0 l 492 0 q 668 33 592 0 q 786 128 744 67 q 828 271 828 189 q 801 383 828 331 q 733 470 775 435 q 647 517 692 506 q 727 594 694 539 q 760 706 760 650 q 664 905 760 835 q 417 975 568 975 q 177 888 264 975 q 90 657 90 801 l 90 0 l 269 0 l 269 654 z "},"ð":{"ha":789,"x_min":35,"x_max":754,"o":"m 489 858 q 682 628 610 756 q 754 375 754 501 q 710 165 754 254 q 584 30 665 76 q 394 -17 503 -17 q 205 26 286 -17 q 79 149 124 69 q 35 336 35 229 q 78 523 35 442 q 201 648 122 604 q 381 692 279 692 q 418 689 393 692 q 328 772 381 731 l 146 674 l 75 801 l 189 861 q 89 910 151 882 l 158 1040 q 360 951 261 1011 l 510 1031 l 579 907 l 489 858 m 394 138 q 519 194 469 138 q 568 339 568 251 q 536 508 568 428 q 394 538 474 538 q 270 481 319 538 q 221 336 221 424 q 269 193 221 249 q 394 138 318 138 z "},"þ":{"ha":764,"x_min":85,"x_max":729,"o":"m 390 692 q 638 597 547 692 q 729 339 729 501 q 688 153 729 233 q 569 28 647 72 q 385 -17 492 -17 q 264 19 332 -17 l 264 -290 l 85 -304 l 85 965 l 264 981 l 264 658 q 390 692 331 692 m 383 138 q 500 194 457 138 q 543 339 543 250 q 501 483 543 428 q 383 538 458 538 q 264 497 325 538 l 264 176 q 383 138 321 138 z "},"ƒ":{"ha":614,"x_min":0,"x_max":614,"o":"m 217 533 l 217 106 q 194 17 217 50 q 126 -15 172 -15 q 51 3 97 -15 l 0 -128 q 63 -158 22 -146 q 135 -171 103 -171 q 328 -104 258 -171 q 397 81 397 -37 l 397 533 l 582 533 l 525 672 l 397 672 l 397 699 q 419 787 397 754 q 488 819 442 819 q 563 801 518 819 l 614 932 q 551 963 592 950 q 479 975 511 975 q 286 908 356 975 q 217 724 217 842 l 217 672 l 113 672 l 113 533 l 217 533 z "},"æ":{"ha":1129,"x_min":58,"x_max":1094,"o":"m 640 283 q 701 175 654 213 q 843 138 747 138 q 943 153 899 138 q 1039 197 988 168 l 1092 67 q 981 5 1040 26 q 839 -17 921 -17 q 538 88 639 -17 q 435 12 489 40 q 301 -17 382 -17 q 119 42 181 -17 q 58 201 58 101 q 128 360 58 304 q 314 417 197 417 l 446 417 q 416 497 444 468 q 338 525 388 525 q 236 512 292 525 q 142 481 181 499 l 93 631 q 208 673 129 654 q 335 692 288 692 q 457 670 400 692 q 556 610 514 649 q 788 692 644 692 q 958 644 889 692 q 1061 517 1028 597 q 1094 339 1094 438 l 1094 283 l 640 283 m 924 404 q 874 504 910 471 q 783 538 839 538 q 690 503 728 538 q 642 404 653 469 l 924 404 m 299 126 q 398 145 360 126 q 469 200 436 164 q 450 296 454 246 l 311 296 q 240 268 267 296 q 213 201 213 240 q 237 149 213 171 q 299 126 261 126 z "},"đ":{"ha":794,"x_min":35,"x_max":801,"o":"m 704 757 l 704 0 l 610 0 l 567 63 q 472 4 522 25 q 374 -17 421 -17 q 126 78 217 -17 q 35 336 35 174 q 76 522 35 442 q 194 647 117 603 q 379 692 272 692 q 447 678 408 692 q 522 644 485 665 l 522 757 l 439 757 l 422 889 l 522 889 l 522 965 l 704 981 l 704 889 l 786 889 l 801 757 l 704 757 m 221 336 q 263 192 221 247 q 381 138 306 138 q 451 151 417 138 q 522 193 485 165 l 522 481 q 453 524 486 511 q 381 538 419 538 q 264 481 307 538 q 221 336 221 425 z "},"œ":{"ha":1169,"x_min":35,"x_max":1135,"o":"m 681 283 q 741 175 694 213 q 883 138 788 138 q 983 153 939 138 q 1079 197 1028 168 l 1132 67 q 1021 5 1081 26 q 879 -17 961 -17 q 622 50 721 -17 q 511 1 579 18 q 393 -17 443 -17 q 203 26 285 -17 q 78 149 122 69 q 35 336 35 229 q 78 524 35 443 q 203 648 122 604 q 393 692 285 692 q 503 674 438 692 q 617 628 569 657 q 828 692 701 692 q 999 644 929 692 q 1101 517 1068 597 q 1135 339 1135 438 l 1135 283 l 681 283 m 221 336 q 269 193 221 249 q 394 138 318 138 q 525 163 458 138 q 489 336 489 239 q 525 513 489 436 q 394 538 458 538 q 270 481 319 538 q 221 336 221 424 m 964 404 q 915 504 950 471 q 824 538 879 538 q 731 503 768 538 q 682 404 693 469 l 964 404 z "},"ĺ":{"ha":360,"x_min":90,"x_max":378,"o":"m 192 1254 l 121 1061 l 246 1026 l 378 1254 l 192 1254 m 90 935 l 90 0 l 269 0 l 269 951 l 90 935 z "},"ł":{"ha":508,"x_min":0,"x_max":508,"o":"m 344 981 l 165 965 l 165 536 l 0 411 l 69 286 l 165 357 l 165 0 l 344 0 l 344 494 l 508 618 l 438 743 l 344 672 l 344 981 z "},"ı":{"ha":333,"x_min":76,"x_max":257,"o":"m 76 674 l 76 0 l 257 0 l 257 674 l 76 674 z "},"ø":{"ha":789,"x_min":35,"x_max":754,"o":"m 394 692 q 584 649 503 692 q 710 526 665 606 q 754 339 754 446 q 710 151 754 232 q 584 27 665 71 q 394 -17 503 -17 q 205 26 286 -17 q 79 149 124 69 q 35 336 35 229 q 79 524 35 443 q 205 648 124 604 q 394 692 286 692 m 394 538 q 270 481 319 538 q 221 336 221 424 q 249 222 221 271 l 426 535 q 394 538 407 538 m 394 138 q 519 194 469 138 q 568 339 568 251 q 546 443 568 396 l 365 140 q 394 138 385 138 z "},"À":{"ha":915,"x_min":14,"x_max":901,"o":"m 194 0 l 278 222 l 636 222 l 721 -14 l 901 11 l 535 944 l 382 944 l 14 0 l 194 0 m 454 697 l 581 368 l 331 368 l 454 697 m 451 1254 l 265 1254 l 397 1026 l 522 1061 l 451 1254 z "},"Á":{"ha":915,"x_min":14,"x_max":901,"o":"m 194 0 l 278 222 l 636 222 l 721 -14 l 901 11 l 535 944 l 382 944 l 14 0 l 194 0 m 454 697 l 581 368 l 331 368 l 454 697 m 426 1254 l 356 1061 l 481 1026 l 613 1254 l 426 1254 z "},"Â":{"ha":915,"x_min":14,"x_max":901,"o":"m 194 0 l 278 222 l 636 222 l 721 -14 l 901 11 l 535 944 l 382 944 l 14 0 l 194 0 m 454 697 l 581 368 l 331 368 l 454 697 m 708 1049 l 497 1254 l 399 1254 l 188 1049 l 358 1026 l 451 1117 l 543 1026 l 708 1049 z "},"Ã":{"ha":915,"x_min":14,"x_max":901,"o":"m 194 0 l 278 222 l 636 222 l 721 -14 l 901 11 l 535 944 l 382 944 l 14 0 l 194 0 m 454 697 l 581 368 l 331 368 l 454 697 m 557 1203 q 546 1173 557 1186 q 519 1160 535 1160 q 481 1165 496 1160 q 444 1183 465 1171 q 408 1202 425 1196 q 364 1208 390 1208 q 258 1168 301 1208 q 215 1042 215 1128 l 335 1042 q 347 1070 335 1056 q 374 1085 358 1085 q 410 1079 397 1085 q 444 1061 424 1074 q 477 1042 461 1049 q 521 1035 493 1035 q 626 1075 583 1035 q 669 1203 669 1115 l 557 1203 z "},"Ä":{"ha":915,"x_min":14,"x_max":901,"o":"m 194 0 l 278 222 l 636 222 l 721 -14 l 901 11 l 535 944 l 382 944 l 14 0 l 194 0 m 454 697 l 581 368 l 331 368 l 454 697 m 322 1046 q 385 1072 360 1046 q 410 1135 410 1097 q 385 1199 410 1172 q 322 1225 360 1225 q 257 1199 283 1225 q 231 1135 231 1172 q 257 1072 231 1097 q 322 1046 283 1046 m 586 1046 q 651 1072 625 1046 q 676 1135 676 1097 q 651 1199 676 1172 q 586 1225 625 1225 q 523 1199 550 1225 q 496 1135 496 1172 q 522 1072 496 1097 q 586 1046 549 1046 z "},"Å":{"ha":915,"x_min":14,"x_max":901,"o":"m 194 0 l 278 222 l 636 222 l 721 -14 l 901 11 l 535 944 l 382 944 l 14 0 l 194 0 m 454 697 l 581 368 l 331 368 l 454 697 m 451 1310 q 347 1269 392 1310 q 303 1169 303 1228 q 347 1072 303 1111 q 451 1033 390 1033 q 556 1072 513 1033 q 600 1169 600 1111 q 556 1269 600 1228 q 451 1310 511 1310 m 451 1114 q 413 1131 429 1114 q 396 1169 396 1147 q 413 1208 396 1192 q 451 1224 429 1224 q 490 1208 474 1224 q 506 1169 506 1192 q 490 1131 506 1147 q 451 1114 474 1114 z "},"Ă":{"ha":915,"x_min":14,"x_max":901,"o":"m 194 0 l 278 222 l 636 222 l 721 -14 l 901 11 l 535 944 l 382 944 l 14 0 l 194 0 m 454 697 l 581 368 l 331 368 l 454 697 m 536 1254 q 515 1185 536 1214 q 453 1156 494 1156 q 392 1184 411 1156 q 372 1254 372 1213 l 249 1254 q 301 1094 249 1160 q 453 1026 354 1028 q 604 1094 551 1028 q 657 1254 657 1160 l 536 1254 z "},"Ą":{"ha":915,"x_min":14,"x_max":999,"o":"m 999 -242 q 857 -287 938 -287 q 741 -242 786 -287 q 696 -131 696 -196 q 708 -72 696 -107 q 736 -12 719 -37 l 721 -14 l 636 222 l 278 222 l 194 0 l 14 0 l 382 944 l 535 944 l 901 11 l 871 7 l 908 7 q 867 -50 888 -12 q 847 -115 847 -87 q 858 -143 847 -132 q 890 -154 869 -154 q 916 -148 900 -154 q 947 -131 932 -142 l 999 -242 m 454 697 l 331 368 l 581 368 l 454 697 z "},"Ā":{"ha":915,"x_min":14,"x_max":901,"o":"m 194 0 l 278 222 l 636 222 l 721 -14 l 901 11 l 535 944 l 382 944 l 14 0 l 194 0 m 454 697 l 581 368 l 331 368 l 454 697 m 615 1203 l 265 1203 l 265 1060 l 629 1060 l 615 1203 z "},"Ç":{"ha":783,"x_min":49,"x_max":763,"o":"m 543 -40 q 613 -92 585 -57 q 640 -164 640 -128 q 590 -270 640 -233 q 465 -307 539 -307 q 395 -296 436 -307 q 333 -268 354 -285 l 375 -162 q 422 -181 394 -172 q 465 -190 449 -190 q 499 -185 485 -190 q 513 -167 513 -179 q 477 -126 513 -142 q 390 -104 442 -110 l 426 -15 q 220 67 306 0 q 92 238 135 135 q 49 468 49 342 q 105 725 49 613 q 265 901 161 838 q 504 964 368 964 q 626 949 554 964 q 754 903 699 933 l 699 774 l 664 783 q 578 806 610 800 q 499 813 546 813 q 364 771 424 813 q 270 651 304 729 q 236 469 236 574 q 266 299 236 376 q 353 177 296 222 q 488 132 410 132 q 694 175 590 132 l 763 42 q 665 6 721 21 q 553 -17 608 -10 l 543 -40 z "},"Ć":{"ha":783,"x_min":49,"x_max":763,"o":"m 754 903 q 626 949 699 933 q 504 964 554 964 q 265 901 368 964 q 105 725 161 838 q 49 468 49 613 q 100 219 49 329 q 253 44 151 108 q 497 -19 354 -19 q 634 -3 558 -19 q 763 42 710 14 l 694 175 q 488 132 590 132 q 353 177 410 132 q 266 299 296 222 q 236 469 236 376 q 270 651 236 574 q 364 771 304 729 q 499 813 424 813 q 578 806 546 813 q 664 783 610 800 l 699 774 l 754 903 m 478 1254 l 407 1061 l 532 1026 l 664 1254 l 478 1254 z "},"Č":{"ha":783,"x_min":49,"x_max":768,"o":"m 754 903 q 626 949 699 933 q 504 964 554 964 q 265 901 368 964 q 105 725 161 838 q 49 468 49 613 q 100 219 49 329 q 253 44 151 108 q 497 -19 354 -19 q 634 -3 558 -19 q 763 42 710 14 l 694 175 q 488 132 590 132 q 353 177 410 132 q 266 299 296 222 q 236 469 236 376 q 270 651 236 574 q 364 771 304 729 q 499 813 424 813 q 578 806 546 813 q 664 783 610 800 l 699 774 l 754 903 m 247 1232 l 458 1026 l 557 1026 l 768 1232 l 603 1254 l 511 1164 l 418 1254 l 247 1232 z "},"Ď":{"ha":960,"x_min":118,"x_max":911,"o":"m 476 0 q 798 128 685 3 q 911 478 911 254 q 863 722 911 617 q 717 885 815 826 q 476 944 619 944 l 118 944 l 118 0 l 476 0 m 483 792 q 665 710 606 792 q 725 478 725 629 q 659 230 725 308 q 474 151 593 151 l 297 151 l 297 792 l 483 792 m 196 1232 l 407 1026 l 506 1026 l 717 1232 l 551 1254 l 460 1164 l 367 1254 l 196 1232 z "},"È":{"ha":807,"x_min":118,"x_max":779,"o":"m 297 140 l 297 406 l 635 406 l 606 549 l 297 549 l 297 803 l 710 803 l 682 944 l 118 944 l 118 0 l 779 0 l 750 140 l 297 140 m 417 1254 l 231 1254 l 363 1026 l 488 1061 l 417 1254 z "},"É":{"ha":807,"x_min":118,"x_max":779,"o":"m 297 140 l 297 406 l 635 406 l 606 549 l 297 549 l 297 803 l 710 803 l 682 944 l 118 944 l 118 0 l 779 0 l 750 140 l 297 140 m 392 1254 l 321 1061 l 446 1026 l 578 1254 l 392 1254 z "},"Ê":{"ha":807,"x_min":118,"x_max":779,"o":"m 297 140 l 297 406 l 635 406 l 606 549 l 297 549 l 297 803 l 710 803 l 682 944 l 118 944 l 118 0 l 779 0 l 750 140 l 297 140 m 674 1049 l 463 1254 l 364 1254 l 153 1049 l 324 1026 l 417 1117 l 508 1026 l 674 1049 z "},"Ë":{"ha":807,"x_min":118,"x_max":779,"o":"m 297 140 l 297 406 l 635 406 l 606 549 l 297 549 l 297 803 l 710 803 l 682 944 l 118 944 l 118 0 l 779 0 l 750 140 l 297 140 m 288 1046 q 350 1072 325 1046 q 375 1135 375 1097 q 350 1199 375 1172 q 288 1225 325 1225 q 222 1199 249 1225 q 196 1135 196 1172 q 222 1072 196 1097 q 288 1046 249 1046 m 551 1046 q 616 1072 590 1046 q 642 1135 642 1097 q 616 1199 642 1172 q 551 1225 590 1225 q 488 1199 515 1225 q 461 1135 461 1172 q 488 1072 461 1097 q 551 1046 514 1046 z "},"Ē":{"ha":807,"x_min":118,"x_max":779,"o":"m 297 140 l 297 406 l 635 406 l 606 549 l 297 549 l 297 803 l 710 803 l 682 944 l 118 944 l 118 0 l 779 0 l 750 140 l 297 140 m 581 1203 l 231 1203 l 231 1060 l 594 1060 l 581 1203 z "},"Ė":{"ha":807,"x_min":118,"x_max":779,"o":"m 297 140 l 297 406 l 635 406 l 606 549 l 297 549 l 297 803 l 710 803 l 682 944 l 118 944 l 118 0 l 779 0 l 750 140 l 297 140 m 419 1033 q 491 1063 463 1033 q 519 1135 519 1092 q 491 1208 519 1178 q 419 1238 463 1238 q 347 1208 376 1238 q 317 1135 317 1178 q 347 1063 317 1092 q 419 1033 376 1033 z "},"Ę":{"ha":807,"x_min":118,"x_max":790,"o":"m 790 -242 q 649 -287 729 -287 q 533 -242 578 -287 q 488 -131 488 -196 q 502 -64 488 -104 q 535 0 517 -24 l 118 0 l 118 944 l 682 944 l 710 803 l 297 803 l 297 549 l 606 549 l 635 406 l 297 406 l 297 140 l 750 140 l 779 0 l 693 0 q 656 -56 672 -21 q 639 -115 639 -90 q 650 -143 639 -132 q 682 -154 661 -154 q 708 -148 692 -154 q 739 -131 724 -142 l 790 -242 z "},"Ě":{"ha":807,"x_min":118,"x_max":779,"o":"m 297 140 l 297 406 l 635 406 l 606 549 l 297 549 l 297 803 l 710 803 l 682 944 l 118 944 l 118 0 l 779 0 l 750 140 l 297 140 m 161 1232 l 372 1026 l 471 1026 l 682 1232 l 517 1254 l 425 1164 l 332 1254 l 161 1232 z "},"Ğ":{"ha":875,"x_min":49,"x_max":813,"o":"m 651 147 q 514 132 578 132 q 369 173 432 132 q 271 291 306 214 q 236 469 236 368 q 277 658 236 581 q 388 774 318 735 q 543 813 457 813 q 620 806 589 813 q 704 785 651 800 q 742 774 703 786 l 799 903 q 667 949 742 933 q 540 964 592 964 q 288 900 400 964 q 112 723 175 836 q 49 468 49 610 q 106 221 49 332 q 269 45 163 110 q 518 -19 375 -19 q 678 0 601 -19 q 813 50 754 19 l 813 517 l 468 517 l 453 378 l 651 378 l 651 147 m 622 1254 q 601 1185 622 1214 q 539 1156 581 1156 q 478 1184 497 1156 q 458 1254 458 1213 l 335 1254 q 388 1094 335 1160 q 539 1026 440 1028 q 690 1094 638 1028 q 743 1254 743 1160 l 622 1254 z "},"Ì":{"ha":415,"x_min":22,"x_max":297,"o":"m 118 944 l 118 0 l 297 0 l 297 944 l 118 944 m 208 1254 l 22 1254 l 154 1026 l 279 1061 l 208 1254 z "},"Í":{"ha":415,"x_min":113,"x_max":369,"o":"m 118 944 l 118 0 l 297 0 l 297 944 l 118 944 m 183 1254 l 113 1061 l 238 1026 l 369 1254 l 183 1254 z "},"Î":{"ha":415,"x_min":-56,"x_max":465,"o":"m 118 944 l 118 0 l 297 0 l 297 944 l 118 944 m 465 1049 l 254 1254 l 156 1254 l -56 1049 l 115 1026 l 208 1117 l 300 1026 l 465 1049 z "},"Ï":{"ha":415,"x_min":-12,"x_max":433,"o":"m 118 944 l 118 0 l 297 0 l 297 944 l 118 944 m 79 1046 q 142 1072 117 1046 q 167 1135 167 1097 q 142 1199 167 1172 q 79 1225 117 1225 q 14 1199 40 1225 q -12 1135 -12 1172 q 14 1072 -12 1097 q 79 1046 40 1046 m 343 1046 q 408 1072 382 1046 q 433 1135 433 1097 q 408 1199 433 1172 q 343 1225 382 1225 q 280 1199 307 1225 q 253 1135 253 1172 q 279 1072 253 1097 q 343 1046 306 1046 z "},"Ī":{"ha":415,"x_min":22,"x_max":386,"o":"m 118 944 l 118 0 l 297 0 l 297 944 l 118 944 m 372 1203 l 22 1203 l 22 1060 l 386 1060 l 372 1203 z "},"Į":{"ha":415,"x_min":88,"x_max":390,"o":"m 390 -242 q 249 -287 329 -287 q 133 -242 178 -287 q 88 -131 88 -196 q 102 -64 88 -104 q 135 0 117 -24 l 118 0 l 118 944 l 297 944 l 297 7 l 300 7 l 297 4 l 297 0 l 293 0 q 256 -56 272 -21 q 239 -115 239 -90 q 250 -143 239 -132 q 282 -154 261 -154 q 308 -148 292 -154 q 339 -131 324 -142 l 390 -242 z "},"İ":{"ha":415,"x_min":108,"x_max":311,"o":"m 118 944 l 118 0 l 297 0 l 297 944 l 118 944 m 211 1033 q 283 1063 254 1033 q 311 1135 311 1092 q 283 1208 311 1178 q 211 1238 254 1238 q 138 1208 168 1238 q 108 1135 108 1178 q 138 1063 108 1092 q 211 1033 168 1033 z "},"Ĺ":{"ha":756,"x_min":118,"x_max":742,"o":"m 297 944 l 118 944 l 118 0 l 742 0 l 714 140 l 297 140 l 297 944 m 304 1254 l 233 1061 l 358 1026 l 490 1254 l 304 1254 z "},"Ľ":{"ha":756,"x_min":118,"x_max":742,"o":"m 297 944 l 118 944 l 118 0 l 742 0 l 714 140 l 297 140 l 297 944 m 585 1031 q 513 998 543 1031 q 483 928 483 965 q 510 860 483 892 q 561 829 536 829 q 533 764 553 789 q 468 700 513 739 l 507 615 q 638 744 586 660 q 690 907 690 828 q 660 996 690 961 q 585 1031 629 1031 z "},"Ñ":{"ha":1033,"x_min":118,"x_max":915,"o":"m 735 0 l 915 0 l 915 944 l 735 944 l 735 314 l 297 944 l 118 944 l 118 0 l 297 0 l 297 632 l 735 0 m 628 1203 q 617 1173 628 1186 q 590 1160 606 1160 q 551 1165 567 1160 q 515 1183 536 1171 q 478 1202 496 1196 q 435 1208 461 1208 q 329 1168 372 1208 q 286 1042 286 1128 l 406 1042 q 417 1070 406 1056 q 444 1085 429 1085 q 481 1079 468 1085 q 515 1061 494 1074 q 548 1042 532 1049 q 592 1035 564 1035 q 697 1075 654 1035 q 740 1203 740 1115 l 628 1203 z "},"Ń":{"ha":1033,"x_min":118,"x_max":915,"o":"m 735 0 l 915 0 l 915 944 l 735 944 l 735 314 l 297 944 l 118 944 l 118 0 l 297 0 l 297 632 l 735 0 m 497 1254 l 426 1061 l 551 1026 l 683 1254 l 497 1254 z "},"Ň":{"ha":1033,"x_min":118,"x_max":915,"o":"m 735 0 l 915 0 l 915 944 l 735 944 l 735 314 l 297 944 l 118 944 l 118 0 l 297 0 l 297 632 l 735 0 m 267 1232 l 478 1026 l 576 1026 l 788 1232 l 622 1254 l 531 1164 l 438 1254 l 267 1232 z "},"Ò":{"ha":1024,"x_min":49,"x_max":975,"o":"m 511 967 q 269 900 375 964 q 106 724 164 836 q 49 468 49 611 q 103 220 49 331 q 263 45 158 110 q 511 -19 368 -19 q 753 47 649 -17 q 917 222 858 110 q 975 478 975 333 q 920 726 975 615 q 760 902 865 838 q 511 967 654 967 m 236 469 q 274 651 236 572 q 376 772 313 729 q 514 814 439 814 q 658 771 596 814 q 754 651 721 728 q 788 478 788 575 q 751 287 788 365 q 651 170 714 208 q 510 132 588 132 q 365 174 426 132 q 269 294 303 217 q 236 469 236 371 m 508 1254 l 322 1254 l 454 1026 l 579 1061 l 508 1254 z "},"Ó":{"ha":1024,"x_min":49,"x_max":975,"o":"m 511 967 q 269 900 375 964 q 106 724 164 836 q 49 468 49 611 q 103 220 49 331 q 263 45 158 110 q 511 -19 368 -19 q 753 47 649 -17 q 917 222 858 110 q 975 478 975 333 q 920 726 975 615 q 760 902 865 838 q 511 967 654 967 m 236 469 q 274 651 236 572 q 376 772 313 729 q 514 814 439 814 q 658 771 596 814 q 754 651 721 728 q 788 478 788 575 q 751 287 788 365 q 651 170 714 208 q 510 132 588 132 q 365 174 426 132 q 269 294 303 217 q 236 469 236 371 m 483 1254 l 413 1061 l 538 1026 l 669 1254 l 483 1254 z "},"Ô":{"ha":1024,"x_min":49,"x_max":975,"o":"m 511 967 q 269 900 375 964 q 106 724 164 836 q 49 468 49 611 q 103 220 49 331 q 263 45 158 110 q 511 -19 368 -19 q 753 47 649 -17 q 917 222 858 110 q 975 478 975 333 q 920 726 975 615 q 760 902 865 838 q 511 967 654 967 m 236 469 q 274 651 236 572 q 376 772 313 729 q 514 814 439 814 q 658 771 596 814 q 754 651 721 728 q 788 478 788 575 q 751 287 788 365 q 651 170 714 208 q 510 132 588 132 q 365 174 426 132 q 269 294 303 217 q 236 469 236 371 m 765 1049 l 554 1254 l 456 1254 l 244 1049 l 415 1026 l 508 1117 l 600 1026 l 765 1049 z "},"Õ":{"ha":1024,"x_min":49,"x_max":975,"o":"m 511 967 q 269 900 375 964 q 106 724 164 836 q 49 468 49 611 q 103 220 49 331 q 263 45 158 110 q 511 -19 368 -19 q 753 47 649 -17 q 917 222 858 110 q 975 478 975 333 q 920 726 975 615 q 760 902 865 838 q 511 967 654 967 m 236 469 q 274 651 236 572 q 376 772 313 729 q 514 814 439 814 q 658 771 596 814 q 754 651 721 728 q 788 478 788 575 q 751 287 788 365 q 651 170 714 208 q 510 132 588 132 q 365 174 426 132 q 269 294 303 217 q 236 469 236 371 m 614 1203 q 603 1173 614 1186 q 576 1160 592 1160 q 538 1165 553 1160 q 501 1183 522 1171 q 465 1202 482 1196 q 421 1208 447 1208 q 315 1168 358 1208 q 272 1042 272 1128 l 392 1042 q 403 1070 392 1056 q 431 1085 415 1085 q 467 1079 454 1085 q 501 1061 481 1074 q 534 1042 518 1049 q 578 1035 550 1035 q 683 1075 640 1035 q 726 1203 726 1115 l 614 1203 z "},"Ö":{"ha":1024,"x_min":49,"x_max":975,"o":"m 511 967 q 269 900 375 964 q 106 724 164 836 q 49 468 49 611 q 103 220 49 331 q 263 45 158 110 q 511 -19 368 -19 q 753 47 649 -17 q 917 222 858 110 q 975 478 975 333 q 920 726 975 615 q 760 902 865 838 q 511 967 654 967 m 236 469 q 274 651 236 572 q 376 772 313 729 q 514 814 439 814 q 658 771 596 814 q 754 651 721 728 q 788 478 788 575 q 751 287 788 365 q 651 170 714 208 q 510 132 588 132 q 365 174 426 132 q 269 294 303 217 q 236 469 236 371 m 379 1046 q 442 1072 417 1046 q 467 1135 467 1097 q 442 1199 467 1172 q 379 1225 417 1225 q 314 1199 340 1225 q 288 1135 288 1172 q 314 1072 288 1097 q 379 1046 340 1046 m 643 1046 q 708 1072 682 1046 q 733 1135 733 1097 q 708 1199 733 1172 q 643 1225 682 1225 q 580 1199 607 1225 q 553 1135 553 1172 q 579 1072 553 1097 q 643 1046 606 1046 z "},"Ō":{"ha":1024,"x_min":49,"x_max":975,"o":"m 511 967 q 269 900 375 964 q 106 724 164 836 q 49 468 49 611 q 103 220 49 331 q 263 45 158 110 q 511 -19 368 -19 q 753 47 649 -17 q 917 222 858 110 q 975 478 975 333 q 920 726 975 615 q 760 902 865 838 q 511 967 654 967 m 236 469 q 274 651 236 572 q 376 772 313 729 q 514 814 439 814 q 658 771 596 814 q 754 651 721 728 q 788 478 788 575 q 751 287 788 365 q 651 170 714 208 q 510 132 588 132 q 365 174 426 132 q 269 294 303 217 q 236 469 236 371 m 672 1203 l 322 1203 l 322 1060 l 686 1060 l 672 1203 z "},"Ő":{"ha":1024,"x_min":49,"x_max":975,"o":"m 511 967 q 269 900 375 964 q 106 724 164 836 q 49 468 49 611 q 103 220 49 331 q 263 45 158 110 q 511 -19 368 -19 q 753 47 649 -17 q 917 222 858 110 q 975 478 975 333 q 920 726 975 615 q 760 902 865 838 q 511 967 654 967 m 236 469 q 274 651 236 572 q 376 772 313 729 q 514 814 439 814 q 658 771 596 814 q 754 651 721 728 q 788 478 788 575 q 751 287 788 365 q 651 170 714 208 q 510 132 588 132 q 365 174 426 132 q 269 294 303 217 q 236 469 236 371 m 368 1254 l 297 1061 l 422 1026 l 554 1254 l 368 1254 m 646 1254 l 575 1061 l 700 1026 l 832 1254 l 646 1254 z "},"Ŕ":{"ha":872,"x_min":118,"x_max":858,"o":"m 297 0 l 297 358 l 467 358 l 667 0 l 858 0 l 626 406 q 744 506 700 442 q 788 654 788 569 q 683 870 788 796 q 414 944 578 944 l 118 944 l 118 0 l 297 0 m 408 794 q 597 646 597 794 q 547 540 597 574 q 411 506 496 506 l 297 506 l 297 794 l 408 794 m 388 1254 l 317 1061 l 442 1026 l 574 1254 l 388 1254 z "},"Ř":{"ha":872,"x_min":118,"x_max":858,"o":"m 297 0 l 297 358 l 467 358 l 667 0 l 858 0 l 626 406 q 744 506 700 442 q 788 654 788 569 q 683 870 788 796 q 414 944 578 944 l 118 944 l 118 0 l 297 0 m 408 794 q 597 646 597 794 q 547 540 597 574 q 411 506 496 506 l 297 506 l 297 794 l 408 794 m 157 1232 l 368 1026 l 467 1026 l 678 1232 l 513 1254 l 421 1164 l 328 1254 l 157 1232 z "},"Ś":{"ha":732,"x_min":49,"x_max":697,"o":"m 65 63 q 199 8 113 33 q 344 -18 286 -18 q 535 15 456 -18 q 656 107 615 49 q 697 242 697 165 q 665 360 697 310 q 583 447 632 411 q 453 529 535 482 l 413 553 l 368 578 q 266 647 297 619 q 235 714 235 674 q 274 785 235 761 q 376 810 314 810 q 477 794 431 810 q 581 751 524 779 l 640 896 q 374 967 493 967 q 199 934 272 967 q 88 844 126 901 q 49 714 49 786 q 88 591 49 646 q 183 496 128 536 q 331 400 238 456 l 372 375 q 477 308 443 336 q 511 244 511 279 q 468 168 511 194 q 342 142 425 142 q 222 162 288 142 q 106 208 157 182 l 65 63 m 346 1254 l 275 1061 l 400 1026 l 532 1254 l 346 1254 z "},"Š":{"ha":732,"x_min":49,"x_max":697,"o":"m 65 63 q 199 8 113 33 q 344 -18 286 -18 q 535 15 456 -18 q 656 107 615 49 q 697 242 697 165 q 665 360 697 310 q 583 447 632 411 q 453 529 535 482 l 413 553 l 368 578 q 266 647 297 619 q 235 714 235 674 q 274 785 235 761 q 376 810 314 810 q 477 794 431 810 q 581 751 524 779 l 640 896 q 374 967 493 967 q 199 934 272 967 q 88 844 126 901 q 49 714 49 786 q 88 591 49 646 q 183 496 128 536 q 331 400 238 456 l 372 375 q 477 308 443 336 q 511 244 511 279 q 468 168 511 194 q 342 142 425 142 q 222 162 288 142 q 106 208 157 182 l 65 63 m 115 1232 l 326 1026 l 425 1026 l 636 1232 l 471 1254 l 379 1164 l 286 1254 l 115 1232 z "},"Ť":{"ha":821,"x_min":14,"x_max":807,"o":"m 14 803 l 301 803 l 301 0 l 483 0 l 483 803 l 807 803 l 778 944 l 14 944 l 14 803 m 136 1232 l 347 1026 l 446 1026 l 657 1232 l 492 1254 l 400 1164 l 307 1254 l 136 1232 z "},"Ù":{"ha":986,"x_min":104,"x_max":882,"o":"m 106 343 q 153 160 106 242 q 288 31 200 78 q 490 -15 375 -15 q 696 31 607 -15 q 833 159 785 78 q 882 343 882 240 l 882 944 l 700 944 l 700 357 q 644 190 700 247 q 493 132 588 132 q 342 188 399 132 q 286 357 286 244 l 286 944 l 104 944 l 106 343 m 490 1254 l 304 1254 l 436 1026 l 561 1061 l 490 1254 z "},"Ú":{"ha":986,"x_min":104,"x_max":882,"o":"m 106 343 q 153 160 106 242 q 288 31 200 78 q 490 -15 375 -15 q 696 31 607 -15 q 833 159 785 78 q 882 343 882 240 l 882 944 l 700 944 l 700 357 q 644 190 700 247 q 493 132 588 132 q 342 188 399 132 q 286 357 286 244 l 286 944 l 104 944 l 106 343 m 465 1254 l 394 1061 l 519 1026 l 651 1254 l 465 1254 z "},"Û":{"ha":986,"x_min":104,"x_max":882,"o":"m 106 343 q 153 160 106 242 q 288 31 200 78 q 490 -15 375 -15 q 696 31 607 -15 q 833 159 785 78 q 882 343 882 240 l 882 944 l 700 944 l 700 357 q 644 190 700 247 q 493 132 588 132 q 342 188 399 132 q 286 357 286 244 l 286 944 l 104 944 l 106 343 m 747 1049 l 536 1254 l 438 1254 l 226 1049 l 397 1026 l 490 1117 l 582 1026 l 747 1049 z "},"Ü":{"ha":986,"x_min":104,"x_max":882,"o":"m 106 343 q 153 160 106 242 q 288 31 200 78 q 490 -15 375 -15 q 696 31 607 -15 q 833 159 785 78 q 882 343 882 240 l 882 944 l 700 944 l 700 357 q 644 190 700 247 q 493 132 588 132 q 342 188 399 132 q 286 357 286 244 l 286 944 l 104 944 l 106 343 m 361 1046 q 424 1072 399 1046 q 449 1135 449 1097 q 424 1199 449 1172 q 361 1225 399 1225 q 296 1199 322 1225 q 269 1135 269 1172 q 296 1072 269 1097 q 361 1046 322 1046 m 625 1046 q 690 1072 664 1046 q 715 1135 715 1097 q 690 1199 715 1172 q 625 1225 664 1225 q 562 1199 589 1225 q 535 1135 535 1172 q 561 1072 535 1097 q 625 1046 588 1046 z "},"Ū":{"ha":986,"x_min":104,"x_max":882,"o":"m 106 343 q 153 160 106 242 q 288 31 200 78 q 490 -15 375 -15 q 696 31 607 -15 q 833 159 785 78 q 882 343 882 240 l 882 944 l 700 944 l 700 357 q 644 190 700 247 q 493 132 588 132 q 342 188 399 132 q 286 357 286 244 l 286 944 l 104 944 l 106 343 m 654 1203 l 304 1203 l 304 1060 l 668 1060 l 654 1203 z "},"Ů":{"ha":986,"x_min":104,"x_max":882,"o":"m 106 343 q 153 160 106 242 q 288 31 200 78 q 490 -15 375 -15 q 696 31 607 -15 q 833 159 785 78 q 882 343 882 240 l 882 944 l 700 944 l 700 357 q 644 190 700 247 q 493 132 588 132 q 342 188 399 132 q 286 357 286 244 l 286 944 l 104 944 l 106 343 m 490 1310 q 386 1269 431 1310 q 342 1169 342 1228 q 385 1072 342 1111 q 490 1033 429 1033 q 595 1072 551 1033 q 639 1169 639 1111 q 594 1269 639 1228 q 490 1310 550 1310 m 490 1114 q 451 1131 468 1114 q 435 1169 435 1147 q 451 1208 435 1192 q 490 1224 468 1224 q 528 1208 513 1224 q 544 1169 544 1192 q 528 1131 544 1147 q 490 1114 513 1114 z "},"Ű":{"ha":986,"x_min":104,"x_max":882,"o":"m 106 343 q 153 160 106 242 q 288 31 200 78 q 490 -15 375 -15 q 696 31 607 -15 q 833 159 785 78 q 882 343 882 240 l 882 944 l 700 944 l 700 357 q 644 190 700 247 q 493 132 588 132 q 342 188 399 132 q 286 357 286 244 l 286 944 l 104 944 l 106 343 m 350 1254 l 279 1061 l 404 1026 l 536 1254 l 350 1254 m 628 1254 l 557 1061 l 682 1026 l 814 1254 l 628 1254 z "},"Ų":{"ha":986,"x_min":104,"x_max":882,"o":"m 882 343 q 844 178 882 253 q 734 53 806 103 q 567 -10 663 4 q 535 -64 549 -35 q 521 -115 521 -93 q 532 -143 521 -132 q 564 -154 543 -154 q 590 -148 574 -154 q 621 -131 606 -142 l 672 -242 q 531 -287 611 -287 q 415 -242 460 -287 q 369 -131 369 -196 q 382 -71 369 -107 q 411 -10 394 -35 q 188 110 269 14 q 106 343 106 207 l 104 944 l 286 944 l 286 357 q 342 188 286 244 q 493 132 399 132 q 644 190 588 132 q 700 357 700 247 l 700 944 l 882 944 l 882 343 z "},"Ý":{"ha":844,"x_min":14,"x_max":831,"o":"m 831 944 l 640 944 l 411 550 l 192 964 l 14 913 l 322 368 l 322 0 l 503 0 l 503 361 l 831 944 m 383 1254 l 313 1061 l 438 1026 l 569 1254 l 383 1254 z "},"Ÿ":{"ha":844,"x_min":14,"x_max":831,"o":"m 831 944 l 640 944 l 411 550 l 192 964 l 14 913 l 322 368 l 322 0 l 503 0 l 503 361 l 831 944 m 279 1046 q 342 1072 317 1046 q 367 1135 367 1097 q 342 1199 367 1172 q 279 1225 317 1225 q 214 1199 240 1225 q 188 1135 188 1172 q 214 1072 188 1097 q 279 1046 240 1046 m 543 1046 q 608 1072 582 1046 q 633 1135 633 1097 q 608 1199 633 1172 q 543 1225 582 1225 q 480 1199 507 1225 q 453 1135 453 1172 q 479 1072 453 1097 q 543 1046 506 1046 z "},"Ź":{"ha":801,"x_min":21,"x_max":781,"o":"m 769 803 l 749 944 l 61 944 l 82 803 l 560 803 l 21 140 l 42 0 l 781 0 l 760 140 l 215 140 l 769 803 m 361 1254 l 290 1061 l 415 1026 l 547 1254 l 361 1254 z "},"Ż":{"ha":801,"x_min":21,"x_max":781,"o":"m 769 803 l 749 944 l 61 944 l 82 803 l 560 803 l 21 140 l 42 0 l 781 0 l 760 140 l 215 140 l 769 803 m 389 1033 q 460 1063 432 1033 q 489 1135 489 1092 q 460 1208 489 1178 q 389 1238 432 1238 q 316 1208 346 1238 q 286 1135 286 1178 q 316 1063 286 1092 q 389 1033 346 1033 z "},"Ž":{"ha":801,"x_min":21,"x_max":781,"o":"m 769 803 l 749 944 l 61 944 l 82 803 l 560 803 l 21 140 l 42 0 l 781 0 l 760 140 l 215 140 l 769 803 m 131 1232 l 342 1026 l 440 1026 l 651 1232 l 486 1254 l 394 1164 l 301 1254 l 131 1232 z "},"Ş":{"ha":732,"x_min":49,"x_max":697,"o":"m 697 242 q 620 67 697 138 q 403 -15 543 -3 l 392 -40 q 461 -92 433 -57 q 489 -164 489 -128 q 438 -270 489 -233 q 314 -307 388 -307 q 244 -296 285 -307 q 182 -268 203 -285 l 224 -162 q 270 -181 243 -172 q 314 -190 297 -190 q 347 -185 333 -190 q 361 -167 361 -179 q 326 -126 361 -142 q 239 -104 290 -110 l 276 -11 q 160 20 221 -1 q 65 63 100 42 l 106 208 q 222 162 157 182 q 342 142 288 142 q 468 168 425 142 q 511 244 511 194 q 477 308 511 279 q 372 375 443 336 l 331 400 q 183 496 238 456 q 88 591 128 536 q 49 714 49 646 q 88 844 49 786 q 199 934 126 901 q 374 967 272 967 q 640 896 493 967 l 581 751 q 477 794 524 779 q 376 810 431 810 q 274 785 314 810 q 235 714 235 761 q 266 647 235 674 q 368 578 297 619 l 413 553 l 453 529 q 583 447 535 482 q 665 360 632 411 q 697 242 697 310 z "},"Ţ":{"ha":821,"x_min":14,"x_max":807,"o":"m 440 -40 q 510 -92 482 -57 q 538 -164 538 -128 q 487 -270 538 -233 q 363 -307 436 -307 q 292 -296 333 -307 q 231 -268 251 -285 l 272 -162 q 319 -181 292 -172 q 363 -190 346 -190 q 396 -185 382 -190 q 410 -167 410 -179 q 374 -126 410 -142 q 288 -104 339 -110 l 329 0 l 301 0 l 301 803 l 14 803 l 14 944 l 778 944 l 807 803 l 483 803 l 483 0 l 457 0 l 440 -40 z "},"Ș":{"ha":732,"x_min":49,"x_max":697,"o":"m 65 63 q 199 8 113 33 q 344 -18 286 -18 q 535 15 456 -18 q 656 107 615 49 q 697 242 697 165 q 665 360 697 310 q 583 447 632 411 q 453 529 535 482 l 413 553 l 368 578 q 266 647 297 619 q 235 714 235 674 q 274 785 235 761 q 376 810 314 810 q 477 794 431 810 q 581 751 524 779 l 640 896 q 374 967 493 967 q 199 934 272 967 q 88 844 126 901 q 49 714 49 786 q 88 591 49 646 q 183 496 128 536 q 331 400 238 456 l 372 375 q 477 308 443 336 q 511 244 511 279 q 468 168 511 194 q 342 142 425 142 q 222 162 288 142 q 106 208 157 182 l 65 63 m 347 -29 q 275 -61 306 -29 q 244 -132 244 -93 q 270 -201 244 -169 q 322 -232 296 -232 q 292 -280 314 -258 q 250 -310 271 -301 l 289 -394 q 404 -295 358 -361 q 450 -154 450 -229 q 420 -65 450 -100 q 347 -29 390 -29 z "},"à":{"ha":699,"x_min":58,"x_max":628,"o":"m 142 481 q 236 512 181 499 q 338 525 292 525 q 416 497 388 525 q 446 417 444 468 l 314 417 q 128 360 197 417 q 58 201 58 304 q 119 42 58 101 q 301 -17 181 -17 q 479 72 394 -17 l 510 0 l 628 0 l 628 443 q 588 571 628 514 q 482 660 549 628 q 335 692 415 692 q 208 673 288 692 q 93 631 129 654 l 142 481 m 213 201 q 240 268 213 240 q 311 296 267 296 l 447 296 l 447 193 q 299 126 379 126 q 237 149 261 126 q 213 201 213 171 m 382 1046 l 196 1046 l 328 818 l 453 853 l 382 1046 z "},"á":{"ha":699,"x_min":58,"x_max":628,"o":"m 142 481 q 236 512 181 499 q 338 525 292 525 q 416 497 388 525 q 446 417 444 468 l 314 417 q 128 360 197 417 q 58 201 58 304 q 119 42 58 101 q 301 -17 181 -17 q 479 72 394 -17 l 510 0 l 628 0 l 628 443 q 588 571 628 514 q 482 660 549 628 q 335 692 415 692 q 208 673 288 692 q 93 631 129 654 l 142 481 m 213 201 q 240 268 213 240 q 311 296 267 296 l 447 296 l 447 193 q 299 126 379 126 q 237 149 261 126 q 213 201 213 171 m 313 1046 l 242 853 l 367 818 l 499 1046 l 313 1046 z "},"â":{"ha":699,"x_min":58,"x_max":628,"o":"m 142 481 q 236 512 181 499 q 338 525 292 525 q 416 497 388 525 q 446 417 444 468 l 314 417 q 128 360 197 417 q 58 201 58 304 q 119 42 58 101 q 301 -17 181 -17 q 479 72 394 -17 l 510 0 l 628 0 l 628 443 q 588 571 628 514 q 482 660 549 628 q 335 692 415 692 q 208 673 288 692 q 93 631 129 654 l 142 481 m 213 201 q 240 268 213 240 q 311 296 267 296 l 447 296 l 447 193 q 299 126 379 126 q 237 149 261 126 q 213 201 213 171 m 604 840 l 393 1046 l 294 1046 l 83 840 l 254 818 l 347 908 l 439 818 l 604 840 z "},"ã":{"ha":699,"x_min":58,"x_max":628,"o":"m 142 481 q 236 512 181 499 q 338 525 292 525 q 416 497 388 525 q 446 417 444 468 l 314 417 q 128 360 197 417 q 58 201 58 304 q 119 42 58 101 q 301 -17 181 -17 q 479 72 394 -17 l 510 0 l 628 0 l 628 443 q 588 571 628 514 q 482 660 549 628 q 335 692 415 692 q 208 673 288 692 q 93 631 129 654 l 142 481 m 213 201 q 240 268 213 240 q 311 296 267 296 l 447 296 l 447 193 q 299 126 379 126 q 237 149 261 126 q 213 201 213 171 m 461 994 q 450 965 461 978 q 424 951 439 951 q 385 957 400 951 q 349 975 369 963 q 312 994 329 988 q 268 1000 294 1000 q 163 960 206 1000 q 119 833 119 919 l 239 833 q 251 862 239 847 q 278 876 263 876 q 315 871 301 876 q 349 853 328 865 q 381 833 365 840 q 425 826 397 826 q 531 867 488 826 q 574 994 574 907 l 461 994 z "},"ä":{"ha":699,"x_min":58,"x_max":628,"o":"m 142 481 q 236 512 181 499 q 338 525 292 525 q 416 497 388 525 q 446 417 444 468 l 314 417 q 128 360 197 417 q 58 201 58 304 q 119 42 58 101 q 301 -17 181 -17 q 479 72 394 -17 l 510 0 l 628 0 l 628 443 q 588 571 628 514 q 482 660 549 628 q 335 692 415 692 q 208 673 288 692 q 93 631 129 654 l 142 481 m 213 201 q 240 268 213 240 q 311 296 267 296 l 447 296 l 447 193 q 299 126 379 126 q 237 149 261 126 q 213 201 213 171 m 207 838 q 269 863 244 838 q 294 926 294 889 q 269 990 294 964 q 207 1017 244 1017 q 142 990 168 1017 q 115 926 115 964 q 142 863 115 889 q 207 838 168 838 m 471 838 q 535 863 510 838 q 561 926 561 889 q 535 990 561 964 q 471 1017 510 1017 q 408 990 435 1017 q 381 926 381 964 q 407 863 381 889 q 471 838 433 838 z "},"å":{"ha":699,"x_min":58,"x_max":628,"o":"m 142 481 q 236 512 181 499 q 338 525 292 525 q 416 497 388 525 q 446 417 444 468 l 314 417 q 128 360 197 417 q 58 201 58 304 q 119 42 58 101 q 301 -17 181 -17 q 479 72 394 -17 l 510 0 l 628 0 l 628 443 q 588 571 628 514 q 482 660 549 628 q 335 692 415 692 q 208 673 288 692 q 93 631 129 654 l 142 481 m 213 201 q 240 268 213 240 q 311 296 267 296 l 447 296 l 447 193 q 299 126 379 126 q 237 149 261 126 q 213 201 213 171 m 342 1101 q 238 1060 282 1101 q 193 961 193 1019 q 237 864 193 903 q 342 825 281 825 q 447 864 403 825 q 490 961 490 903 q 446 1060 490 1019 q 342 1101 401 1101 m 342 906 q 303 922 319 906 q 286 961 286 939 q 303 999 286 983 q 342 1015 319 1015 q 380 999 364 1015 q 396 961 396 983 q 380 922 396 939 q 342 906 364 906 z "},"ā":{"ha":699,"x_min":58,"x_max":628,"o":"m 142 481 q 236 512 181 499 q 338 525 292 525 q 416 497 388 525 q 446 417 444 468 l 314 417 q 128 360 197 417 q 58 201 58 304 q 119 42 58 101 q 301 -17 181 -17 q 479 72 394 -17 l 510 0 l 628 0 l 628 443 q 588 571 628 514 q 482 660 549 628 q 335 692 415 692 q 208 673 288 692 q 93 631 129 654 l 142 481 m 213 201 q 240 268 213 240 q 311 296 267 296 l 447 296 l 447 193 q 299 126 379 126 q 237 149 261 126 q 213 201 213 171 m 513 994 l 163 994 l 163 851 l 526 851 l 513 994 z "},"ă":{"ha":699,"x_min":58,"x_max":628,"o":"m 142 481 q 236 512 181 499 q 338 525 292 525 q 416 497 388 525 q 446 417 444 468 l 314 417 q 128 360 197 417 q 58 201 58 304 q 119 42 58 101 q 301 -17 181 -17 q 479 72 394 -17 l 510 0 l 628 0 l 628 443 q 588 571 628 514 q 482 660 549 628 q 335 692 415 692 q 208 673 288 692 q 93 631 129 654 l 142 481 m 213 201 q 240 268 213 240 q 311 296 267 296 l 447 296 l 447 193 q 299 126 379 126 q 237 149 261 126 q 213 201 213 171 m 436 1046 q 415 976 436 1006 q 353 947 394 947 q 292 976 311 947 q 272 1046 272 1004 l 149 1046 q 201 885 149 951 q 353 818 254 819 q 504 885 451 819 q 557 1046 557 951 l 436 1046 z "},"ą":{"ha":699,"x_min":58,"x_max":769,"o":"m 769 -242 q 628 -287 708 -287 q 512 -242 557 -287 q 467 -131 467 -196 q 481 -64 467 -104 q 514 0 496 -24 l 510 0 l 479 72 q 301 -17 394 -17 q 119 42 181 -17 q 58 201 58 101 q 128 360 58 304 q 314 417 197 417 l 446 417 q 416 497 444 468 q 338 525 388 525 q 236 512 292 525 q 142 481 181 499 l 93 631 q 208 673 129 654 q 335 692 288 692 q 482 660 415 692 q 588 571 549 628 q 628 443 628 514 l 628 7 l 679 7 q 638 -50 658 -12 q 618 -115 618 -87 q 629 -143 618 -132 q 661 -154 640 -154 q 687 -148 671 -154 q 718 -131 703 -142 l 769 -242 m 311 296 q 240 268 267 296 q 213 201 213 240 q 237 149 213 171 q 299 126 261 126 q 447 193 378 126 l 447 296 l 311 296 z "},"ç":{"ha":656,"x_min":35,"x_max":626,"o":"m 626 53 q 538 9 592 26 q 433 -14 485 -8 l 422 -40 q 492 -92 464 -57 q 519 -164 519 -128 q 469 -270 519 -233 q 344 -307 418 -307 q 274 -296 315 -307 q 213 -268 233 -285 l 254 -162 q 301 -181 274 -172 q 344 -190 328 -190 q 378 -185 364 -190 q 392 -167 392 -179 q 356 -126 392 -142 q 269 -104 321 -110 l 307 -8 q 108 106 181 15 q 35 336 35 197 q 78 524 35 443 q 203 648 122 604 q 393 692 285 692 q 510 672 440 692 q 626 621 579 653 l 575 492 q 481 526 522 515 q 394 538 439 538 q 270 481 319 538 q 221 336 221 424 q 269 193 221 249 q 394 138 318 138 q 481 149 439 138 q 575 183 522 160 l 626 53 z "},"ć":{"ha":656,"x_min":35,"x_max":626,"o":"m 626 621 q 510 672 579 653 q 393 692 440 692 q 203 648 285 692 q 78 524 122 604 q 35 336 35 443 q 78 149 35 229 q 203 26 122 69 q 393 -17 285 -17 q 514 1 444 -17 q 626 53 583 19 l 575 183 q 481 149 522 160 q 394 138 439 138 q 269 193 318 138 q 221 336 221 249 q 270 481 221 424 q 394 538 319 538 q 481 526 439 538 q 575 492 522 515 l 626 621 m 321 1046 l 250 853 l 375 818 l 507 1046 l 321 1046 z "},"č":{"ha":656,"x_min":35,"x_max":626,"o":"m 626 621 q 510 672 579 653 q 393 692 440 692 q 203 648 285 692 q 78 524 122 604 q 35 336 35 443 q 78 149 35 229 q 203 26 122 69 q 393 -17 285 -17 q 514 1 444 -17 q 626 53 583 19 l 575 183 q 481 149 522 160 q 394 138 439 138 q 269 193 318 138 q 221 336 221 249 q 270 481 221 424 q 394 538 319 538 q 481 526 439 538 q 575 492 522 515 l 626 621 m 101 1024 l 313 818 l 411 818 l 622 1024 l 457 1046 l 365 956 l 272 1046 l 101 1024 z "},"ď":{"ha":1065,"x_min":35,"x_max":1024,"o":"m 918 1031 q 993 996 963 1031 q 1024 907 1024 961 q 972 744 1024 828 q 840 615 919 660 l 801 700 q 866 764 846 739 q 894 829 886 789 q 843 860 869 829 q 817 928 817 892 q 847 998 817 965 q 918 1031 876 1031 m 704 981 l 704 0 l 610 0 l 568 61 q 374 -17 479 -17 q 126 78 217 -17 q 35 336 35 174 q 76 522 35 442 q 194 647 117 603 q 379 692 272 692 q 450 680 413 692 q 522 647 488 668 l 522 965 l 704 981 m 221 336 q 263 192 221 247 q 381 138 306 138 q 451 151 417 138 q 522 193 485 165 l 522 481 q 453 524 486 511 q 381 538 419 538 q 264 481 307 538 q 221 336 221 425 z "},"è":{"ha":715,"x_min":35,"x_max":681,"o":"m 681 339 q 647 517 681 438 q 544 644 614 597 q 374 692 475 692 q 193 648 269 692 q 76 524 117 604 q 35 336 35 443 q 134 77 35 171 q 425 -17 233 -17 q 567 5 507 -17 q 678 67 626 26 l 625 197 q 529 153 574 168 q 429 138 485 138 q 287 175 333 138 q 226 283 240 213 l 681 283 l 681 339 m 228 404 q 276 503 239 469 q 369 538 314 538 q 460 504 425 538 q 510 404 496 471 l 228 404 m 399 1046 l 213 1046 l 344 818 l 469 853 l 399 1046 z "},"é":{"ha":715,"x_min":35,"x_max":681,"o":"m 681 339 q 647 517 681 438 q 544 644 614 597 q 374 692 475 692 q 193 648 269 692 q 76 524 117 604 q 35 336 35 443 q 134 77 35 171 q 425 -17 233 -17 q 567 5 507 -17 q 678 67 626 26 l 625 197 q 529 153 574 168 q 429 138 485 138 q 287 175 333 138 q 226 283 240 213 l 681 283 l 681 339 m 228 404 q 276 503 239 469 q 369 538 314 538 q 460 504 425 538 q 510 404 496 471 l 228 404 m 329 1046 l 258 853 l 383 818 l 515 1046 l 329 1046 z "},"ê":{"ha":715,"x_min":35,"x_max":681,"o":"m 681 339 q 647 517 681 438 q 544 644 614 597 q 374 692 475 692 q 193 648 269 692 q 76 524 117 604 q 35 336 35 443 q 134 77 35 171 q 425 -17 233 -17 q 567 5 507 -17 q 678 67 626 26 l 625 197 q 529 153 574 168 q 429 138 485 138 q 287 175 333 138 q 226 283 240 213 l 681 283 l 681 339 m 228 404 q 276 503 239 469 q 369 538 314 538 q 460 504 425 538 q 510 404 496 471 l 228 404 m 621 840 l 410 1046 l 311 1046 l 100 840 l 271 818 l 364 908 l 456 818 l 621 840 z "},"ë":{"ha":715,"x_min":35,"x_max":681,"o":"m 681 339 q 647 517 681 438 q 544 644 614 597 q 374 692 475 692 q 193 648 269 692 q 76 524 117 604 q 35 336 35 443 q 134 77 35 171 q 425 -17 233 -17 q 567 5 507 -17 q 678 67 626 26 l 625 197 q 529 153 574 168 q 429 138 485 138 q 287 175 333 138 q 226 283 240 213 l 681 283 l 681 339 m 228 404 q 276 503 239 469 q 369 538 314 538 q 460 504 425 538 q 510 404 496 471 l 228 404 m 224 838 q 286 863 261 838 q 311 926 311 889 q 286 990 311 964 q 224 1017 261 1017 q 158 990 185 1017 q 132 926 132 964 q 158 863 132 889 q 224 838 185 838 m 488 838 q 552 863 526 838 q 578 926 578 889 q 552 990 578 964 q 488 1017 526 1017 q 424 990 451 1017 q 397 926 397 964 q 424 863 397 889 q 488 838 450 838 z "},"ē":{"ha":715,"x_min":35,"x_max":681,"o":"m 681 339 q 647 517 681 438 q 544 644 614 597 q 374 692 475 692 q 193 648 269 692 q 76 524 117 604 q 35 336 35 443 q 134 77 35 171 q 425 -17 233 -17 q 567 5 507 -17 q 678 67 626 26 l 625 197 q 529 153 574 168 q 429 138 485 138 q 287 175 333 138 q 226 283 240 213 l 681 283 l 681 339 m 228 404 q 276 503 239 469 q 369 538 314 538 q 460 504 425 538 q 510 404 496 471 l 228 404 m 529 994 l 179 994 l 179 851 l 543 851 l 529 994 z "},"ė":{"ha":715,"x_min":35,"x_max":681,"o":"m 681 339 q 647 517 681 438 q 544 644 614 597 q 374 692 475 692 q 193 648 269 692 q 76 524 117 604 q 35 336 35 443 q 134 77 35 171 q 425 -17 233 -17 q 567 5 507 -17 q 678 67 626 26 l 625 197 q 529 153 574 168 q 429 138 485 138 q 287 175 333 138 q 226 283 240 213 l 681 283 l 681 339 m 228 404 q 276 503 239 469 q 369 538 314 538 q 460 504 425 538 q 510 404 496 471 l 228 404 m 368 825 q 440 854 411 825 q 468 926 468 883 q 440 999 468 969 q 368 1029 411 1029 q 295 999 325 1029 q 265 926 265 969 q 295 854 265 883 q 368 825 325 825 z "},"ę":{"ha":715,"x_min":35,"x_max":681,"o":"m 226 283 q 287 175 240 213 q 429 138 333 138 q 529 153 485 138 q 625 197 574 168 l 678 67 q 572 7 628 28 l 589 7 q 548 -50 568 -12 q 528 -115 528 -87 q 539 -143 528 -132 q 571 -154 550 -154 q 597 -148 581 -154 q 628 -131 613 -142 l 679 -242 q 538 -287 618 -287 q 422 -242 467 -287 q 376 -131 376 -196 q 388 -76 376 -108 q 414 -17 399 -43 q 131 80 228 -14 q 35 336 35 174 q 76 524 35 443 q 193 648 117 604 q 374 692 269 692 q 544 644 475 692 q 647 517 614 597 q 681 339 681 438 l 681 283 l 226 283 m 510 404 q 460 504 496 471 q 369 538 425 538 q 276 503 314 538 q 228 404 239 469 l 510 404 z "},"ě":{"ha":715,"x_min":35,"x_max":681,"o":"m 681 339 q 647 517 681 438 q 544 644 614 597 q 374 692 475 692 q 193 648 269 692 q 76 524 117 604 q 35 336 35 443 q 134 77 35 171 q 425 -17 233 -17 q 567 5 507 -17 q 678 67 626 26 l 625 197 q 529 153 574 168 q 429 138 485 138 q 287 175 333 138 q 226 283 240 213 l 681 283 l 681 339 m 228 404 q 276 503 239 469 q 369 538 314 538 q 460 504 425 538 q 510 404 496 471 l 228 404 m 110 1024 l 321 818 l 419 818 l 631 1024 l 465 1046 l 374 956 l 281 1046 l 110 1024 z "},"ğ":{"ha":789,"x_min":35,"x_max":704,"o":"m 704 -32 q 607 -245 704 -171 q 346 -319 510 -319 q 207 -298 294 -319 q 71 -243 119 -276 l 125 -115 q 239 -160 188 -146 q 342 -175 290 -174 q 473 -135 424 -174 q 522 -31 522 -96 l 522 26 q 374 -17 453 -17 q 126 78 217 -17 q 35 336 35 174 q 76 522 35 442 q 194 647 117 603 q 379 692 272 692 q 477 669 425 692 q 569 613 529 647 l 610 674 l 704 674 l 704 -32 m 381 138 q 451 151 417 138 q 522 193 485 165 l 522 481 q 453 524 486 511 q 381 538 419 538 q 264 481 307 538 q 221 336 221 425 q 263 192 221 247 q 381 138 306 138 m 444 1046 q 424 976 444 1006 q 361 947 403 947 q 300 976 319 947 q 281 1046 281 1004 l 157 1046 q 210 885 157 951 q 361 818 263 819 q 513 885 460 819 q 565 1046 565 951 l 444 1046 z "},"ì":{"ha":333,"x_min":8,"x_max":265,"o":"m 76 674 l 76 0 l 257 0 l 257 674 l 76 674 m 194 1046 l 8 1046 l 140 818 l 265 853 l 194 1046 z "},"í":{"ha":333,"x_min":54,"x_max":311,"o":"m 76 674 l 76 0 l 257 0 l 257 674 l 76 674 m 125 1046 l 54 853 l 179 818 l 311 1046 l 125 1046 z "},"î":{"ha":333,"x_min":-104,"x_max":417,"o":"m 76 674 l 76 0 l 257 0 l 257 674 l 76 674 m 417 840 l 206 1046 l 107 1046 l -104 840 l 67 818 l 160 908 l 251 818 l 417 840 z "},"ï":{"ha":333,"x_min":-72,"x_max":374,"o":"m 76 674 l 76 0 l 257 0 l 257 674 l 76 674 m 19 838 q 82 863 57 838 q 107 926 107 889 q 82 990 107 964 q 19 1017 57 1017 q -46 990 -19 1017 q -72 926 -72 964 q -46 863 -72 889 q 19 838 -19 838 m 283 838 q 348 863 322 838 q 374 926 374 889 q 348 990 374 964 q 283 1017 322 1017 q 220 990 247 1017 q 193 926 193 964 q 219 863 193 889 q 283 838 246 838 z "},"ī":{"ha":333,"x_min":-25,"x_max":339,"o":"m 76 674 l 76 0 l 257 0 l 257 674 l 76 674 m 325 994 l -25 994 l -25 851 l 339 851 l 325 994 z "},"į":{"ha":333,"x_min":14,"x_max":317,"o":"m 164 825 q 91 854 121 825 q 61 926 61 883 q 91 999 61 969 q 164 1029 121 1029 q 235 999 207 1029 q 264 926 264 969 q 235 854 264 883 q 164 825 207 825 m 317 -242 q 175 -287 256 -287 q 59 -242 104 -287 q 14 -131 14 -196 q 31 -58 14 -101 q 67 7 49 -15 l 76 7 l 76 674 l 257 674 l 257 0 l 219 0 q 182 -56 199 -21 q 165 -115 165 -90 q 176 -143 165 -132 q 208 -154 188 -154 q 234 -148 218 -154 q 265 -131 250 -142 l 317 -242 z "},"ľ":{"ha":628,"x_min":90,"x_max":586,"o":"m 481 1031 q 409 998 439 1031 q 379 928 379 965 q 406 860 379 892 q 457 829 432 829 q 428 764 449 789 q 364 700 408 739 l 403 615 q 534 744 482 660 q 586 907 586 828 q 556 996 586 961 q 481 1031 525 1031 m 90 965 l 90 0 l 269 0 l 269 981 l 90 965 z "},"ñ":{"ha":786,"x_min":76,"x_max":715,"o":"m 257 467 q 349 524 307 503 q 438 546 390 546 q 509 511 483 546 q 535 414 535 476 l 535 0 l 715 0 l 715 422 q 664 624 715 551 q 485 696 613 696 q 358 671 429 696 q 225 601 288 646 l 194 674 l 76 674 l 76 0 l 257 0 l 257 467 m 518 994 q 507 965 518 978 q 481 951 496 951 q 442 957 457 951 q 406 975 426 963 q 369 994 386 988 q 325 1000 351 1000 q 219 960 263 1000 q 176 833 176 919 l 296 833 q 308 862 296 847 q 335 876 319 876 q 372 871 358 876 q 406 853 385 865 q 438 833 422 840 q 482 826 454 826 q 588 867 544 826 q 631 994 631 907 l 518 994 z "},"ń":{"ha":786,"x_min":76,"x_max":715,"o":"m 257 467 q 349 524 307 503 q 438 546 390 546 q 509 511 483 546 q 535 414 535 476 l 535 0 l 715 0 l 715 422 q 664 624 715 551 q 485 696 613 696 q 358 671 429 696 q 225 601 288 646 l 194 674 l 76 674 l 76 0 l 257 0 l 257 467 m 369 1046 l 299 853 l 424 818 l 556 1046 l 369 1046 z "},"ň":{"ha":786,"x_min":76,"x_max":715,"o":"m 257 467 q 349 524 307 503 q 438 546 390 546 q 509 511 483 546 q 535 414 535 476 l 535 0 l 715 0 l 715 422 q 664 624 715 551 q 485 696 613 696 q 358 671 429 696 q 225 601 288 646 l 194 674 l 76 674 l 76 0 l 257 0 l 257 467 m 150 1024 l 361 818 l 460 818 l 671 1024 l 506 1046 l 414 956 l 321 1046 l 150 1024 z "},"ò":{"ha":789,"x_min":35,"x_max":754,"o":"m 754 339 q 710 151 754 232 q 584 27 665 71 q 394 -17 503 -17 q 205 26 286 -17 q 79 149 124 69 q 35 336 35 229 q 79 524 35 443 q 205 648 124 604 q 394 692 286 692 q 584 649 503 692 q 710 526 665 606 q 754 339 754 446 m 394 138 q 519 194 469 138 q 568 339 568 251 q 519 482 568 426 q 394 538 471 538 q 270 481 319 538 q 221 336 221 424 q 269 193 221 249 q 394 138 318 138 m 421 1046 l 235 1046 l 367 818 l 492 853 l 421 1046 z "},"ó":{"ha":789,"x_min":35,"x_max":754,"o":"m 754 339 q 710 151 754 232 q 584 27 665 71 q 394 -17 503 -17 q 205 26 286 -17 q 79 149 124 69 q 35 336 35 229 q 79 524 35 443 q 205 648 124 604 q 394 692 286 692 q 584 649 503 692 q 710 526 665 606 q 754 339 754 446 m 394 138 q 519 194 469 138 q 568 339 568 251 q 519 482 568 426 q 394 538 471 538 q 270 481 319 538 q 221 336 221 424 q 269 193 221 249 q 394 138 318 138 m 351 1046 l 281 853 l 406 818 l 538 1046 l 351 1046 z "},"ô":{"ha":789,"x_min":35,"x_max":754,"o":"m 754 339 q 710 151 754 232 q 584 27 665 71 q 394 -17 503 -17 q 205 26 286 -17 q 79 149 124 69 q 35 336 35 229 q 79 524 35 443 q 205 648 124 604 q 394 692 286 692 q 584 649 503 692 q 710 526 665 606 q 754 339 754 446 m 394 138 q 519 194 469 138 q 568 339 568 251 q 519 482 568 426 q 394 538 471 538 q 270 481 319 538 q 221 336 221 424 q 269 193 221 249 q 394 138 318 138 m 643 840 l 432 1046 l 333 1046 l 122 840 l 293 818 l 386 908 l 478 818 l 643 840 z "},"õ":{"ha":789,"x_min":35,"x_max":754,"o":"m 754 339 q 710 151 754 232 q 584 27 665 71 q 394 -17 503 -17 q 205 26 286 -17 q 79 149 124 69 q 35 336 35 229 q 79 524 35 443 q 205 648 124 604 q 394 692 286 692 q 584 649 503 692 q 710 526 665 606 q 754 339 754 446 m 394 138 q 519 194 469 138 q 568 339 568 251 q 519 482 568 426 q 394 538 471 538 q 270 481 319 538 q 221 336 221 424 q 269 193 221 249 q 394 138 318 138 m 500 994 q 489 965 500 978 q 463 951 478 951 q 424 957 439 951 q 388 975 408 963 q 351 994 368 988 q 307 1000 333 1000 q 201 960 244 1000 q 158 833 158 919 l 278 833 q 290 862 278 847 q 317 876 301 876 q 353 871 340 876 q 388 853 367 865 q 420 833 404 840 q 464 826 436 826 q 569 867 526 826 q 613 994 613 907 l 500 994 z "},"ö":{"ha":789,"x_min":35,"x_max":754,"o":"m 754 339 q 710 151 754 232 q 584 27 665 71 q 394 -17 503 -17 q 205 26 286 -17 q 79 149 124 69 q 35 336 35 229 q 79 524 35 443 q 205 648 124 604 q 394 692 286 692 q 584 649 503 692 q 710 526 665 606 q 754 339 754 446 m 394 138 q 519 194 469 138 q 568 339 568 251 q 519 482 568 426 q 394 538 471 538 q 270 481 319 538 q 221 336 221 424 q 269 193 221 249 q 394 138 318 138 m 246 838 q 308 863 283 838 q 333 926 333 889 q 308 990 333 964 q 246 1017 283 1017 q 181 990 207 1017 q 154 926 154 964 q 181 863 154 889 q 246 838 207 838 m 510 838 q 574 863 549 838 q 600 926 600 889 q 574 990 600 964 q 510 1017 549 1017 q 447 990 474 1017 q 419 926 419 964 q 446 863 419 889 q 510 838 472 838 z "},"ō":{"ha":789,"x_min":35,"x_max":754,"o":"m 754 339 q 710 151 754 232 q 584 27 665 71 q 394 -17 503 -17 q 205 26 286 -17 q 79 149 124 69 q 35 336 35 229 q 79 524 35 443 q 205 648 124 604 q 394 692 286 692 q 584 649 503 692 q 710 526 665 606 q 754 339 754 446 m 394 138 q 519 194 469 138 q 568 339 568 251 q 519 482 568 426 q 394 538 471 538 q 270 481 319 538 q 221 336 221 424 q 269 193 221 249 q 394 138 318 138 m 551 994 l 201 994 l 201 851 l 565 851 l 551 994 z "},"ő":{"ha":789,"x_min":35,"x_max":754,"o":"m 754 339 q 710 151 754 232 q 584 27 665 71 q 394 -17 503 -17 q 205 26 286 -17 q 79 149 124 69 q 35 336 35 229 q 79 524 35 443 q 205 648 124 604 q 394 692 286 692 q 584 649 503 692 q 710 526 665 606 q 754 339 754 446 m 394 138 q 519 194 469 138 q 568 339 568 251 q 519 482 568 426 q 394 538 471 538 q 270 481 319 538 q 221 336 221 424 q 269 193 221 249 q 394 138 318 138 m 251 1046 l 181 853 l 306 818 l 438 1046 l 251 1046 m 529 1046 l 458 853 l 583 818 l 715 1046 l 529 1046 z "},"ŕ":{"ha":510,"x_min":76,"x_max":496,"o":"m 257 411 q 383 496 315 463 q 496 529 450 529 l 460 674 q 344 639 410 674 q 231 561 279 604 l 171 674 l 76 674 l 76 0 l 257 0 l 257 411 m 235 1046 l 164 853 l 289 818 l 421 1046 l 235 1046 z "},"ř":{"ha":510,"x_min":15,"x_max":536,"o":"m 257 411 q 383 496 315 463 q 496 529 450 529 l 460 674 q 344 639 410 674 q 231 561 279 604 l 171 674 l 76 674 l 76 0 l 257 0 l 257 411 m 15 1024 l 226 818 l 325 818 l 536 1024 l 371 1046 l 279 956 l 186 1046 l 15 1024 z "},"ś":{"ha":586,"x_min":38,"x_max":551,"o":"m 38 53 q 150 1 81 19 q 271 -17 219 -17 q 479 38 407 -17 q 551 194 551 93 q 486 331 551 275 q 322 422 421 386 q 244 455 271 440 q 217 488 217 469 q 240 528 217 511 q 297 546 263 546 q 383 535 342 546 q 476 500 424 524 l 531 621 q 415 672 483 653 q 300 692 347 692 q 108 637 179 692 q 38 486 38 582 q 101 360 38 410 q 261 278 165 310 q 379 188 379 242 q 344 144 379 160 q 268 129 310 129 q 92 175 194 129 l 38 53 m 261 1046 l 190 853 l 315 818 l 447 1046 l 261 1046 z "},"š":{"ha":586,"x_min":38,"x_max":563,"o":"m 38 53 q 150 1 81 19 q 271 -17 219 -17 q 479 38 407 -17 q 551 194 551 93 q 486 331 551 275 q 322 422 421 386 q 244 455 271 440 q 217 488 217 469 q 240 528 217 511 q 297 546 263 546 q 383 535 342 546 q 476 500 424 524 l 531 621 q 415 672 483 653 q 300 692 347 692 q 108 637 179 692 q 38 486 38 582 q 101 360 38 410 q 261 278 165 310 q 379 188 379 242 q 344 144 379 160 q 268 129 310 129 q 92 175 194 129 l 38 53 m 42 1024 l 253 818 l 351 818 l 563 1024 l 397 1046 l 306 956 l 213 1046 l 42 1024 z "},"ť":{"ha":764,"x_min":14,"x_max":722,"o":"m 617 1031 q 545 998 575 1031 q 515 928 515 965 q 542 860 515 892 q 593 829 568 829 q 565 764 585 789 q 500 700 544 739 l 539 615 q 670 744 618 660 q 722 907 722 828 q 692 996 722 961 q 617 1031 661 1031 m 283 864 l 104 832 l 104 672 l 14 672 l 14 533 l 104 533 l 104 215 q 175 36 104 100 q 372 -28 246 -28 q 447 -15 406 -28 q 508 14 488 -3 l 456 144 q 382 126 418 126 q 309 160 335 126 q 283 247 283 193 l 283 533 l 461 533 l 406 672 l 283 672 l 283 864 z "},"ù":{"ha":786,"x_min":71,"x_max":710,"o":"m 529 207 q 438 149 479 171 q 349 128 396 128 q 277 163 303 128 q 251 260 251 197 l 251 674 l 71 674 l 71 251 q 122 50 71 122 q 301 -22 174 -22 q 428 3 357 -22 q 561 72 499 28 l 592 0 l 710 0 l 710 674 l 529 674 l 529 207 m 426 1046 l 240 1046 l 372 818 l 497 853 l 426 1046 z "},"ú":{"ha":786,"x_min":71,"x_max":710,"o":"m 529 207 q 438 149 479 171 q 349 128 396 128 q 277 163 303 128 q 251 260 251 197 l 251 674 l 71 674 l 71 251 q 122 50 71 122 q 301 -22 174 -22 q 428 3 357 -22 q 561 72 499 28 l 592 0 l 710 0 l 710 674 l 529 674 l 529 207 m 357 1046 l 286 853 l 411 818 l 543 1046 l 357 1046 z "},"û":{"ha":786,"x_min":71,"x_max":710,"o":"m 529 207 q 438 149 479 171 q 349 128 396 128 q 277 163 303 128 q 251 260 251 197 l 251 674 l 71 674 l 71 251 q 122 50 71 122 q 301 -22 174 -22 q 428 3 357 -22 q 561 72 499 28 l 592 0 l 710 0 l 710 674 l 529 674 l 529 207 m 649 840 l 438 1046 l 339 1046 l 128 840 l 299 818 l 392 908 l 483 818 l 649 840 z "},"ü":{"ha":786,"x_min":71,"x_max":710,"o":"m 529 207 q 438 149 479 171 q 349 128 396 128 q 277 163 303 128 q 251 260 251 197 l 251 674 l 71 674 l 71 251 q 122 50 71 122 q 301 -22 174 -22 q 428 3 357 -22 q 561 72 499 28 l 592 0 l 710 0 l 710 674 l 529 674 l 529 207 m 251 838 q 314 863 289 838 q 339 926 339 889 q 314 990 339 964 q 251 1017 289 1017 q 186 990 213 1017 q 160 926 160 964 q 186 863 160 889 q 251 838 213 838 m 515 838 q 580 863 554 838 q 606 926 606 889 q 580 990 606 964 q 515 1017 554 1017 q 452 990 479 1017 q 425 926 425 964 q 451 863 425 889 q 515 838 478 838 z "},"ū":{"ha":786,"x_min":71,"x_max":710,"o":"m 529 207 q 438 149 479 171 q 349 128 396 128 q 277 163 303 128 q 251 260 251 197 l 251 674 l 71 674 l 71 251 q 122 50 71 122 q 301 -22 174 -22 q 428 3 357 -22 q 561 72 499 28 l 592 0 l 710 0 l 710 674 l 529 674 l 529 207 m 557 994 l 207 994 l 207 851 l 571 851 l 557 994 z "},"ů":{"ha":786,"x_min":71,"x_max":710,"o":"m 529 207 q 438 149 479 171 q 349 128 396 128 q 277 163 303 128 q 251 260 251 197 l 251 674 l 71 674 l 71 251 q 122 50 71 122 q 301 -22 174 -22 q 428 3 357 -22 q 561 72 499 28 l 592 0 l 710 0 l 710 674 l 529 674 l 529 207 m 386 1101 q 282 1060 326 1101 q 238 961 238 1019 q 281 864 238 903 q 386 825 325 825 q 491 864 447 825 q 535 961 535 903 q 490 1060 535 1019 q 386 1101 446 1101 m 386 906 q 347 922 364 906 q 331 961 331 939 q 347 999 331 983 q 386 1015 364 1015 q 424 999 408 1015 q 440 961 440 983 q 424 922 440 939 q 386 906 408 906 z "},"ű":{"ha":786,"x_min":71,"x_max":721,"o":"m 529 207 q 438 149 479 171 q 349 128 396 128 q 277 163 303 128 q 251 260 251 197 l 251 674 l 71 674 l 71 251 q 122 50 71 122 q 301 -22 174 -22 q 428 3 357 -22 q 561 72 499 28 l 592 0 l 710 0 l 710 674 l 529 674 l 529 207 m 257 1046 l 186 853 l 311 818 l 443 1046 l 257 1046 m 535 1046 l 464 853 l 589 818 l 721 1046 l 535 1046 z "},"ų":{"ha":786,"x_min":71,"x_max":829,"o":"m 829 -242 q 688 -287 768 -287 q 572 -242 617 -287 q 526 -131 526 -196 q 544 -58 526 -101 q 579 7 561 -15 l 589 7 l 561 72 q 428 3 499 28 q 301 -22 357 -22 q 122 50 174 -22 q 71 251 71 122 l 71 674 l 251 674 l 251 260 q 277 163 251 197 q 349 128 303 128 q 438 149 396 128 q 529 207 479 171 l 529 674 l 710 674 l 710 7 l 739 7 q 698 -50 718 -12 q 678 -115 678 -87 q 689 -143 678 -132 q 721 -154 700 -154 q 747 -148 731 -154 q 778 -131 763 -142 l 829 -242 z "},"ý":{"ha":699,"x_min":14,"x_max":685,"o":"m 214 -32 q 153 -101 199 -74 q 38 -160 108 -129 l 101 -308 q 274 -227 194 -286 q 383 -89 353 -168 l 685 674 l 494 674 l 347 265 l 192 699 l 14 646 l 246 47 l 214 -32 m 301 1047 l 231 854 l 356 819 l 488 1047 l 301 1047 z "},"ÿ":{"ha":699,"x_min":14,"x_max":685,"o":"m 214 -32 q 153 -101 199 -74 q 38 -160 108 -129 l 101 -308 q 274 -227 194 -286 q 383 -89 353 -168 l 685 674 l 494 674 l 347 265 l 192 699 l 14 646 l 246 47 l 214 -32 m 196 839 q 258 865 233 839 q 283 928 283 890 q 258 992 283 965 q 196 1018 233 1018 q 131 992 157 1018 q 104 928 104 965 q 131 865 104 890 q 196 839 157 839 m 460 839 q 524 865 499 839 q 550 928 550 890 q 524 992 550 965 q 460 1018 499 1018 q 397 992 424 1018 q 369 928 369 965 q 396 865 369 890 q 460 839 422 839 z "},"ź":{"ha":615,"x_min":18,"x_max":597,"o":"m 69 525 l 353 525 l 18 96 l 42 0 l 597 0 l 583 146 l 244 146 l 583 571 l 574 674 l 35 674 l 69 525 m 257 1046 l 186 853 l 311 818 l 443 1046 l 257 1046 z "},"ż":{"ha":615,"x_min":18,"x_max":597,"o":"m 69 525 l 353 525 l 18 96 l 42 0 l 597 0 l 583 146 l 244 146 l 583 571 l 574 674 l 35 674 l 69 525 m 296 825 q 367 854 339 825 q 396 926 396 883 q 367 999 396 969 q 296 1029 339 1029 q 223 999 253 1029 q 193 926 193 969 q 223 854 193 883 q 296 825 253 825 z "},"ž":{"ha":615,"x_min":18,"x_max":597,"o":"m 69 525 l 353 525 l 18 96 l 42 0 l 597 0 l 583 146 l 244 146 l 583 571 l 574 674 l 35 674 l 69 525 m 38 1024 l 249 818 l 347 818 l 558 1024 l 393 1046 l 301 956 l 208 1046 l 38 1024 z "},"ş":{"ha":586,"x_min":38,"x_max":551,"o":"m 551 194 q 494 51 551 106 q 329 -14 438 -3 l 318 -40 q 388 -92 360 -57 q 415 -164 415 -128 q 365 -270 415 -233 q 240 -307 314 -307 q 170 -296 211 -307 q 108 -268 129 -285 l 150 -162 q 197 -181 169 -172 q 240 -190 224 -190 q 274 -185 260 -190 q 288 -167 288 -179 q 252 -126 288 -142 q 165 -104 217 -110 l 203 -10 q 38 53 93 10 l 92 175 q 268 129 194 129 q 344 144 310 129 q 379 188 379 160 q 261 278 379 242 q 101 360 165 310 q 38 486 38 410 q 108 637 38 582 q 300 692 179 692 q 415 672 347 692 q 531 621 483 653 l 476 500 q 383 535 424 524 q 297 546 342 546 q 240 528 263 546 q 217 488 217 511 q 244 455 217 469 q 322 422 271 440 q 486 331 421 386 q 551 194 551 275 z "},"ţ":{"ha":529,"x_min":14,"x_max":508,"o":"m 363 -40 q 432 -92 404 -57 q 460 -164 460 -128 q 409 -270 460 -233 q 285 -307 358 -307 q 215 -296 256 -307 q 153 -268 174 -285 l 194 -162 q 241 -181 214 -172 q 285 -190 268 -190 q 318 -185 304 -190 q 332 -167 332 -179 q 297 -126 332 -142 q 210 -104 261 -110 l 249 -7 q 142 75 179 18 q 104 215 104 132 l 104 533 l 14 533 l 14 672 l 104 672 l 104 832 l 283 864 l 283 672 l 406 672 l 461 533 l 283 533 l 283 247 q 309 160 283 193 q 382 126 335 126 q 456 144 418 126 l 508 14 q 447 -15 488 -3 q 372 -28 406 -28 l 368 -28 l 363 -40 z "},"ș":{"ha":586,"x_min":38,"x_max":551,"o":"m 38 53 q 150 1 81 19 q 271 -17 219 -17 q 479 38 407 -17 q 551 194 551 93 q 486 331 551 275 q 322 422 421 386 q 244 455 271 440 q 217 488 217 469 q 240 528 217 511 q 297 546 263 546 q 383 535 342 546 q 476 500 424 524 l 531 621 q 415 672 483 653 q 300 692 347 692 q 108 637 179 692 q 38 486 38 582 q 101 360 38 410 q 261 278 165 310 q 379 188 379 242 q 344 144 379 160 q 268 129 310 129 q 92 175 194 129 l 38 53 m 274 -29 q 201 -61 232 -29 q 171 -132 171 -93 q 197 -201 171 -169 q 249 -232 222 -232 q 219 -280 240 -258 q 176 -310 197 -301 l 215 -394 q 331 -295 285 -361 q 376 -154 376 -229 q 347 -65 376 -100 q 274 -29 317 -29 z "},"­":{"ha":167,"x_min":0,"x_max":0,"o":""},"µ":{"ha":800,"x_min":85,"x_max":724,"o":"m 724 0 l 606 0 l 575 72 q 442 3 513 28 q 315 -22 371 -22 q 265 -19 296 -22 l 265 -290 l 85 -304 l 85 674 l 265 674 l 265 260 q 291 163 265 197 q 363 128 317 128 q 451 149 410 128 q 543 207 493 171 l 543 674 l 724 674 l 724 0 z "},"ˉ":{"ha":392,"x_min":14,"x_max":378,"o":"m 364 994 l 14 994 l 14 851 l 378 851 l 364 994 z "},"ℓ":{"ha":576,"x_min":14,"x_max":535,"o":"m 58 213 q 88 228 72 218 q 110 242 103 238 l 110 232 q 338 -14 110 -14 q 424 4 379 -14 q 510 58 469 22 l 449 174 q 357 140 408 140 q 292 249 292 140 l 292 378 q 467 576 400 472 q 535 771 535 679 q 476 919 535 864 q 331 975 418 975 q 220 949 271 975 q 140 875 169 924 q 110 763 110 826 l 110 440 q 14 376 72 413 l 58 213 m 357 761 q 292 601 357 681 l 292 753 q 300 800 292 783 q 324 817 308 817 q 348 801 339 817 q 357 761 357 786 z "},"Ω":{"ha":982,"x_min":49,"x_max":933,"o":"m 739 478 q 701 270 739 361 q 593 146 663 179 l 593 0 l 925 0 l 933 146 l 814 146 q 897 295 867 203 q 926 483 926 388 q 875 738 926 629 q 725 907 824 847 q 490 967 626 967 q 256 907 354 967 q 107 738 158 847 q 56 483 56 629 q 85 295 56 388 q 168 146 115 203 l 49 146 l 56 0 l 389 0 l 389 146 q 282 271 321 179 q 243 478 243 363 q 310 724 243 633 q 490 814 378 814 q 672 724 604 814 q 739 478 739 633 z "},"∆":{"ha":915,"x_min":14,"x_max":901,"o":"m 901 0 l 901 25 l 535 944 l 382 944 l 14 0 l 901 0 m 454 697 l 665 144 l 247 144 l 454 697 z "},"∕":{"ha":631,"x_min":14,"x_max":617,"o":"m 201 -6 l 617 981 l 428 986 l 14 0 l 201 -6 z "},"∙":{"ha":385,"x_min":42,"x_max":343,"o":"m 192 310 q 299 353 254 310 q 343 458 343 396 q 299 564 343 519 q 192 608 254 608 q 85 564 129 608 q 42 458 42 519 q 85 353 42 396 q 192 310 129 310 z "},"₺":{"ha":758,"x_min":0,"x_max":731,"o":"m 300 0 q 520 55 422 0 q 674 209 618 110 q 731 438 731 308 l 546 438 q 515 300 546 361 q 427 205 483 239 q 300 171 371 171 l 300 478 l 533 561 l 508 700 l 300 628 l 300 685 l 533 767 l 508 906 l 300 833 l 300 981 l 119 965 l 119 768 l 0 726 l 26 586 l 119 621 l 119 563 l 0 521 l 26 382 l 119 414 l 119 0 l 300 0 z "},"₽":{"ha":822,"x_min":35,"x_max":788,"o":"m 297 278 l 646 278 l 661 136 l 297 136 l 297 0 l 118 0 l 118 136 l 50 136 l 35 278 l 118 278 l 118 332 l 50 332 l 35 474 l 118 474 l 118 944 l 414 944 q 684 870 581 944 q 788 642 788 796 q 734 468 788 539 q 593 363 681 397 q 401 329 506 329 l 297 329 l 297 278 m 411 478 q 543 516 494 478 q 597 631 592 554 q 549 756 597 718 q 408 794 501 794 l 297 794 l 297 478 l 411 478 z "},"¢":{"ha":656,"x_min":35,"x_max":626,"o":"m 626 53 q 499 -3 582 17 l 499 -160 l 318 -160 l 318 -11 q 110 103 186 11 q 35 336 35 194 q 110 570 35 478 q 315 685 185 663 l 315 831 l 496 849 l 496 676 q 626 621 579 654 l 575 492 q 481 526 522 515 q 394 538 439 538 q 270 481 319 538 q 221 336 221 424 q 269 193 221 249 q 394 138 318 138 q 481 149 439 138 q 575 183 522 160 l 626 53 z "},"£":{"ha":703,"x_min":63,"x_max":689,"o":"m 661 140 l 319 140 q 349 278 349 193 l 349 404 l 572 404 l 513 542 l 349 542 l 349 675 q 370 762 349 729 q 439 794 392 794 q 514 778 475 794 l 567 906 q 506 938 546 925 q 431 950 465 950 q 236 883 306 950 q 167 699 167 815 l 167 542 l 63 542 l 63 404 l 167 404 l 167 260 q 145 172 167 201 q 65 140 124 142 l 79 0 l 689 0 l 661 140 z "},"¤":{"ha":974,"x_min":42,"x_max":932,"o":"m 799 150 q 850 338 849 229 q 799 522 847 443 l 932 657 l 821 790 l 674 643 q 490 692 588 690 q 300 642 392 690 l 153 790 l 42 657 l 179 517 q 144 432 157 479 q 131 335 131 385 q 178 154 131 238 l 42 15 l 153 -118 l 300 32 q 490 -18 392 -17 q 674 29 590 -17 l 821 -118 l 932 15 l 799 150 m 664 336 q 639 245 664 288 q 574 178 614 203 q 488 154 533 154 q 404 179 443 154 q 341 246 365 204 q 317 336 317 288 q 341 426 317 385 q 404 492 365 468 q 488 517 443 517 q 574 492 533 517 q 639 427 614 468 q 664 336 664 386 z "},"¥":{"ha":844,"x_min":14,"x_max":831,"o":"m 503 225 l 725 225 l 739 92 l 503 92 l 503 0 l 322 0 l 322 92 l 119 92 l 104 225 l 322 225 l 322 303 l 119 303 l 104 436 l 283 436 l 14 913 l 192 964 l 411 550 l 640 944 l 831 944 l 544 436 l 725 436 l 739 303 l 503 303 l 503 225 z "},"€":{"ha":864,"x_min":0,"x_max":843,"o":"m 843 42 q 715 -3 790 14 q 578 -19 639 -19 q 308 61 417 -19 q 157 281 200 142 l 17 281 l 0 414 l 132 414 q 129 468 129 450 q 132 526 129 488 l 17 526 l 0 660 l 158 660 q 317 883 206 801 q 585 964 429 964 q 707 949 635 964 q 835 903 779 933 l 779 774 l 744 783 q 658 806 690 800 q 579 813 626 813 q 447 772 506 813 q 354 660 389 732 l 619 660 l 633 526 l 319 526 q 317 469 317 490 q 319 414 317 450 l 619 414 l 633 281 l 354 281 q 441 172 386 211 q 568 132 496 132 q 775 175 671 132 l 843 42 z "},"$":{"ha":732,"x_min":49,"x_max":697,"o":"m 540 936 q 640 896 583 922 l 581 751 q 477 794 524 779 q 376 810 431 810 q 274 785 314 810 q 235 714 235 761 q 266 647 235 674 q 368 578 297 619 l 413 553 l 453 529 q 583 447 535 482 q 665 360 632 411 q 697 242 697 310 q 653 103 697 164 q 526 11 608 43 l 526 -178 l 403 -178 l 403 -15 q 344 -18 367 -18 l 324 -18 l 324 -178 l 201 -178 l 201 7 q 65 63 113 33 l 106 208 q 222 162 157 182 q 342 142 288 142 q 468 168 425 142 q 511 244 511 194 q 477 308 511 279 q 372 375 443 336 l 331 400 q 183 496 238 456 q 88 591 128 536 q 49 714 49 646 q 92 851 49 790 q 215 940 135 911 l 215 1103 l 338 1122 l 338 965 l 374 967 q 417 964 389 967 l 417 1103 l 540 1122 l 540 936 z "},",":{"ha":293,"x_min":28,"x_max":251,"o":"m 146 203 q 76 171 106 203 q 46 100 46 139 q 72 32 46 64 q 122 0 97 0 q 93 -65 114 -40 q 28 -128 72 -90 l 68 -214 q 199 -85 146 -169 q 251 78 251 0 q 220 167 251 132 q 146 203 189 203 z "},".":{"ha":286,"x_min":42,"x_max":244,"o":"m 144 0 q 216 29 188 0 q 244 101 244 58 q 216 174 244 144 q 144 203 188 203 q 72 174 101 203 q 42 101 42 144 q 72 29 42 58 q 144 0 101 0 z "},"!":{"ha":288,"x_min":42,"x_max":246,"o":"m 238 975 l 49 975 l 72 339 l 217 272 l 238 975 m 143 203 q 72 174 101 203 q 42 101 42 144 q 72 29 42 58 q 143 0 101 0 q 216 29 186 0 q 246 101 246 58 q 216 174 246 144 q 143 203 186 203 z "},"¡":{"ha":288,"x_min":42,"x_max":246,"o":"m 143 771 q 216 801 186 771 q 246 874 246 831 q 216 945 246 915 q 143 975 186 975 q 72 945 101 975 q 42 874 42 915 q 72 801 42 831 q 143 771 101 771 m 49 0 l 236 0 l 217 636 l 71 701 l 49 0 z "},":":{"ha":286,"x_min":42,"x_max":244,"o":"m 144 454 q 216 484 188 454 q 244 557 244 514 q 215 628 244 599 q 144 658 186 658 q 72 628 101 658 q 42 557 42 599 q 72 484 42 514 q 144 454 101 454 m 144 0 q 216 29 188 0 q 244 101 244 58 q 216 174 244 144 q 144 203 188 203 q 72 174 101 203 q 42 101 42 144 q 72 29 42 58 q 144 0 101 0 z "},";":{"ha":294,"x_min":28,"x_max":253,"o":"m 151 658 q 78 628 108 658 q 47 557 47 599 q 78 484 47 514 q 151 454 108 454 q 224 484 194 454 q 253 557 253 514 q 224 628 253 599 q 151 658 194 658 m 146 203 q 76 171 106 203 q 46 100 46 139 q 72 32 46 64 q 122 0 97 0 q 93 -65 114 -40 q 28 -128 72 -90 l 68 -214 q 199 -85 146 -169 q 251 78 251 0 q 220 167 251 132 q 146 203 189 203 z "},"?":{"ha":604,"x_min":14,"x_max":563,"o":"m 283 974 q 142 955 208 974 q 14 896 76 936 l 38 735 q 167 801 103 779 q 279 824 232 824 q 364 796 331 824 q 397 722 397 768 q 335 616 397 667 q 171 532 272 565 l 182 303 l 310 249 l 333 439 q 497 571 432 490 q 563 725 563 651 q 490 906 563 839 q 283 974 418 974 m 236 203 q 163 174 193 203 q 133 101 133 144 q 163 29 133 58 q 236 0 193 0 q 308 29 279 0 q 338 101 338 58 q 308 174 338 144 q 236 203 279 203 z "},"¿":{"ha":603,"x_min":42,"x_max":589,"o":"m 367 718 q 440 748 410 718 q 469 821 469 778 q 440 892 469 863 q 367 922 410 922 q 294 892 324 922 q 265 821 265 863 q 294 748 265 778 q 367 718 324 718 m 318 -51 q 460 -33 394 -51 q 589 26 526 -14 l 565 189 q 437 120 500 142 q 324 99 374 99 q 239 126 272 99 q 206 199 206 154 q 268 307 206 256 q 433 392 331 358 l 421 621 l 293 674 l 269 485 q 106 351 171 431 q 42 197 42 271 q 113 17 42 85 q 318 -51 185 -51 z "},"*":{"ha":539,"x_min":14,"x_max":525,"o":"m 196 928 l 56 958 l 14 832 l 154 803 l 58 668 l 168 583 l 269 721 l 372 583 l 481 668 l 385 804 l 525 832 l 483 958 l 342 928 l 340 1065 l 199 1065 l 196 928 z "},"\"":{"ha":547,"x_min":28,"x_max":506,"o":"m 144 1031 q 73 998 103 1031 q 43 928 43 965 q 69 860 43 892 q 121 829 96 829 q 92 764 113 789 q 28 700 72 739 l 67 615 q 198 744 146 660 q 250 907 250 828 q 219 996 250 961 q 144 1031 189 1031 m 403 1031 q 331 998 361 1031 q 300 928 300 965 q 326 860 300 892 q 378 829 351 829 q 349 765 369 789 q 283 700 329 740 l 324 615 q 453 744 401 660 q 506 907 506 828 q 476 996 506 961 q 403 1031 446 1031 z "},"'":{"ha":292,"x_min":28,"x_max":250,"o":"m 144 1031 q 73 998 103 1031 q 43 928 43 965 q 69 860 43 892 q 121 829 96 829 q 92 764 113 789 q 28 700 72 739 l 67 615 q 198 744 146 660 q 250 907 250 828 q 219 996 250 961 q 144 1031 189 1031 z "},"‘":{"ha":293,"x_min":28,"x_max":251,"o":"m 132 615 q 203 648 174 615 q 233 718 233 681 q 208 787 233 756 q 157 818 182 818 q 186 885 165 860 q 251 947 207 910 l 211 1031 q 81 904 133 989 q 28 740 28 819 q 58 651 28 686 q 132 615 89 615 z "},"’":{"ha":292,"x_min":28,"x_max":250,"o":"m 144 1031 q 73 998 103 1031 q 43 928 43 965 q 69 860 43 892 q 121 829 96 829 q 92 764 113 789 q 28 700 72 739 l 67 615 q 198 744 146 660 q 250 907 250 828 q 219 996 250 961 q 144 1031 189 1031 z "},"‚":{"ha":292,"x_min":28,"x_max":250,"o":"m 144 203 q 73 171 103 203 q 43 100 43 139 q 69 32 43 64 q 121 0 96 0 q 92 -64 113 -40 q 28 -128 72 -87 l 67 -214 q 197 -85 144 -169 q 250 78 250 0 q 219 167 250 132 q 144 203 188 203 z "},"“":{"ha":550,"x_min":42,"x_max":522,"o":"m 146 615 q 217 648 188 615 q 247 718 247 681 q 222 787 247 756 q 171 818 196 818 q 200 885 179 860 q 265 947 221 910 l 225 1031 q 94 904 147 989 q 42 740 42 819 q 72 651 42 686 q 146 615 103 615 m 403 615 q 475 648 444 615 q 506 718 506 681 q 492 765 506 742 q 461 803 479 789 q 428 818 443 818 q 457 885 436 860 q 522 947 478 910 l 481 1031 q 351 904 403 989 q 299 740 299 819 q 329 651 299 686 q 403 615 360 615 z "},"”":{"ha":547,"x_min":28,"x_max":506,"o":"m 144 1031 q 73 998 103 1031 q 43 928 43 965 q 69 860 43 892 q 121 829 96 829 q 92 764 113 789 q 28 700 72 739 l 67 615 q 198 744 146 660 q 250 907 250 828 q 219 996 250 961 q 144 1031 189 1031 m 403 1031 q 331 998 361 1031 q 300 928 300 965 q 326 860 300 892 q 378 829 351 829 q 349 765 369 789 q 283 700 329 740 l 324 615 q 453 744 401 660 q 506 907 506 828 q 476 996 506 961 q 403 1031 446 1031 z "},"„":{"ha":547,"x_min":28,"x_max":506,"o":"m 144 203 q 73 171 103 203 q 43 100 43 139 q 69 32 43 64 q 121 0 96 0 q 92 -64 113 -40 q 28 -128 72 -87 l 67 -214 q 197 -85 144 -169 q 250 78 250 0 q 219 167 250 132 q 144 203 188 203 m 403 203 q 331 171 361 203 q 300 100 300 139 q 326 32 300 64 q 378 0 351 0 q 350 -64 369 -40 q 283 -128 331 -87 l 324 -214 q 453 -85 401 -169 q 506 78 506 0 q 476 167 506 132 q 403 203 446 203 z "},"·":{"ha":286,"x_min":42,"x_max":244,"o":"m 144 263 q 216 292 188 263 q 244 364 244 321 q 216 436 244 407 q 144 465 188 465 q 72 436 101 465 q 42 364 42 407 q 72 292 42 321 q 144 263 101 263 z "},"(":{"ha":428,"x_min":69,"x_max":386,"o":"m 385 -1 q 281 206 325 71 q 236 447 236 340 q 281 681 236 550 q 386 896 325 811 l 246 947 q 114 699 158 822 q 69 446 69 576 q 115 184 69 311 q 246 -54 161 57 l 385 -1 z "},")":{"ha":428,"x_min":42,"x_max":358,"o":"m 43 893 q 145 688 101 824 q 189 446 189 553 q 145 212 189 343 q 42 -3 101 81 l 181 -54 q 313 194 268 72 q 358 446 358 317 q 312 707 358 579 q 182 947 265 835 l 43 893 z "},"[":{"ha":503,"x_min":139,"x_max":489,"o":"m 461 18 l 318 18 l 318 825 l 461 825 l 489 967 l 139 967 l 139 -122 l 489 -122 l 461 18 z "},"]":{"ha":503,"x_min":14,"x_max":364,"o":"m 39 825 l 182 825 l 182 18 l 39 18 l 14 -122 l 364 -122 l 364 967 l 14 967 l 39 825 z "},"{":{"ha":408,"x_min":42,"x_max":394,"o":"m 265 429 q 302 486 290 453 q 314 567 314 519 q 308 615 314 594 q 289 660 301 635 q 271 699 276 682 q 265 739 265 717 q 280 765 265 753 q 318 776 294 776 l 376 776 l 394 915 l 314 915 q 165 869 214 915 q 117 740 117 822 q 143 622 117 704 q 163 549 163 569 q 145 505 163 522 q 104 488 128 488 l 42 488 l 42 368 l 104 368 q 145 351 128 368 q 163 307 163 333 q 156 267 163 292 q 140 218 149 243 q 128 177 139 211 q 117 118 117 143 q 165 -11 117 36 q 314 -58 214 -58 l 394 -58 l 376 81 l 318 81 q 280 92 294 81 q 265 118 265 104 q 271 158 265 140 q 289 203 276 175 q 308 247 301 228 q 314 290 314 267 q 265 429 314 381 z "},"}":{"ha":406,"x_min":11,"x_max":364,"o":"m 140 429 q 92 290 92 381 q 98 247 92 267 q 117 203 104 228 q 135 158 129 175 q 140 118 140 140 q 126 92 140 104 q 88 81 111 81 l 29 81 l 11 -58 l 92 -58 q 240 -11 192 -58 q 289 118 289 36 q 278 177 289 143 q 265 218 267 211 q 250 267 257 243 q 243 307 243 292 q 260 351 243 333 q 301 368 278 368 l 364 368 l 364 488 l 301 488 q 260 505 278 488 q 243 549 243 522 q 263 622 243 569 q 289 740 289 704 q 240 869 289 822 q 92 915 192 915 l 11 915 l 29 776 l 88 776 q 126 765 111 776 q 140 739 140 753 q 135 699 140 717 q 117 660 129 682 q 98 615 104 635 q 92 567 92 594 q 103 486 92 519 q 140 429 115 453 z "},"/":{"ha":631,"x_min":14,"x_max":617,"o":"m 201 -6 l 617 981 l 428 986 l 14 0 l 201 -6 z "},"\\":{"ha":631,"x_min":14,"x_max":617,"o":"m 14 981 l 428 -6 l 617 0 l 201 986 l 14 981 z "},"|":{"ha":415,"x_min":118,"x_max":297,"o":"m 297 -14 l 297 976 l 118 990 l 118 0 l 297 -14 z "},"¦":{"ha":415,"x_min":118,"x_max":297,"o":"m 297 564 l 297 976 l 118 990 l 118 579 l 297 564 m 297 -14 l 297 400 l 118 413 l 118 0 l 297 -14 z "},"«":{"ha":557,"x_min":42,"x_max":529,"o":"m 296 235 l 178 340 l 296 446 l 264 567 l 42 374 l 42 307 l 264 115 l 296 235 m 529 235 l 413 340 l 529 446 l 500 567 l 276 374 l 276 307 l 500 115 l 529 235 z "},"»":{"ha":560,"x_min":28,"x_max":518,"o":"m 28 446 l 146 340 l 28 235 l 60 115 l 281 307 l 281 374 l 60 567 l 28 446 m 264 446 l 382 340 l 264 235 l 294 115 l 518 307 l 518 374 l 294 567 l 264 446 z "},"π":{"ha":914,"x_min":14,"x_max":900,"o":"m 574 533 l 574 0 l 754 0 l 754 533 l 900 533 l 900 674 l 14 674 l 14 533 l 160 533 l 160 0 l 339 0 l 339 533 l 574 533 z "},"†":{"ha":619,"x_min":42,"x_max":578,"o":"m 42 868 l 68 699 l 215 699 l 229 0 l 394 -6 l 410 699 l 578 699 l 553 868 l 410 868 l 410 1083 l 215 1088 l 215 868 l 42 868 z "},"‡":{"ha":638,"x_min":42,"x_max":596,"o":"m 596 214 l 571 383 l 421 383 l 421 699 l 596 699 l 571 868 l 421 868 l 426 1083 l 215 1088 l 222 868 l 42 868 l 68 699 l 219 699 l 215 383 l 42 383 l 68 214 l 219 214 l 213 -8 l 424 1 l 417 214 l 596 214 z "},"•":{"ha":385,"x_min":42,"x_max":343,"o":"m 192 310 q 299 353 254 310 q 343 458 343 396 q 299 564 343 519 q 192 608 254 608 q 85 564 129 608 q 42 458 42 519 q 85 353 42 396 q 192 310 129 310 z "},"…":{"ha":749,"x_min":42,"x_max":707,"o":"m 136 0 q 202 26 175 0 q 229 92 229 53 q 202 158 229 131 q 136 186 175 186 q 69 158 97 186 q 42 92 42 131 q 69 26 42 53 q 136 0 97 0 m 378 0 q 442 26 415 0 q 469 92 469 53 q 442 158 469 131 q 378 186 415 186 q 310 158 338 186 q 283 92 283 131 q 310 26 283 53 q 378 0 338 0 m 614 0 q 680 26 653 0 q 707 92 707 53 q 680 158 707 131 q 614 186 653 186 q 549 158 576 186 q 522 92 522 131 q 549 26 522 53 q 614 0 576 0 z "},"‹":{"ha":324,"x_min":42,"x_max":296,"o":"m 296 242 l 183 340 l 296 439 l 264 567 l 42 374 l 42 307 l 264 115 l 296 242 z "},"›":{"ha":322,"x_min":28,"x_max":281,"o":"m 28 439 l 136 340 l 28 242 l 58 115 l 281 307 l 281 374 l 58 567 l 28 439 z "},"-":{"ha":461,"x_min":42,"x_max":419,"o":"m 57 310 l 419 310 l 406 451 l 42 451 l 57 310 z "},"_":{"ha":614,"x_min":42,"x_max":572,"o":"m 57 0 l 572 0 l 558 140 l 42 140 l 57 0 z "},"–":{"ha":614,"x_min":42,"x_max":572,"o":"m 57 310 l 572 310 l 558 451 l 42 451 l 57 310 z "},"—":{"ha":763,"x_min":42,"x_max":721,"o":"m 57 310 l 721 310 l 708 451 l 42 451 l 57 310 z "},"#":{"ha":811,"x_min":42,"x_max":769,"o":"m 371 567 l 407 718 l 253 722 l 217 567 l 42 567 l 57 432 l 185 432 l 150 276 l 42 276 l 57 143 l 119 143 l 85 -14 l 238 -21 l 275 143 l 442 143 l 407 -14 l 561 -21 l 597 143 l 769 143 l 756 276 l 628 276 l 664 432 l 769 432 l 756 567 l 694 567 l 728 718 l 572 722 l 538 567 l 371 567 m 307 276 l 342 432 l 507 432 l 471 276 l 307 276 z "},"%":{"ha":1294,"x_min":35,"x_max":1260,"o":"m 528 -6 l 942 981 l 760 986 l 346 0 l 528 -6 m 35 740 q 67 615 35 669 q 153 533 100 561 q 265 504 206 504 q 378 533 325 504 q 463 617 431 563 q 496 740 496 671 q 464 865 496 811 q 378 947 432 918 q 265 975 325 975 q 153 946 206 975 q 67 863 100 917 q 35 740 35 810 m 186 742 q 210 817 186 789 q 265 844 233 844 q 323 817 300 844 q 346 739 346 789 q 322 662 346 690 q 265 633 297 633 q 208 661 229 633 q 186 742 186 689 m 801 235 q 834 110 801 164 q 919 28 867 57 q 1032 0 972 0 q 1143 29 1090 0 q 1228 113 1196 58 q 1260 236 1260 167 q 1228 361 1260 308 q 1144 442 1196 414 q 1032 469 1092 469 q 919 441 972 469 q 834 359 867 413 q 801 235 801 306 m 951 238 q 976 313 951 285 q 1032 340 1000 340 q 1088 312 1065 340 q 1111 235 1111 283 q 1088 157 1111 186 q 1032 128 1064 128 q 974 156 996 128 q 951 238 951 185 z "},"+":{"ha":747,"x_min":42,"x_max":706,"o":"m 465 738 l 296 742 l 296 450 l 42 450 l 53 313 l 296 313 l 296 11 l 465 6 l 465 313 l 706 313 l 692 450 l 465 450 l 465 738 z "},"÷":{"ha":707,"x_min":42,"x_max":665,"o":"m 351 500 q 428 531 396 500 q 460 606 460 563 q 428 683 460 651 q 351 714 396 714 q 276 683 307 714 q 244 606 244 651 q 276 531 244 563 q 351 500 307 500 m 54 310 l 665 310 l 650 451 l 42 451 l 54 310 m 351 33 q 428 65 396 33 q 460 140 460 97 q 428 217 460 186 q 351 249 396 249 q 276 217 307 249 q 244 140 244 186 q 276 65 244 97 q 351 33 307 33 z "},"×":{"ha":790,"x_min":42,"x_max":749,"o":"m 542 40 l 393 231 l 228 40 l 42 40 l 310 357 l 64 672 l 249 672 l 397 482 l 563 672 l 749 672 l 481 356 l 726 40 l 542 40 z "},"±":{"ha":651,"x_min":42,"x_max":610,"o":"m 407 738 l 253 742 l 253 538 l 42 538 l 56 414 l 253 414 l 253 201 l 407 194 l 407 414 l 610 414 l 597 538 l 407 538 l 407 738 m 56 0 l 610 0 l 604 125 l 46 125 l 56 0 z "},"<":{"ha":483,"x_min":42,"x_max":456,"o":"m 456 504 l 424 653 l 42 381 l 42 300 l 424 26 l 456 176 l 222 340 l 456 504 z "},"=":{"ha":717,"x_min":42,"x_max":675,"o":"m 57 432 l 675 432 l 663 567 l 42 567 l 57 432 m 57 143 l 675 143 l 663 276 l 42 276 l 57 143 z "},">":{"ha":483,"x_min":28,"x_max":442,"o":"m 28 504 l 261 340 l 28 176 l 60 26 l 442 300 l 442 381 l 60 653 l 28 504 z "},"°":{"ha":360,"x_min":14,"x_max":346,"o":"m 181 1006 q 63 959 113 1006 q 14 847 14 913 q 63 735 14 781 q 181 690 113 690 q 297 735 247 690 q 346 847 346 781 q 323 926 346 890 q 262 984 300 963 q 181 1006 224 1006 m 235 843 q 219 806 235 822 q 181 789 203 789 q 143 807 160 789 q 126 847 126 825 q 143 884 126 868 q 181 900 160 900 q 219 883 203 900 q 235 843 235 865 z "},"¹":{"ha":429,"x_min":14,"x_max":339,"o":"m 232 1060 l 14 964 l 78 849 l 175 893 l 175 468 l 339 468 l 339 1060 l 232 1060 z "},"²":{"ha":517,"x_min":18,"x_max":489,"o":"m 243 1071 q 18 1011 124 1071 l 79 894 q 233 938 163 938 q 285 922 265 938 q 304 883 304 906 q 285 805 304 838 q 225 738 267 772 l 35 582 l 35 468 l 489 468 l 469 593 l 254 593 l 328 653 q 439 770 406 718 q 472 883 472 822 q 447 972 472 929 q 369 1043 421 1015 q 243 1071 318 1071 z "},"³":{"ha":515,"x_min":0,"x_max":474,"o":"m 242 1071 q 129 1051 182 1071 q 21 996 76 1032 l 86 883 q 147 923 118 910 q 217 936 176 936 q 294 886 294 936 q 199 810 294 810 l 131 810 l 149 685 l 192 685 q 276 661 247 685 q 306 592 306 638 q 279 540 306 561 q 208 519 253 519 q 144 530 172 519 q 69 568 115 540 l 0 453 q 107 404 46 421 q 228 388 168 388 q 357 415 301 388 q 443 488 413 442 q 474 593 474 535 q 458 667 474 633 q 420 723 443 701 q 376 750 397 744 q 435 803 408 764 q 463 888 463 843 q 406 1019 463 967 q 242 1071 349 1071 z "},"¼":{"ha":1274,"x_min":14,"x_max":1246,"o":"m 14 964 l 78 849 l 175 893 l 175 468 l 339 468 l 339 1060 l 232 1060 l 14 964 m 1058 972 l 863 972 l 49 -186 l 243 -186 l 1058 972 m 1119 21 l 1119 447 l 1006 447 l 663 21 l 679 -112 l 954 -112 l 954 -229 l 1119 -229 l 1119 -112 l 1231 -112 l 1246 21 l 1119 21 m 954 169 l 954 21 l 831 21 l 954 169 z "},"½":{"ha":1288,"x_min":14,"x_max":1260,"o":"m 232 1060 l 14 964 l 78 849 l 175 893 l 175 468 l 339 468 l 339 1060 l 232 1060 m 243 -186 l 1058 972 l 863 972 l 49 -186 l 243 -186 m 1014 450 q 789 390 894 450 l 850 274 q 1004 317 933 317 q 1055 296 1035 317 q 1075 251 1075 275 q 1058 181 1075 207 q 996 117 1040 154 l 806 -39 l 806 -153 l 1260 -153 l 1240 -28 l 1025 -28 l 1099 32 q 1210 149 1176 97 q 1243 263 1243 201 q 1217 351 1243 308 q 1140 422 1192 394 q 1014 450 1089 450 z "},"¾":{"ha":1251,"x_min":0,"x_max":1224,"o":"m 242 1071 q 129 1051 182 1071 q 21 996 76 1032 l 86 883 q 147 923 118 910 q 217 936 176 936 q 294 886 294 936 q 199 810 294 810 l 131 810 l 149 685 l 192 685 q 276 661 247 685 q 306 592 306 638 q 279 540 306 561 q 208 519 253 519 q 144 530 172 519 q 69 568 115 540 l 0 453 q 107 404 46 421 q 228 388 168 388 q 357 415 301 388 q 443 488 413 442 q 474 593 474 535 q 458 667 474 633 q 420 723 443 701 q 376 750 397 744 q 435 803 408 764 q 463 888 463 843 q 406 1019 463 967 q 242 1071 349 1071 m 297 -186 l 1113 972 l 917 972 l 103 -186 l 297 -186 m 640 21 l 658 -112 l 933 -112 l 933 -229 l 1099 -229 l 1099 -112 l 1210 -112 l 1224 21 l 1099 21 l 1099 447 l 985 447 l 640 21 m 933 21 l 807 21 l 933 169 l 933 21 z "},"℮":{"ha":715,"x_min":35,"x_max":681,"o":"m 681 339 q 647 517 681 438 q 544 644 614 597 q 374 692 475 692 q 193 648 269 692 q 76 524 117 604 q 35 336 35 443 q 134 77 35 171 q 425 -17 233 -17 q 567 5 507 -17 q 678 67 626 26 l 625 197 q 529 153 574 168 q 429 138 485 138 q 287 175 333 138 q 226 283 240 213 l 681 283 l 681 339 m 228 404 q 276 503 239 469 q 369 538 314 538 q 460 504 425 538 q 510 404 496 471 l 228 404 z "},"∂":{"ha":789,"x_min":35,"x_max":754,"o":"m 158 1040 q 447 892 310 997 q 669 649 585 788 q 754 375 754 511 q 710 165 754 254 q 584 30 665 76 q 394 -17 503 -17 q 205 26 286 -17 q 79 149 124 69 q 35 336 35 229 q 78 523 35 442 q 201 648 122 604 q 381 692 279 692 q 418 689 393 692 q 89 910 293 824 l 158 1040 m 394 138 q 519 194 469 138 q 568 339 568 251 q 536 508 568 428 q 394 538 474 538 q 270 481 319 538 q 221 336 221 424 q 269 193 221 249 q 394 138 318 138 z "},"∏":{"ha":929,"x_min":118,"x_max":811,"o":"m 297 804 l 629 804 l 629 0 l 811 0 l 811 944 l 118 944 l 118 0 l 297 0 l 297 804 z "},"∑":{"ha":686,"x_min":42,"x_max":658,"o":"m 46 803 l 276 478 l 42 140 l 42 0 l 658 0 l 631 140 l 236 140 l 444 450 l 444 510 l 243 803 l 594 803 l 565 944 l 46 944 l 46 803 z "},"−":{"ha":665,"x_min":42,"x_max":624,"o":"m 54 310 l 624 310 l 607 451 l 42 451 l 54 310 z "},"√":{"ha":875,"x_min":14,"x_max":861,"o":"m 201 446 l 14 440 l 250 0 l 447 -6 l 861 981 l 675 986 l 340 193 l 201 446 z "},"∞":{"ha":1146,"x_min":35,"x_max":1111,"o":"m 340 650 q 184 609 254 650 q 74 497 114 568 q 35 340 35 425 q 74 189 35 256 q 185 85 114 122 q 343 47 256 47 q 466 78 410 47 q 564 160 522 110 q 674 79 611 108 q 806 50 736 50 q 962 91 892 50 q 1072 203 1032 132 q 1111 358 1111 274 q 1072 511 1111 444 q 961 615 1032 578 q 803 651 890 651 q 681 621 738 651 q 583 540 624 590 q 473 621 536 592 q 340 650 410 650 m 635 301 q 698 451 653 397 q 803 504 743 504 q 910 463 868 504 q 953 361 953 421 q 910 247 953 294 q 803 199 868 199 q 706 228 751 200 q 635 301 661 256 m 511 400 q 448 248 493 301 q 343 194 403 194 q 235 237 278 194 q 193 339 193 279 q 235 452 193 404 q 343 500 278 500 q 439 471 393 499 q 511 400 485 443 z "},"∫":{"ha":586,"x_min":0,"x_max":586,"o":"m 382 815 q 465 933 382 933 q 532 917 497 933 l 586 1046 q 527 1076 564 1064 q 457 1088 490 1088 q 267 1022 333 1088 q 201 839 201 957 l 201 26 q 183 -62 201 -31 q 118 -93 164 -93 q 80 -86 101 -93 q 50 -76 58 -79 l 0 -206 q 58 -236 21 -224 q 128 -249 94 -249 q 317 -182 251 -249 q 382 3 382 -115 l 382 815 z "},"≈":{"ha":736,"x_min":42,"x_max":694,"o":"m 557 611 q 538 565 554 581 q 506 550 522 550 q 438 555 471 549 q 360 578 406 561 q 233 607 276 607 q 42 429 42 607 l 178 400 q 195 446 179 431 q 231 461 211 461 q 376 433 304 461 q 501 404 446 404 q 636 442 578 404 q 694 582 694 479 l 557 611 m 557 332 q 538 286 554 301 q 506 271 522 271 q 438 276 471 269 q 360 299 406 282 q 233 328 276 328 q 101 288 160 328 q 42 149 42 249 l 178 121 q 195 165 179 151 q 231 179 211 179 q 376 151 304 179 q 501 122 446 122 q 635 161 576 122 q 694 303 694 200 l 557 332 z "},"≠":{"ha":717,"x_min":42,"x_max":675,"o":"m 42 567 l 57 432 l 317 432 l 244 276 l 42 276 l 57 143 l 186 143 l 117 -14 l 278 -21 l 351 143 l 675 143 l 663 276 l 413 276 l 481 432 l 675 432 l 663 567 l 539 567 l 607 718 l 443 722 l 374 567 l 42 567 z "},"≤":{"ha":511,"x_min":42,"x_max":483,"o":"m 483 561 l 454 714 l 42 490 l 42 379 l 454 157 l 483 308 l 246 435 l 483 561 m 51 0 l 481 0 l 474 125 l 43 125 l 51 0 z "},"≥":{"ha":513,"x_min":28,"x_max":471,"o":"m 28 561 l 265 435 l 28 308 l 58 157 l 471 379 l 471 490 l 58 714 l 28 561 m 38 0 l 467 0 l 458 125 l 29 125 l 38 0 z "},"‰":{"ha":1831,"x_min":35,"x_max":1796,"o":"m 531 -6 l 944 981 l 761 986 l 349 0 l 531 -6 m 265 975 q 153 946 206 975 q 67 863 100 917 q 35 740 35 810 q 67 615 35 669 q 153 533 100 561 q 265 504 206 504 q 378 533 325 504 q 463 617 431 563 q 496 740 496 671 q 464 865 496 811 q 378 947 432 918 q 265 975 325 975 m 265 844 q 323 817 300 844 q 346 739 346 789 q 322 662 346 690 q 265 633 297 633 q 208 661 229 633 q 186 742 186 689 q 210 817 186 789 q 265 844 233 844 m 1032 469 q 919 441 972 469 q 834 359 867 413 q 801 235 801 306 q 834 110 801 164 q 919 28 867 57 q 1032 0 972 0 q 1143 29 1090 0 q 1228 113 1196 58 q 1260 236 1260 167 q 1228 361 1260 308 q 1144 442 1196 414 q 1032 469 1092 469 m 1567 469 q 1453 441 1507 469 q 1367 359 1400 413 q 1335 235 1335 306 q 1367 110 1335 164 q 1453 28 1400 57 q 1567 0 1507 0 q 1676 30 1624 0 q 1763 113 1729 60 q 1796 236 1796 167 q 1763 361 1796 308 q 1678 442 1731 414 q 1567 469 1626 469 m 1032 340 q 1088 312 1065 340 q 1111 235 1111 283 q 1088 157 1111 186 q 1032 128 1064 128 q 974 156 996 128 q 951 238 951 185 q 976 313 951 285 q 1032 340 1000 340 m 1567 340 q 1622 313 1600 340 q 1644 235 1644 285 q 1622 157 1644 186 q 1567 128 1599 128 q 1507 156 1529 128 q 1485 238 1485 183 q 1510 313 1485 285 q 1567 340 1535 340 z "},"⁄":{"ha":631,"x_min":14,"x_max":617,"o":"m 201 -6 l 617 981 l 428 986 l 14 0 l 201 -6 z "},"◊":{"ha":807,"x_min":42,"x_max":765,"o":"m 765 442 l 440 833 l 368 833 l 42 442 l 42 390 l 368 0 l 440 0 l 765 390 l 765 442 m 403 199 l 222 417 l 403 635 l 585 417 l 403 199 z "},"©":{"ha":1143,"x_min":35,"x_max":1108,"o":"m 1108 467 q 1042 737 1108 615 q 853 928 975 858 q 571 999 732 999 q 288 928 410 999 q 101 737 167 858 q 35 467 35 615 q 101 198 35 319 q 288 6 167 76 q 571 -64 410 -64 q 853 6 732 -64 q 1042 198 975 76 q 1108 467 1108 319 m 150 468 q 201 688 150 590 q 349 840 253 785 q 571 896 444 896 q 794 840 699 896 q 940 688 889 785 q 992 468 992 590 q 940 249 992 346 q 794 96 889 151 q 571 40 699 40 q 349 96 444 40 q 201 249 253 151 q 150 468 150 346 m 597 142 q 704 158 643 142 q 804 206 765 175 l 756 340 q 673 306 706 317 q 600 296 640 296 q 499 341 536 296 q 463 468 463 386 q 499 592 463 547 q 600 638 536 638 q 674 628 640 638 q 756 594 707 618 l 804 731 q 701 776 761 758 q 597 793 640 793 q 433 753 506 793 q 318 639 360 713 q 276 468 276 565 q 363 230 276 318 q 597 142 449 142 z "},"®":{"ha":1018,"x_min":35,"x_max":983,"o":"m 983 676 q 925 917 983 810 q 759 1087 867 1025 q 508 1149 651 1149 q 259 1087 367 1149 q 93 917 151 1025 q 35 676 35 810 q 93 439 35 546 q 259 270 151 332 q 508 208 367 208 q 759 270 651 208 q 925 439 867 332 q 983 676 983 546 m 143 678 q 187 870 143 786 q 313 1001 231 954 q 508 1049 396 1049 q 703 1001 619 1049 q 831 870 786 954 q 875 678 875 786 q 831 488 875 572 q 703 356 786 404 q 508 307 619 307 q 313 356 396 307 q 187 488 231 404 q 143 678 143 572 m 639 646 q 705 702 681 667 q 729 786 729 738 q 672 906 729 865 q 525 946 615 946 l 317 946 l 317 422 l 444 422 l 444 621 l 519 621 l 606 422 l 749 422 l 639 646 m 492 840 q 571 828 546 840 q 596 781 596 817 q 569 736 596 749 q 493 724 543 724 l 444 724 l 444 840 l 492 840 z "},"™":{"ha":1063,"x_min":14,"x_max":1014,"o":"m 14 844 l 176 844 l 176 424 l 303 424 l 303 844 l 485 844 l 467 944 l 14 944 l 14 844 m 885 424 l 1014 424 l 1014 944 l 954 944 l 782 718 l 592 944 l 528 944 l 528 424 l 657 424 l 657 679 l 765 560 l 804 567 l 885 663 l 885 424 z "},"&":{"ha":949,"x_min":49,"x_max":914,"o":"m 694 896 q 569 947 638 928 q 436 967 501 967 q 283 931 350 967 q 180 834 217 894 q 143 701 143 774 q 182 572 143 629 q 85 449 121 519 q 49 306 49 378 q 97 131 49 203 q 230 23 146 60 q 418 -15 314 -14 q 576 8 504 -15 q 700 76 647 32 l 806 -21 l 914 114 l 804 210 q 868 471 860 333 l 706 536 q 665 335 700 419 l 443 536 q 356 628 383 589 q 329 708 329 668 q 358 781 329 751 q 438 810 388 810 q 538 794 492 810 q 633 751 583 779 l 694 896 m 571 194 q 418 147 506 147 q 290 188 342 147 q 239 307 239 228 q 296 446 240 382 l 571 194 z "},"@":{"ha":1063,"x_min":35,"x_max":1028,"o":"m 613 603 q 454 566 528 603 q 335 463 381 529 q 290 310 290 396 q 353 144 290 206 q 538 83 415 83 q 597 93 567 83 q 654 117 628 103 q 764 82 700 82 q 900 122 840 82 q 994 238 960 161 q 1028 426 1028 315 q 970 637 1028 543 q 810 784 913 731 q 583 838 708 838 q 296 767 421 838 q 103 575 171 696 q 35 313 35 454 q 101 80 35 182 q 273 -78 167 -22 q 496 -135 379 -135 q 649 -123 579 -135 q 786 -76 718 -111 l 742 61 q 510 11 644 11 q 353 48 425 11 q 238 153 281 85 q 194 313 194 222 q 249 512 194 425 q 394 646 304 599 q 582 693 483 693 q 734 658 667 693 q 840 561 801 624 q 878 419 878 499 q 863 317 878 361 q 823 249 847 272 q 772 225 799 225 q 751 238 761 225 q 742 269 742 250 l 774 540 l 724 603 l 613 603 m 593 289 q 574 244 590 263 q 535 225 558 225 q 470 250 492 225 q 449 310 449 275 q 497 425 449 382 q 617 468 546 468 l 593 289 z "},"^":{"ha":631,"x_min":14,"x_max":617,"o":"m 617 199 l 371 542 l 261 542 l 14 199 l 201 199 l 315 358 l 431 199 l 617 199 z "},"~":{"ha":665,"x_min":42,"x_max":624,"o":"m 203 239 q 216 278 204 264 q 239 292 228 292 q 288 287 268 292 q 333 271 308 282 q 388 253 364 258 q 449 247 413 247 q 574 305 524 247 q 624 481 624 363 l 463 481 q 450 441 461 454 q 425 428 439 428 q 378 433 399 428 q 332 447 358 438 q 277 465 301 460 q 217 471 253 471 q 92 413 142 471 q 42 239 42 356 l 203 239 z "},"§":{"ha":835,"x_min":49,"x_max":800,"o":"m 800 358 q 772 244 800 296 q 689 158 743 193 q 697 94 697 129 q 656 -40 697 18 q 535 -132 615 -99 q 344 -165 456 -165 q 199 -140 286 -165 q 65 -85 113 -114 l 106 61 q 222 15 157 35 q 342 -6 288 -6 q 468 21 425 -6 q 511 97 511 47 q 477 160 511 132 q 372 228 443 189 l 331 253 q 183 349 238 308 q 88 444 128 389 q 49 567 49 499 q 78 681 49 629 q 161 767 107 732 q 151 831 151 801 q 190 960 151 903 q 302 1051 229 1018 q 476 1083 375 1083 q 743 1013 596 1083 l 683 868 q 580 911 626 896 q 479 926 533 926 q 377 902 417 926 q 338 831 338 878 q 369 763 338 790 q 471 694 400 736 l 515 669 l 556 646 q 686 563 638 599 q 767 477 735 528 q 800 358 800 426 m 235 567 q 266 499 235 526 q 368 431 297 472 l 413 406 l 457 379 q 586 296 543 329 q 614 361 614 321 q 580 424 614 396 q 475 492 546 453 l 433 517 q 264 631 318 585 q 235 567 235 606 z "},"ª":{"ha":454,"x_min":35,"x_max":419,"o":"m 90 821 q 157 841 121 832 q 221 850 193 850 q 282 800 274 850 l 206 800 q 83 760 131 801 q 35 651 35 719 q 76 544 35 585 q 196 504 117 504 q 259 518 226 504 q 318 551 292 532 l 351 515 l 419 515 l 419 810 q 367 929 419 883 q 219 975 315 975 q 133 963 178 975 q 58 935 88 950 l 90 821 m 168 660 q 179 683 168 674 q 211 692 190 692 l 286 692 l 286 654 q 201 629 250 629 q 176 638 185 629 q 168 660 168 646 z "},"¬":{"ha":714,"x_min":14,"x_max":672,"o":"m 25 422 l 521 422 l 521 163 l 672 156 l 672 494 l 661 564 l 14 564 l 25 422 z "},"¶":{"ha":1264,"x_min":35,"x_max":1229,"o":"m 917 803 l 917 0 l 1099 0 l 1099 803 l 1229 803 l 1229 944 l 407 944 q 138 870 242 944 q 35 642 35 796 q 88 468 35 539 q 228 363 140 397 q 422 329 317 329 l 454 329 l 454 0 l 636 0 l 636 803 l 917 803 z "},"º":{"ha":535,"x_min":35,"x_max":500,"o":"m 267 975 q 97 912 160 975 q 35 740 35 849 q 94 568 35 631 q 260 504 153 506 q 435 568 369 506 q 500 738 500 631 q 439 911 500 847 q 267 975 378 975 m 269 850 q 330 822 313 850 q 347 736 347 793 q 263 628 347 628 q 205 656 222 628 q 188 740 188 683 q 269 850 188 850 z "},"Ģ":{"ha":875,"x_min":49,"x_max":813,"o":"m 651 147 q 514 132 578 132 q 369 173 432 132 q 271 291 306 214 q 236 469 236 368 q 277 658 236 581 q 388 774 318 735 q 543 813 457 813 q 620 806 589 813 q 704 785 651 800 q 742 774 703 786 l 799 903 q 667 949 742 933 q 540 964 592 964 q 288 900 400 964 q 112 723 175 836 q 49 468 49 610 q 106 221 49 332 q 269 45 163 110 q 518 -19 375 -19 q 678 0 601 -19 q 813 50 754 19 l 813 517 l 468 517 l 453 378 l 651 378 l 651 147 m 522 -29 q 450 -61 481 -29 q 419 -132 419 -93 q 445 -201 419 -169 q 497 -232 471 -232 q 467 -280 489 -258 q 425 -310 446 -301 l 464 -394 q 579 -295 533 -361 q 625 -154 625 -229 q 595 -65 625 -100 q 522 -29 565 -29 z "},"Ķ":{"ha":914,"x_min":118,"x_max":900,"o":"m 299 296 l 299 0 l 118 0 l 118 944 l 299 944 l 299 549 l 708 965 l 842 863 l 517 524 l 900 0 l 676 0 l 392 393 l 299 296 m 497 -29 q 425 -61 456 -29 q 394 -132 394 -93 q 420 -201 394 -169 q 472 -232 446 -232 q 442 -280 464 -258 q 400 -310 421 -301 l 439 -394 q 554 -295 508 -361 q 600 -154 600 -229 q 570 -65 600 -100 q 497 -29 540 -29 z "},"Ļ":{"ha":756,"x_min":118,"x_max":742,"o":"m 297 944 l 118 944 l 118 0 l 742 0 l 714 140 l 297 140 l 297 944 m 515 -29 q 443 -61 474 -29 q 413 -132 413 -93 q 438 -201 413 -169 q 490 -232 464 -232 q 460 -280 482 -258 q 418 -310 439 -301 l 457 -394 q 572 -295 526 -361 q 618 -154 618 -229 q 588 -65 618 -100 q 515 -29 558 -29 z "},"Ņ":{"ha":1033,"x_min":118,"x_max":915,"o":"m 735 0 l 915 0 l 915 944 l 735 944 l 735 314 l 297 944 l 118 944 l 118 0 l 297 0 l 297 632 l 735 0 m 532 -29 q 460 -61 490 -29 q 429 -132 429 -93 q 455 -201 429 -169 q 507 -232 481 -232 q 477 -280 499 -258 q 435 -310 456 -301 l 474 -394 q 589 -295 543 -361 q 635 -154 635 -229 q 605 -65 635 -100 q 532 -29 575 -29 z "},"Ŗ":{"ha":872,"x_min":118,"x_max":858,"o":"m 297 0 l 297 358 l 467 358 l 667 0 l 858 0 l 626 406 q 744 506 700 442 q 788 654 788 569 q 683 870 788 796 q 414 944 578 944 l 118 944 l 118 0 l 297 0 m 408 794 q 597 646 597 794 q 547 540 597 574 q 411 506 496 506 l 297 506 l 297 794 l 408 794 m 486 -29 q 414 -61 444 -29 q 383 -132 383 -93 q 409 -201 383 -169 q 461 -232 435 -232 q 431 -280 453 -258 q 389 -310 410 -301 l 428 -394 q 543 -295 497 -361 q 589 -154 589 -229 q 559 -65 589 -100 q 486 -29 529 -29 z "},"Ț":{"ha":821,"x_min":14,"x_max":807,"o":"m 14 803 l 301 803 l 301 0 l 483 0 l 483 803 l 807 803 l 778 944 l 14 944 l 14 803 m 396 -29 q 324 -61 354 -29 q 293 -132 293 -93 q 319 -201 293 -169 q 371 -232 344 -232 q 341 -280 363 -258 q 299 -310 319 -301 l 338 -394 q 453 -295 407 -361 q 499 -154 499 -229 q 469 -65 499 -100 q 396 -29 439 -29 z "},"ģ":{"ha":789,"x_min":35,"x_max":704,"o":"m 375 750 q 301 786 332 750 q 271 876 271 822 q 317 1015 271 949 q 432 1117 364 1081 l 471 1031 q 430 1003 451 1025 q 400 954 408 982 q 433 940 415 954 q 465 901 451 925 q 478 854 478 878 q 447 783 478 815 q 375 750 417 750 m 704 -32 q 607 -245 704 -171 q 346 -319 510 -319 q 207 -298 294 -319 q 71 -243 119 -276 l 125 -115 q 239 -160 188 -146 q 342 -175 290 -174 q 473 -135 424 -174 q 522 -31 522 -96 l 522 29 q 374 -17 449 -17 q 126 78 217 -17 q 35 336 35 174 q 76 522 35 442 q 194 647 117 603 q 379 692 272 692 q 474 669 419 692 q 569 613 528 646 l 610 674 l 704 674 l 704 -32 m 381 138 q 451 151 417 138 q 522 193 485 165 l 522 481 q 453 524 486 511 q 381 538 419 538 q 264 481 307 538 q 221 336 221 425 q 263 192 221 247 q 381 138 306 138 z "},"ķ":{"ha":718,"x_min":90,"x_max":718,"o":"m 342 285 l 511 0 l 718 0 l 471 400 l 660 565 l 558 693 l 269 428 l 269 981 l 90 965 l 90 0 l 269 0 l 269 221 l 342 285 m 385 -29 q 313 -61 343 -29 q 282 -132 282 -93 q 308 -201 282 -169 q 360 -232 333 -232 q 330 -280 351 -258 q 288 -310 308 -301 l 326 -394 q 442 -295 396 -361 q 488 -154 488 -229 q 458 -65 488 -100 q 385 -29 428 -29 z "},"ļ":{"ha":360,"x_min":89,"x_max":294,"o":"m 90 965 l 90 0 l 269 0 l 269 981 l 90 965 m 192 -29 q 119 -61 150 -29 q 89 -132 89 -93 q 115 -201 89 -169 q 167 -232 140 -232 q 137 -280 158 -258 q 94 -310 115 -301 l 133 -394 q 249 -295 203 -361 q 294 -154 294 -229 q 265 -65 294 -100 q 192 -29 235 -29 z "},"ņ":{"ha":786,"x_min":76,"x_max":715,"o":"m 257 467 q 349 524 307 503 q 438 546 390 546 q 509 511 483 546 q 535 414 535 476 l 535 0 l 715 0 l 715 422 q 664 624 715 551 q 485 696 613 696 q 358 671 429 696 q 225 601 288 646 l 194 674 l 76 674 l 76 0 l 257 0 l 257 467 m 410 -29 q 338 -61 368 -29 q 307 -132 307 -93 q 333 -201 307 -169 q 385 -232 358 -232 q 355 -280 376 -258 q 313 -310 333 -301 l 351 -394 q 467 -295 421 -361 q 513 -154 513 -229 q 483 -65 513 -100 q 410 -29 453 -29 z "},"ŗ":{"ha":510,"x_min":68,"x_max":496,"o":"m 257 411 q 383 496 315 463 q 496 529 450 529 l 460 674 q 344 639 410 674 q 231 561 279 604 l 171 674 l 76 674 l 76 0 l 257 0 l 257 411 m 171 -29 q 99 -61 129 -29 q 68 -132 68 -93 q 94 -201 68 -169 q 146 -232 119 -232 q 116 -280 138 -258 q 74 -310 94 -301 l 113 -394 q 228 -295 182 -361 q 274 -154 274 -229 q 244 -65 274 -100 q 171 -29 214 -29 z "},"ț":{"ha":529,"x_min":14,"x_max":508,"o":"m 283 864 l 104 832 l 104 672 l 14 672 l 14 533 l 104 533 l 104 215 q 175 36 104 100 q 372 -28 246 -28 q 447 -15 406 -28 q 508 14 488 -3 l 456 144 q 382 126 418 126 q 309 160 335 126 q 283 247 283 193 l 283 533 l 461 533 l 406 672 l 283 672 l 283 864 m 318 -29 q 246 -61 276 -29 q 215 -132 215 -93 q 241 -201 215 -169 q 293 -232 267 -232 q 263 -280 285 -258 q 221 -310 242 -301 l 260 -394 q 375 -295 329 -361 q 421 -154 421 -229 q 391 -65 421 -100 q 318 -29 361 -29 z "},"அ":{"ha":1524,"x_min":35,"x_max":1406,"o":"m 1406 -175 l 1244 -175 l 1244 71 l 976 71 q 772 -128 910 -57 q 446 -200 635 -200 q 234 -169 328 -200 q 88 -85 140 -139 q 35 36 35 -32 q 88 154 35 111 q 256 197 142 197 l 850 197 q 864 311 864 257 q 794 523 864 442 q 608 604 725 604 l 585 603 q 644 543 622 579 q 665 461 665 507 q 608 320 665 375 q 463 265 551 265 q 314 319 372 265 q 256 457 256 374 q 301 601 256 538 q 426 701 346 665 q 608 738 507 738 q 828 682 732 738 q 979 529 925 626 q 1033 311 1033 432 q 1022 197 1033 256 l 1244 197 l 1244 713 l 1406 713 l 1406 -175 m 460 394 q 505 412 488 394 q 522 457 522 429 q 505 500 522 483 q 461 517 488 517 q 415 500 433 517 q 397 457 397 483 q 415 413 397 431 q 460 394 432 394 m 446 -67 q 647 -31 560 -67 q 786 71 733 6 l 249 71 q 203 36 203 71 q 270 -37 203 -7 q 446 -67 338 -67 z "},"ஆ":{"ha":1804,"x_min":35,"x_max":1790,"o":"m 1540 154 q 1722 85 1653 154 q 1790 -97 1790 17 q 1718 -317 1790 -219 q 1518 -469 1646 -414 q 1231 -524 1390 -524 q 1043 -495 1124 -524 q 919 -416 963 -467 q 876 -301 876 -365 q 937 -166 876 -218 q 1103 -114 997 -114 l 1132 -114 l 1132 -240 l 1103 -240 q 1052 -258 1072 -240 q 1032 -301 1032 -275 q 1089 -365 1032 -339 q 1231 -390 1146 -390 q 1433 -353 1343 -390 q 1572 -249 1522 -315 q 1622 -97 1622 -182 q 1595 -14 1622 -47 q 1522 19 1568 19 q 1439 -13 1472 19 q 1406 -92 1406 -46 l 1406 -175 l 1244 -175 l 1244 71 l 976 71 q 772 -128 910 -57 q 446 -200 635 -200 q 234 -169 328 -200 q 88 -85 140 -139 q 35 36 35 -32 q 88 154 35 111 q 256 197 142 197 l 850 197 q 864 311 864 257 q 794 523 864 442 q 608 604 725 604 l 585 603 q 644 543 622 579 q 665 461 665 507 q 608 320 665 375 q 463 265 551 265 q 314 319 372 265 q 256 457 256 374 q 301 601 256 538 q 426 701 346 665 q 608 738 507 738 q 828 682 732 738 q 979 529 925 626 q 1033 311 1033 432 q 1022 197 1033 256 l 1244 197 l 1244 713 l 1406 713 l 1406 119 q 1540 154 1467 154 m 460 394 q 505 412 488 394 q 522 457 522 429 q 505 500 522 483 q 461 517 488 517 q 415 500 433 517 q 397 457 397 483 q 415 413 397 431 q 460 394 432 394 m 446 -67 q 647 -31 560 -67 q 786 71 733 6 l 249 71 q 203 36 203 71 q 270 -37 203 -7 q 446 -67 338 -67 z "},"ஐ":{"ha":1125,"x_min":63,"x_max":1063,"o":"m 990 140 q 1031 44 1018 88 q 1043 -44 1043 0 q 1010 -168 1043 -114 q 915 -253 976 -222 q 775 -285 854 -285 q 658 -261 711 -285 q 571 -196 606 -237 q 475 -261 532 -237 q 350 -285 418 -285 q 202 -252 268 -285 q 99 -162 136 -219 q 63 -32 63 -104 q 438 281 63 231 l 688 314 q 847 375 800 329 q 894 493 893 421 q 867 572 894 540 q 794 604 840 604 q 703 568 735 604 q 671 476 671 532 l 671 381 l 510 381 l 510 476 q 473 569 510 533 q 367 604 436 604 q 283 583 321 604 q 374 531 340 572 q 408 432 408 489 q 358 325 408 368 q 233 282 307 282 q 111 332 160 282 q 63 456 63 382 q 101 601 63 536 q 210 701 140 665 q 367 738 279 738 q 490 711 432 738 q 589 638 547 685 q 681 711 628 685 q 794 738 735 738 q 932 706 871 738 q 1028 619 993 675 q 1063 493 1063 563 q 972 281 1063 363 q 688 174 882 200 l 438 140 q 277 80 324 125 q 231 -35 231 35 q 263 -118 231 -85 q 350 -151 296 -151 q 448 -115 408 -151 q 488 -24 488 -78 l 488 72 l 650 72 l 650 -24 q 685 -115 650 -78 q 775 -151 721 -151 q 848 -120 821 -151 q 875 -37 875 -89 q 863 41 875 -7 q 825 132 850 89 l 990 140 m 243 381 q 281 395 265 381 q 296 432 296 410 q 281 473 296 457 q 243 489 267 489 q 203 473 219 489 q 188 433 188 457 q 203 396 188 411 q 243 381 219 381 z "},"ஔ":{"ha":2915,"x_min":56,"x_max":2901,"o":"m 776 171 q 826 99 786 119 q 939 78 865 78 l 1054 78 l 1054 -49 l 939 -49 q 901 -47 914 -49 l 901 -57 q 864 -185 901 -129 q 756 -272 826 -240 q 589 -304 685 -304 q 422 -272 493 -304 q 314 -185 351 -240 q 276 -57 276 -129 l 276 0 l 438 0 l 438 -57 q 476 -139 438 -108 q 589 -169 515 -169 q 701 -139 663 -169 q 740 -57 740 -108 l 740 -3 q 653 85 683 31 q 624 210 624 139 l 624 374 l 772 374 q 797 310 774 335 q 857 286 821 286 q 911 316 889 286 q 933 392 933 346 q 885 502 933 453 q 753 579 838 551 q 564 607 669 607 q 333 560 431 607 q 204 438 236 514 q 325 479 254 479 q 467 430 411 479 q 522 303 522 381 q 463 169 522 222 q 314 117 404 117 q 126 186 196 117 q 56 369 56 256 q 119 561 56 476 q 299 694 183 646 q 564 742 415 742 q 840 697 718 742 q 1032 572 963 651 q 1101 392 1101 492 q 1070 269 1101 324 q 984 183 1039 214 q 861 153 929 153 q 776 171 817 153 m 318 375 q 263 354 285 375 q 240 301 240 333 q 262 248 240 269 q 317 226 283 226 q 372 248 350 226 q 393 303 393 269 q 372 354 393 333 q 318 375 350 375 m 2650 586 l 2650 0 l 2489 0 l 2489 586 l 2194 586 l 2194 0 l 2033 0 l 2033 317 q 1991 465 2033 399 q 1873 567 1949 531 q 1701 604 1797 604 q 1533 568 1604 604 q 1425 469 1463 532 q 1388 329 1388 407 q 1413 224 1388 269 q 1485 373 1419 315 q 1649 431 1551 431 q 1781 401 1722 431 q 1874 319 1840 371 q 1907 201 1907 267 q 1872 85 1907 136 q 1773 4 1836 33 q 1631 -25 1710 -25 q 1419 21 1513 -25 q 1272 147 1325 67 q 1219 329 1219 228 q 1279 540 1219 447 q 1448 685 1339 633 q 1701 738 1557 738 q 1889 703 1804 738 q 2033 608 1974 669 l 2033 713 l 2876 713 l 2901 586 l 2650 586 m 1651 303 q 1581 274 1608 303 q 1553 201 1553 246 q 1581 131 1553 158 q 1651 103 1608 103 q 1723 131 1694 103 q 1751 201 1751 158 q 1723 274 1751 244 q 1651 303 1694 303 z "},"ச":{"ha":990,"x_min":49,"x_max":956,"o":"m 699 304 l 699 285 q 656 125 699 196 q 534 15 613 54 q 350 -25 456 -25 q 190 5 258 -25 q 85 87 122 35 q 49 207 49 139 q 90 331 49 276 q 206 411 131 385 l 206 713 l 931 713 l 956 586 l 699 586 l 699 432 l 931 432 l 956 304 l 699 304 m 367 432 l 536 432 l 536 586 l 367 586 l 367 432 m 346 304 q 251 278 285 304 q 217 207 217 251 q 252 135 217 163 q 350 108 288 108 q 488 157 439 108 q 536 285 536 206 l 536 304 l 346 304 z "},"எ":{"ha":1272,"x_min":63,"x_max":1258,"o":"m 1007 585 l 1007 0 l 846 0 l 846 586 l 563 586 q 312 517 393 586 q 231 329 231 447 q 256 224 231 269 q 328 373 263 315 q 492 431 394 431 q 624 401 565 431 q 717 319 683 371 q 750 201 750 267 q 715 85 750 136 q 616 4 679 33 q 474 -25 553 -25 q 262 21 356 -25 q 115 147 168 67 q 63 329 63 228 q 117 528 63 442 q 282 664 172 615 q 550 713 392 713 l 1233 713 l 1258 585 l 1007 585 m 494 303 q 424 274 451 303 q 396 201 396 246 q 424 131 396 158 q 494 103 451 103 q 566 131 538 103 q 594 201 594 158 q 566 274 594 244 q 494 303 538 303 z "},"ஏ":{"ha":1272,"x_min":63,"x_max":1258,"o":"m 1007 585 l 1007 24 q 990 -115 1007 -65 q 913 -185 972 -165 l 372 -347 l 311 -224 l 775 -78 q 833 -31 821 -64 q 846 76 846 1 l 846 586 l 563 586 q 312 517 393 586 q 231 329 231 447 q 256 224 231 269 q 328 373 263 315 q 492 431 394 431 q 624 401 565 431 q 717 319 683 371 q 750 201 750 267 q 715 85 750 136 q 616 4 679 33 q 474 -25 553 -25 q 262 21 356 -25 q 115 147 168 67 q 63 329 63 228 q 117 528 63 442 q 282 664 172 615 q 550 713 392 713 l 1233 713 l 1258 585 l 1007 585 m 494 303 q 424 274 451 303 q 396 201 396 246 q 424 131 396 158 q 494 103 451 103 q 566 131 538 103 q 594 201 594 158 q 566 274 594 244 q 494 303 538 303 z "},"ஹ":{"ha":2347,"x_min":63,"x_max":2285,"o":"m 1946 738 q 2131 685 2054 738 q 2246 540 2207 633 q 2285 326 2285 447 q 2165 -101 2285 57 q 1796 -260 2044 -260 l 436 -260 q 194 -337 246 -260 l 63 -256 q 182 -167 90 -200 q 418 -133 274 -133 l 1796 -133 q 2037 -9 1958 -133 q 2115 326 2115 115 q 2075 530 2115 456 q 1946 604 2035 604 q 1833 549 1872 604 q 1794 394 1794 494 l 1794 0 l 1633 0 l 1633 378 q 1592 538 1633 472 q 1478 604 1551 604 q 1384 552 1415 604 q 1353 403 1353 500 l 1353 0 l 813 0 l 813 126 q 876 354 876 233 q 796 535 876 467 q 557 604 715 604 q 384 568 458 604 q 270 469 310 532 q 231 329 231 407 q 256 224 231 269 q 328 373 263 315 q 492 431 394 431 q 624 401 565 431 q 717 319 683 371 q 750 201 750 267 q 715 85 750 136 q 616 4 679 33 q 474 -25 553 -25 q 262 21 356 -25 q 115 147 168 67 q 63 329 63 228 q 125 540 63 447 q 300 685 188 633 q 557 738 413 738 q 808 688 697 738 q 983 551 919 639 q 1046 354 1046 464 q 989 126 1046 232 l 1192 126 l 1192 431 q 1224 589 1192 519 q 1318 698 1257 658 q 1463 738 1379 738 q 1599 706 1539 738 q 1700 617 1660 675 q 1807 706 1743 675 q 1946 738 1871 738 m 494 303 q 424 274 451 303 q 396 201 396 246 q 424 131 396 158 q 494 103 451 103 q 566 131 538 103 q 594 201 594 158 q 566 274 594 244 q 494 303 538 303 z "},"இ":{"ha":1481,"x_min":35,"x_max":1363,"o":"m 768 988 q 1078 924 943 988 q 1288 750 1214 861 q 1363 497 1363 639 l 1363 -206 l 1201 -206 l 1201 494 q 1148 681 1201 599 q 996 808 1094 763 q 768 854 897 854 q 501 806 611 854 q 334 671 390 757 q 278 472 278 585 q 350 179 278 315 q 607 211 469 211 q 814 186 719 211 q 869 432 869 300 q 824 557 869 510 q 696 604 779 604 l 683 604 q 744 544 722 581 q 765 461 765 507 q 708 320 765 375 q 563 265 651 265 q 414 319 472 265 q 356 457 356 374 q 398 601 356 538 q 517 701 440 665 q 696 738 594 738 q 873 699 799 738 q 986 590 947 660 q 1025 432 1025 521 q 950 136 1025 279 q 1082 30 1035 92 q 1129 -107 1129 -32 q 1069 -228 1129 -181 q 918 -275 1010 -275 q 583 -204 744 -275 q 246 -275 424 -275 q 94 -228 153 -275 q 35 -107 35 -181 q 81 23 35 -36 q 211 126 128 82 q 122 472 122 289 q 199 739 122 622 q 421 922 275 856 q 768 988 567 988 m 560 381 q 615 402 593 381 q 636 457 636 424 q 615 510 636 489 q 561 531 593 531 q 506 510 528 531 q 483 457 483 489 q 505 402 483 424 q 560 381 526 381 m 607 78 q 432 63 515 78 q 583 -61 499 -12 q 736 67 671 -11 q 607 78 672 78 m 960 -94 q 874 21 960 -25 q 726 -121 810 -60 q 881 -142 801 -142 q 938 -128 915 -142 q 960 -94 960 -114 m 283 -142 q 436 -122 361 -142 q 289 15 351 -61 q 203 -94 203 -31 q 226 -128 203 -114 q 283 -142 249 -142 z "},"ஈ":{"ha":1118,"x_min":118,"x_max":1104,"o":"m 279 586 l 279 0 l 118 0 l 118 713 l 1079 713 l 1104 585 l 778 585 l 778 0 l 617 0 l 617 586 l 279 586 m 446 194 q 517 222 489 194 q 544 292 544 249 q 517 361 544 333 q 446 389 489 389 q 377 361 404 389 q 350 292 350 333 q 377 222 350 249 q 446 194 404 194 m 944 194 q 1015 222 988 194 q 1043 292 1043 249 q 1015 361 1043 333 q 944 389 988 389 q 876 361 903 389 q 849 292 849 333 q 876 222 849 249 q 944 194 903 194 z "},"ஜ":{"ha":1125,"x_min":63,"x_max":1063,"o":"m 836 147 q 1004 88 946 147 q 1063 -69 1063 29 q 992 -222 1063 -162 q 800 -281 921 -281 l 681 -281 l 681 -154 l 800 -154 q 867 -131 840 -154 q 894 -69 894 -107 q 874 -10 894 -33 q 824 14 854 14 q 746 -14 779 14 q 664 -101 713 -42 q 578 -196 617 -160 q 483 -258 540 -232 q 350 -285 426 -285 q 202 -252 268 -285 q 99 -162 136 -219 q 63 -32 63 -104 q 438 281 63 231 l 688 314 q 847 375 800 329 q 894 493 893 421 q 867 572 894 540 q 794 604 840 604 q 703 568 735 604 q 671 476 671 532 l 671 381 l 510 381 l 510 476 q 473 569 510 533 q 367 604 436 604 q 283 583 321 604 q 374 531 340 572 q 408 432 408 489 q 358 325 408 368 q 233 282 307 282 q 111 332 160 282 q 63 456 63 382 q 101 601 63 536 q 210 701 140 665 q 367 738 279 738 q 490 711 432 738 q 589 638 547 685 q 681 711 628 685 q 794 738 735 738 q 932 706 871 738 q 1028 619 993 675 q 1063 493 1063 563 q 972 281 1063 363 q 688 174 882 200 l 438 140 q 277 81 324 125 q 231 -32 231 36 q 263 -117 231 -83 q 350 -151 296 -151 q 440 -120 399 -151 q 543 -24 482 -89 q 634 65 596 32 q 723 123 672 99 q 836 147 774 147 m 243 381 q 281 395 265 381 q 296 432 296 410 q 281 473 296 457 q 243 489 267 489 q 203 473 219 489 q 188 433 188 457 q 203 396 188 411 q 243 381 219 381 z "},"க":{"ha":1071,"x_min":49,"x_max":1036,"o":"m 736 432 q 956 369 875 432 q 1036 203 1036 306 q 998 85 1036 136 q 888 4 960 33 q 721 -25 817 -25 l 721 103 q 832 129 796 103 q 868 203 868 156 q 738 304 868 304 l 699 304 l 699 285 q 656 125 699 196 q 534 15 613 54 q 350 -25 456 -25 q 190 5 258 -25 q 85 87 122 35 q 49 207 49 139 q 90 331 49 276 q 206 411 131 385 l 206 713 l 931 713 l 956 586 l 699 586 l 699 432 l 736 432 m 367 432 l 536 432 l 536 586 l 367 586 l 367 432 m 346 304 q 251 278 285 304 q 217 207 217 251 q 252 135 217 163 q 350 108 288 108 q 488 157 439 108 q 536 285 536 206 l 536 304 l 346 304 z "},"ல":{"ha":1518,"x_min":63,"x_max":1456,"o":"m 1338 732 q 1426 530 1397 636 q 1456 336 1456 424 q 1376 73 1456 171 q 1138 -25 1296 -25 q 917 59 996 -25 q 839 290 839 143 l 839 354 q 762 536 839 468 q 550 604 685 604 q 379 568 451 604 q 269 469 307 532 q 231 329 231 407 q 256 224 231 269 q 328 373 263 315 q 492 431 394 431 q 624 401 565 431 q 717 319 683 371 q 750 201 750 267 q 715 85 750 136 q 616 4 679 33 q 474 -25 553 -25 q 262 21 356 -25 q 115 147 168 67 q 63 329 63 228 q 123 540 63 447 q 294 685 183 633 q 550 738 404 738 q 787 690 685 738 q 944 554 889 642 q 1000 354 1000 467 l 1000 290 q 1037 156 1000 203 q 1140 108 1074 108 q 1253 169 1218 108 q 1288 336 1288 231 q 1258 528 1288 422 q 1174 713 1228 633 l 1338 732 m 494 303 q 424 274 451 303 q 396 201 396 246 q 424 131 396 158 q 494 103 451 103 q 566 131 538 103 q 594 201 594 158 q 566 274 594 244 q 494 303 538 303 z "},"ள":{"ha":1758,"x_min":63,"x_max":1744,"o":"m 1493 586 l 1493 0 l 1332 0 l 1332 586 l 1038 586 l 1038 0 l 876 0 l 876 317 q 834 465 876 399 q 716 567 792 531 q 544 604 640 604 q 376 568 447 604 q 268 469 306 532 q 231 329 231 407 q 256 224 231 269 q 328 373 263 315 q 492 431 394 431 q 624 401 565 431 q 717 319 683 371 q 750 201 750 267 q 715 85 750 136 q 616 4 679 33 q 474 -25 553 -25 q 262 21 356 -25 q 115 147 168 67 q 63 329 63 228 q 122 540 63 447 q 291 685 182 633 q 544 738 400 738 q 732 703 647 738 q 876 608 817 669 l 876 713 l 1719 713 l 1744 586 l 1493 586 m 494 303 q 424 274 451 303 q 396 201 396 246 q 424 131 396 158 q 494 103 451 103 q 566 131 538 103 q 594 201 594 158 q 566 274 594 244 q 494 303 538 303 z "},"ழ":{"ha":1243,"x_min":118,"x_max":1181,"o":"m 699 -32 q 723 -109 699 -86 q 793 -132 747 -132 l 1000 -132 l 1025 -258 l 781 -258 q 666 -375 746 -331 q 485 -419 586 -419 q 328 -387 397 -419 q 220 -294 260 -354 q 181 -157 181 -235 l 343 -157 q 383 -249 343 -214 q 485 -285 424 -285 q 581 -264 544 -285 q 628 -211 618 -243 q 562 -150 586 -190 q 538 -56 538 -110 l 538 0 l 118 0 l 118 713 l 279 719 l 279 126 l 538 126 l 538 406 q 615 646 538 554 q 838 738 693 738 q 1018 685 940 738 q 1138 541 1096 633 q 1181 332 1181 449 q 1102 90 1181 179 q 867 0 1024 0 l 699 0 l 699 -32 m 867 126 q 983 178 953 126 q 1013 332 1013 229 q 965 528 1013 453 q 838 604 918 604 q 699 394 699 604 l 699 126 l 867 126 z "},"ம":{"ha":1243,"x_min":118,"x_max":1181,"o":"m 838 738 q 1018 685 940 738 q 1138 541 1096 633 q 1181 332 1181 449 q 1102 90 1181 179 q 867 0 1024 0 l 118 0 l 118 713 l 279 719 l 279 126 l 538 126 l 538 406 q 615 646 538 554 q 838 738 693 738 m 867 126 q 983 178 953 126 q 1013 332 1013 229 q 965 528 1013 453 q 838 604 918 604 q 699 394 699 604 l 699 126 l 867 126 z "},"ந":{"ha":1118,"x_min":118,"x_max":1056,"o":"m 776 481 q 924 435 860 481 q 1022 310 988 390 q 1056 131 1056 231 q 1012 -72 1056 17 q 885 -210 968 -160 q 689 -260 803 -260 l 492 -260 q 249 -337 303 -260 l 118 -256 q 231 -162 150 -192 q 472 -133 313 -133 l 689 -133 q 837 -61 786 -133 q 888 131 888 11 q 853 283 888 225 q 757 342 818 342 q 674 311 707 342 q 642 235 642 281 l 642 0 l 481 0 l 481 586 l 279 586 l 279 0 l 118 0 l 118 713 l 868 713 l 893 585 l 642 585 l 642 446 q 776 481 700 481 z "},"ங":{"ha":1443,"x_min":118,"x_max":1325,"o":"m 1325 0 l 481 0 l 481 126 l 690 126 q 815 165 772 126 q 857 267 857 203 q 830 350 857 317 q 757 383 803 383 q 674 351 707 383 q 642 272 642 318 l 642 222 l 481 222 l 481 586 l 279 586 l 279 0 l 118 0 l 118 713 l 868 713 l 893 585 l 642 585 l 642 485 q 776 518 704 518 q 958 449 889 518 q 1026 267 1026 381 q 985 126 1026 188 l 1164 126 l 1164 713 l 1325 713 l 1325 0 z "},"ண":{"ha":2492,"x_min":63,"x_max":2478,"o":"m 2226 586 l 2226 0 l 2065 0 l 2065 586 l 1943 586 q 1801 565 1865 586 q 1895 422 1863 501 q 1928 250 1928 342 q 1894 108 1928 171 q 1799 10 1860 46 q 1658 -25 1738 -25 q 1518 10 1579 -25 q 1422 108 1457 46 q 1388 250 1388 171 q 1427 423 1388 340 q 1539 569 1467 506 q 1363 604 1457 604 q 1174 563 1261 604 q 1294 417 1251 497 q 1336 250 1336 338 q 1301 108 1336 171 q 1206 10 1267 46 q 1065 -25 1144 -25 q 925 10 986 -25 q 830 108 864 46 q 796 250 796 171 q 829 410 796 332 q 924 551 863 488 q 653 604 796 604 q 428 568 524 604 q 281 468 332 532 q 231 324 231 404 q 254 221 231 268 q 328 372 261 313 q 492 431 394 431 q 624 401 565 431 q 717 319 683 371 q 750 201 750 267 q 715 85 750 136 q 616 4 679 33 q 474 -25 553 -25 q 262 19 356 -25 q 115 143 168 64 q 63 324 63 222 q 135 536 63 442 q 341 684 207 631 q 653 738 475 738 q 858 715 758 738 q 1042 649 957 692 q 1363 738 1189 738 q 1681 658 1542 738 q 1943 713 1800 713 l 2453 713 l 2478 586 l 2226 586 m 1760 250 q 1735 380 1760 319 q 1663 488 1710 440 q 1584 381 1611 442 q 1557 250 1557 321 q 1583 148 1557 188 q 1658 108 1610 108 q 1733 148 1707 108 q 1760 250 1760 188 m 1065 108 q 1140 148 1114 108 q 1167 250 1167 188 q 1137 371 1167 314 q 1053 474 1107 428 q 987 369 1010 426 q 964 250 964 313 q 991 149 964 189 q 1065 108 1018 108 m 494 303 q 424 274 451 303 q 396 201 396 246 q 424 131 396 158 q 494 103 451 103 q 566 131 538 103 q 594 201 594 158 q 566 274 594 244 q 494 303 538 303 z "},"ன":{"ha":1900,"x_min":63,"x_max":1886,"o":"m 1635 586 l 1635 0 l 1474 0 l 1474 586 l 1350 586 q 1181 556 1261 586 q 1295 413 1254 492 q 1336 250 1336 335 q 1301 108 1336 171 q 1206 10 1267 46 q 1065 -25 1144 -25 q 925 10 986 -25 q 830 108 864 46 q 796 250 796 171 q 830 412 796 335 q 926 550 864 489 q 653 604 801 604 q 428 568 524 604 q 281 468 332 532 q 231 324 231 404 q 254 221 231 268 q 328 372 261 313 q 492 431 394 431 q 624 401 565 431 q 717 319 683 371 q 750 201 750 267 q 715 85 750 136 q 616 4 679 33 q 474 -25 553 -25 q 262 19 356 -25 q 115 143 168 64 q 63 324 63 222 q 135 536 63 442 q 341 684 207 631 q 653 738 475 738 q 865 713 763 738 q 1054 642 967 688 q 1350 713 1188 713 l 1861 713 l 1886 586 l 1635 586 m 1065 108 q 1140 148 1114 108 q 1167 250 1167 188 q 1138 369 1167 313 q 1054 472 1108 426 q 988 372 1011 428 q 964 250 964 315 q 991 149 964 189 q 1065 108 1018 108 m 494 303 q 424 274 451 303 q 396 201 396 246 q 424 131 396 158 q 494 103 451 103 q 566 131 538 103 q 594 201 594 158 q 566 274 594 244 q 494 303 538 303 z "},"ஞ":{"ha":1808,"x_min":90,"x_max":1746,"o":"m 1465 481 q 1673 391 1600 481 q 1746 156 1746 301 q 1648 -128 1746 -7 q 1365 -317 1550 -250 q 928 -383 1181 -383 q 490 -308 679 -383 q 195 -93 300 -233 q 90 236 90 47 q 147 507 90 368 q 292 726 204 646 l 457 713 q 315 506 371 640 q 258 233 258 372 q 346 -24 258 85 q 586 -192 433 -133 q 928 -250 739 -250 q 1269 -202 1122 -250 q 1497 -63 1415 -154 q 1578 156 1578 28 q 1547 294 1578 242 q 1457 346 1517 346 q 1371 308 1406 346 q 1336 222 1336 269 l 1336 0 l 1175 0 l 1175 586 l 928 586 q 678 517 758 586 q 597 329 597 447 q 622 224 597 269 q 695 373 629 315 q 858 431 761 431 q 990 401 932 431 q 1082 319 1049 371 q 1115 201 1115 267 q 1080 85 1115 136 q 982 4 1044 33 q 840 -25 919 -25 q 628 21 722 -25 q 481 147 535 67 q 428 329 428 228 q 483 528 428 442 q 648 664 539 615 q 915 713 757 713 l 1563 713 l 1588 585 l 1336 585 l 1336 443 q 1465 481 1396 481 m 861 303 q 790 274 818 303 q 763 201 763 246 q 790 131 763 158 q 861 103 818 103 q 933 131 904 103 q 961 201 961 158 q 933 274 961 244 q 861 303 904 303 z "},"ஒ":{"ha":1157,"x_min":56,"x_max":1101,"o":"m 776 171 q 826 99 786 119 q 939 78 865 78 l 1054 78 l 1054 -49 l 939 -49 q 901 -47 914 -49 l 901 -57 q 864 -185 901 -129 q 756 -272 826 -240 q 589 -304 685 -304 q 422 -272 493 -304 q 314 -185 351 -240 q 276 -57 276 -129 l 276 0 l 438 0 l 438 -57 q 476 -139 438 -108 q 589 -169 515 -169 q 701 -139 663 -169 q 740 -57 740 -108 l 740 -3 q 653 85 683 31 q 624 210 624 139 l 624 374 l 772 374 q 797 310 774 335 q 857 286 821 286 q 911 316 889 286 q 933 392 933 346 q 885 502 933 453 q 753 579 838 551 q 564 607 669 607 q 333 560 431 607 q 204 438 236 514 q 325 479 254 479 q 467 430 411 479 q 522 303 522 381 q 463 169 522 222 q 314 117 404 117 q 126 186 196 117 q 56 369 56 256 q 119 561 56 476 q 299 694 183 646 q 564 742 415 742 q 840 697 718 742 q 1032 572 963 651 q 1101 392 1101 492 q 1070 269 1101 324 q 984 183 1039 214 q 861 153 929 153 q 776 171 817 153 m 318 375 q 263 354 285 375 q 240 301 240 333 q 262 248 240 269 q 317 226 283 226 q 372 248 350 226 q 393 303 393 269 q 372 354 393 333 q 318 375 350 375 z "},"ௐ":{"ha":1171,"x_min":56,"x_max":1101,"o":"m 776 171 q 826 99 786 119 q 939 78 865 78 l 1054 78 l 1054 -49 l 939 -49 q 901 -47 914 -49 l 901 -57 q 864 -185 901 -129 q 756 -272 826 -240 q 589 -304 685 -304 q 422 -272 493 -304 q 314 -185 351 -240 q 276 -57 276 -129 l 276 0 l 438 0 l 438 -57 q 476 -139 438 -108 q 589 -169 515 -169 q 701 -139 663 -169 q 740 -57 740 -108 l 740 -3 q 653 85 683 31 q 624 210 624 139 l 624 374 l 772 374 q 797 310 774 335 q 857 286 821 286 q 911 316 889 286 q 933 392 933 346 q 885 502 933 453 q 753 579 838 551 q 564 607 669 607 q 333 560 431 607 q 204 438 236 514 q 325 479 254 479 q 467 430 411 479 q 522 303 522 381 q 463 169 522 222 q 314 117 404 117 q 126 186 196 117 q 56 369 56 256 q 119 561 56 476 q 299 694 183 646 q 564 742 415 742 q 840 697 718 742 q 1032 572 963 651 q 1101 392 1101 492 q 1070 269 1101 324 q 984 183 1039 214 q 861 153 929 153 q 776 171 817 153 m 318 375 q 263 354 285 375 q 240 301 240 333 q 262 248 240 269 q 317 226 283 226 q 372 248 350 226 q 393 303 393 269 q 372 354 393 333 q 318 375 350 375 m 624 57 q 617 39 624 46 q 600 32 610 32 q 582 39 589 32 q 575 57 575 46 q 582 76 575 68 q 600 83 589 83 q 617 76 610 83 q 624 57 624 68 m 563 -65 l 583 -65 l 583 -31 q 597 8 583 -7 q 635 22 610 22 q 676 4 661 22 q 692 -43 692 -14 q 676 -87 692 -69 q 632 -104 660 -104 l 521 -104 l 521 19 l 563 19 l 563 -65 m 635 -65 q 650 -43 650 -65 q 636 -15 650 -15 q 625 -32 625 -15 l 625 -65 l 635 -65 z "},"ஓ":{"ha":1157,"x_min":56,"x_max":1101,"o":"m 776 171 q 826 99 786 119 q 939 78 865 78 l 1054 78 l 1054 -49 l 939 -49 l 910 -47 l 910 -57 q 865 -184 910 -128 q 740 -272 819 -240 q 560 -304 660 -304 q 396 -278 468 -304 q 283 -206 324 -253 q 242 -101 242 -160 q 301 31 242 -19 q 467 82 361 82 l 496 82 l 496 -44 l 467 -44 q 426 -61 442 -44 q 410 -101 410 -78 q 452 -150 410 -131 q 560 -169 494 -169 q 695 -137 642 -169 q 749 -57 749 -106 l 749 -7 q 656 81 689 26 q 624 210 624 136 l 624 374 l 772 374 q 797 310 774 335 q 857 286 821 286 q 911 316 889 286 q 933 392 933 346 q 885 502 933 453 q 753 579 838 551 q 564 607 669 607 q 333 560 431 607 q 204 438 236 514 q 325 479 254 479 q 467 430 411 479 q 522 303 522 381 q 463 169 522 222 q 314 117 404 117 q 126 186 196 117 q 56 369 56 256 q 119 561 56 476 q 299 694 183 646 q 564 742 415 742 q 840 697 718 742 q 1032 572 963 651 q 1101 392 1101 492 q 1070 269 1101 324 q 984 183 1039 214 q 861 153 929 153 q 776 171 817 153 m 318 375 q 263 354 285 375 q 240 301 240 333 q 262 248 240 269 q 317 226 283 226 q 372 248 350 226 q 393 303 393 269 q 372 354 393 333 q 318 375 350 375 z "},"ப":{"ha":1038,"x_min":118,"x_max":919,"o":"m 118 0 l 118 713 l 279 719 l 279 126 l 758 126 l 758 713 l 919 713 l 919 0 l 118 0 z "},"ர":{"ha":999,"x_min":118,"x_max":985,"o":"m 733 24 q 728 -72 733 -35 q 702 -139 722 -110 q 639 -185 682 -168 l 224 -347 l 163 -211 l 501 -78 q 549 -47 533 -65 q 568 -1 564 -28 q 572 76 572 25 l 572 586 l 279 586 l 279 0 l 118 0 l 118 713 l 960 713 l 985 585 l 733 585 l 733 24 z "},"ற":{"ha":1258,"x_min":104,"x_max":1196,"o":"m 857 738 q 1042 685 965 738 q 1157 540 1118 633 q 1196 326 1196 447 q 1076 -101 1196 57 q 707 -260 956 -260 l 478 -260 q 235 -337 289 -260 l 104 -256 q 224 -167 132 -200 q 460 -133 315 -133 l 707 -133 q 949 -9 869 -133 q 1028 326 1028 115 q 987 530 1028 456 q 857 604 946 604 q 744 549 783 604 q 706 394 706 494 l 706 0 l 544 0 l 544 378 q 504 538 544 472 q 390 604 464 604 q 265 403 265 604 l 265 0 l 104 0 l 104 431 q 176 652 104 567 q 374 738 249 738 q 510 706 449 738 q 611 617 571 674 q 718 706 654 675 q 857 738 782 738 z "},"ஸ":{"ha":1960,"x_min":63,"x_max":1897,"o":"m 1779 732 q 1868 530 1839 636 q 1897 336 1897 424 q 1817 73 1897 171 q 1578 -25 1738 -25 q 1358 58 1436 -25 q 1281 290 1281 142 l 1281 419 q 1154 604 1281 604 q 1039 536 1078 604 q 1000 354 1000 468 l 1000 0 l 839 0 l 839 354 q 762 536 839 468 q 550 604 685 604 q 379 568 451 604 q 269 469 307 532 q 231 329 231 407 q 256 224 231 269 q 328 373 263 315 q 492 431 394 431 q 624 401 565 431 q 717 319 683 371 q 750 201 750 267 q 715 85 750 136 q 616 4 679 33 q 474 -25 553 -25 q 262 21 356 -25 q 115 147 168 67 q 63 329 63 228 q 123 540 63 447 q 294 685 183 633 q 550 738 404 738 q 767 699 671 738 q 921 588 863 660 q 1022 698 960 658 q 1163 738 1083 738 q 1370 652 1299 738 q 1442 426 1442 567 l 1442 290 q 1478 156 1442 203 q 1582 108 1515 108 q 1693 169 1658 108 q 1728 336 1728 231 q 1699 528 1728 424 q 1614 713 1669 633 l 1779 732 m 494 303 q 424 274 451 303 q 396 201 396 246 q 424 131 396 158 q 494 103 451 103 q 566 131 538 103 q 594 201 594 158 q 566 274 594 244 q 494 303 538 303 z "},"ஶ":{"ha":1574,"x_min":104,"x_max":1511,"o":"m 1196 713 q 1432 623 1353 713 q 1511 382 1511 533 q 1469 172 1511 264 q 1348 27 1426 79 q 1167 -25 1269 -25 q 944 67 1022 -25 q 867 307 867 158 l 867 586 l 704 586 l 704 286 q 627 60 704 146 q 404 -25 550 -25 q 181 60 258 -25 q 104 286 104 146 l 104 713 l 265 719 l 265 294 q 297 157 265 206 q 404 108 328 108 q 510 157 479 108 q 542 294 542 206 l 542 713 l 1196 713 m 1167 108 q 1295 184 1249 108 q 1342 382 1342 260 q 1312 535 1342 483 q 1196 586 1282 586 l 1029 586 l 1029 319 q 1167 108 1029 108 z "},"ஷ":{"ha":2049,"x_min":63,"x_max":1931,"o":"m 1603 0 l 1603 -337 l 1442 -337 l 1442 0 l 813 0 l 813 126 q 876 354 876 233 q 796 535 876 467 q 557 604 715 604 q 384 568 458 604 q 270 469 310 532 q 231 329 231 407 q 256 224 231 269 q 328 373 263 315 q 492 431 394 431 q 624 401 565 431 q 717 319 683 371 q 750 201 750 267 q 715 85 750 136 q 616 4 679 33 q 474 -25 553 -25 q 262 21 356 -25 q 115 147 168 67 q 63 329 63 228 q 125 540 63 447 q 300 685 188 633 q 557 738 413 738 q 808 688 697 738 q 983 551 919 639 q 1046 354 1046 464 q 990 126 1046 233 l 1442 126 l 1442 260 q 1399 258 1428 258 q 1237 290 1307 258 q 1128 378 1167 322 q 1089 503 1089 435 q 1123 626 1089 572 q 1217 708 1157 679 q 1353 738 1276 738 q 1535 673 1468 738 q 1603 500 1603 608 l 1603 442 q 1769 586 1711 494 l 1931 586 l 1931 0 l 1603 0 m 1399 393 q 1442 396 1414 393 l 1442 493 q 1419 574 1442 544 q 1353 604 1396 604 q 1284 576 1310 604 q 1258 503 1258 549 q 1294 424 1258 456 q 1399 393 1331 393 m 1769 392 q 1603 296 1693 329 l 1603 126 l 1769 126 l 1769 392 m 494 303 q 424 274 451 303 q 396 201 396 246 q 424 131 396 158 q 494 103 451 103 q 566 131 538 103 q 594 201 594 158 q 566 274 594 244 q 494 303 538 303 z "},"த":{"ha":1097,"x_min":49,"x_max":1049,"o":"m 711 432 q 885 390 808 432 q 1006 272 963 347 q 1049 103 1049 197 q 996 -84 1049 -1 q 849 -213 943 -167 q 639 -260 756 -260 l 422 -260 q 181 -337 232 -260 l 49 -256 q 167 -167 75 -200 q 404 -133 260 -133 l 639 -133 q 763 -103 708 -133 q 849 -19 818 -72 q 881 103 881 35 q 833 247 881 190 q 713 304 786 304 l 699 304 l 699 285 q 656 125 699 196 q 534 15 613 54 q 350 -25 456 -25 q 190 5 258 -25 q 85 87 122 35 q 49 207 49 139 q 90 331 49 276 q 206 411 131 385 l 206 713 l 931 713 l 956 586 l 699 586 l 699 432 l 711 432 m 367 432 l 536 432 l 536 586 l 367 586 l 367 432 m 346 304 q 251 278 285 304 q 217 207 217 251 q 252 135 217 163 q 350 108 288 108 q 488 157 439 108 q 536 285 536 206 l 536 304 l 346 304 z "},"ட":{"ha":1014,"x_min":118,"x_max":1000,"o":"m 279 719 l 118 713 l 118 0 l 1000 0 l 975 126 l 279 126 l 279 719 z "},"உ":{"ha":1399,"x_min":35,"x_max":1385,"o":"m 1385 0 l 99 0 l 99 126 l 406 126 q 602 197 529 126 q 675 379 675 267 q 611 541 675 478 q 438 604 547 604 q 293 572 354 604 q 434 517 382 571 q 486 382 486 464 q 458 282 486 326 q 378 212 429 238 q 264 186 328 186 q 146 213 199 186 q 64 289 93 240 q 35 399 35 338 q 89 572 35 494 q 235 694 143 650 q 438 738 328 738 q 651 692 558 738 q 794 564 743 646 q 844 379 844 482 q 818 241 844 306 q 742 126 792 176 l 1385 126 l 1385 0 m 351 382 q 325 448 351 422 q 260 474 299 474 q 195 448 221 474 q 169 382 169 422 q 195 318 169 343 q 261 293 221 293 q 326 318 300 293 q 351 382 351 343 z "},"ஊ":{"ha":2253,"x_min":35,"x_max":2239,"o":"m 2239 0 l 99 0 l 99 126 l 406 126 q 602 197 529 126 q 675 379 675 267 q 611 541 675 478 q 438 604 547 604 q 293 572 354 604 q 434 517 382 571 q 486 382 486 464 q 458 282 486 326 q 378 212 429 238 q 264 186 328 186 q 146 213 199 186 q 64 289 93 240 q 35 399 35 338 q 89 572 35 494 q 235 694 143 650 q 438 738 328 738 q 651 692 558 738 q 794 564 743 646 q 844 379 844 482 q 818 240 844 304 q 742 126 792 175 l 2239 126 l 2239 0 m 1244 178 q 1077 211 1151 178 q 961 303 1003 244 q 919 435 919 361 q 963 591 919 522 q 1088 699 1007 660 q 1279 738 1169 738 q 1403 718 1344 738 q 1506 664 1461 699 l 1506 713 l 2161 713 l 2186 586 l 2019 586 l 2019 196 l 1858 196 l 1858 586 l 1667 586 l 1667 196 l 1506 196 l 1506 418 q 1476 513 1506 471 q 1395 580 1447 556 q 1279 604 1343 604 q 1140 557 1192 604 q 1088 435 1088 510 q 1100 374 1088 403 q 1151 480 1103 439 q 1272 521 1199 521 q 1408 476 1356 521 q 1461 361 1461 432 q 1402 229 1461 281 q 1244 178 1343 178 m 351 382 q 325 448 351 422 q 260 474 299 474 q 195 448 221 474 q 169 382 169 422 q 195 318 169 343 q 261 293 221 293 q 326 318 300 293 q 351 382 351 343 m 1267 417 q 1222 400 1239 417 q 1204 357 1204 383 q 1222 313 1204 331 q 1267 294 1239 294 q 1310 312 1293 294 q 1326 357 1326 329 q 1310 400 1326 383 q 1267 417 1293 417 z "},"வ":{"ha":1521,"x_min":63,"x_max":1403,"o":"m 1403 0 l 813 0 l 813 126 q 876 354 876 233 q 796 535 876 467 q 557 604 715 604 q 384 568 458 604 q 270 469 310 532 q 231 329 231 407 q 256 224 231 269 q 330 372 263 314 q 492 431 397 431 q 624 401 565 431 q 717 319 683 371 q 750 201 750 267 q 715 85 750 136 q 616 4 679 33 q 474 -25 553 -25 q 262 21 356 -25 q 115 147 168 67 q 63 329 63 228 q 125 540 63 447 q 300 685 188 633 q 557 738 413 738 q 808 688 697 738 q 983 551 919 639 q 1046 354 1046 464 q 990 126 1046 238 l 1242 126 l 1242 713 l 1403 713 l 1403 0 m 494 303 q 424 274 451 303 q 396 201 396 246 q 424 131 396 158 q 494 103 451 103 q 566 131 538 103 q 594 201 594 158 q 566 274 594 244 q 494 303 538 303 z "},"ஃ":{"ha":942,"x_min":63,"x_max":879,"o":"m 469 386 q 558 410 515 386 q 625 473 600 433 q 650 557 650 513 q 625 644 650 604 q 558 708 600 685 q 469 732 517 732 q 383 708 424 732 q 317 644 342 685 q 292 557 292 604 q 317 473 292 513 q 383 410 342 433 q 469 386 424 386 m 471 503 q 430 519 446 503 q 414 558 414 535 q 430 599 414 583 q 471 615 446 615 q 510 599 494 615 q 526 558 526 583 q 510 519 526 535 q 471 503 494 503 m 239 -19 q 328 4 286 -19 q 394 67 369 28 q 419 153 419 107 q 394 239 419 199 q 328 303 369 279 q 239 326 286 326 q 153 303 193 326 q 88 239 113 279 q 63 153 63 199 q 88 67 63 107 q 153 4 113 28 q 239 -19 193 -19 m 700 -19 q 788 4 746 -19 q 854 67 829 28 q 879 153 879 107 q 854 239 879 199 q 788 303 829 279 q 700 326 747 326 q 613 303 654 326 q 547 239 572 279 q 522 153 522 199 q 547 67 522 107 q 613 4 572 28 q 700 -19 654 -19 m 240 97 q 201 113 217 97 q 185 154 185 129 q 201 194 185 178 q 240 210 217 210 q 281 194 265 210 q 297 154 297 178 q 281 113 297 129 q 240 97 265 97 m 700 97 q 660 113 676 97 q 644 154 644 129 q 660 194 644 178 q 700 210 676 210 q 741 194 725 210 q 757 154 757 178 q 741 113 757 129 q 700 97 725 97 z "},"ய":{"ha":1347,"x_min":104,"x_max":1229,"o":"m 1229 0 l 569 0 l 569 43 q 394 -25 494 -25 q 177 60 250 -25 q 104 286 104 144 l 104 713 l 265 719 l 265 294 q 297 157 265 206 q 404 108 328 108 q 528 169 488 108 q 569 335 569 231 l 569 713 l 731 713 l 731 126 l 1067 126 l 1067 713 l 1229 713 l 1229 0 z "},"௮":{"ha":1524,"x_min":35,"x_max":1406,"o":"m 1406 -175 l 1244 -175 l 1244 71 l 976 71 q 772 -128 910 -57 q 446 -200 635 -200 q 234 -169 328 -200 q 88 -85 140 -139 q 35 36 35 -32 q 88 154 35 111 q 256 197 142 197 l 332 197 q 275 293 294 239 q 256 408 256 347 q 303 578 256 503 q 433 695 350 653 q 621 738 517 738 q 838 682 744 738 q 983 529 932 626 q 1033 311 1033 432 q 1021 197 1033 251 l 1244 197 l 1244 713 l 1406 713 l 1406 -175 m 850 197 q 864 311 864 249 q 800 524 864 443 q 621 604 736 604 q 480 549 536 604 q 424 408 424 493 q 473 257 424 317 q 596 197 522 197 l 850 197 m 446 -67 q 646 -31 560 -67 q 786 71 732 6 l 249 71 q 203 36 203 71 q 270 -37 203 -7 q 446 -67 338 -67 z "},"௫":{"ha":1886,"x_min":90,"x_max":1768,"o":"m 1607 383 q 1519 692 1607 563 q 1277 888 1432 821 q 922 956 1122 956 q 569 874 719 956 q 339 647 419 792 q 258 317 258 503 q 324 35 258 163 q 519 -169 390 -93 q 832 -244 649 -244 q 1091 -197 979 -244 q 1265 -63 1203 -149 q 1326 131 1326 22 q 1292 283 1326 225 q 1197 342 1257 342 q 1113 311 1146 342 q 1081 235 1081 281 l 1081 0 l 919 0 l 919 586 l 703 586 l 703 0 l 542 0 l 542 713 l 1307 713 l 1332 586 l 1081 586 l 1081 446 q 1215 481 1139 481 q 1363 435 1299 481 q 1461 310 1426 390 q 1496 131 1496 231 q 1413 -135 1496 -18 q 1178 -317 1329 -251 q 832 -383 1028 -383 q 433 -290 601 -383 q 178 -35 265 -196 q 90 319 90 125 q 192 720 90 544 q 483 995 294 896 q 922 1094 672 1094 q 1360 1010 1168 1094 q 1660 765 1551 925 q 1768 386 1768 604 l 1768 0 l 1607 0 l 1607 383 z "},"௪":{"ha":1276,"x_min":49,"x_max":1228,"o":"m 699 304 l 699 285 q 656 125 699 196 q 534 15 613 54 q 350 -25 456 -25 q 190 5 258 -25 q 85 87 122 35 q 49 207 49 139 q 90 331 49 276 q 206 411 131 385 l 206 713 l 931 713 l 956 586 l 699 586 l 699 432 l 1067 432 l 1067 713 l 1228 713 l 1228 304 l 699 304 m 367 432 l 536 432 l 536 586 l 367 586 l 367 432 m 346 304 q 251 278 285 304 q 217 207 217 251 q 252 135 217 163 q 350 108 288 108 q 488 157 439 108 q 536 285 536 206 l 536 304 l 346 304 z "},"௯":{"ha":1499,"x_min":49,"x_max":1464,"o":"m 1167 469 q 1319 435 1251 469 q 1426 339 1388 400 q 1464 201 1464 278 q 1451 97 1464 143 q 1411 -8 1439 50 l 1247 0 q 1283 101 1269 46 q 1296 201 1296 157 q 1261 300 1296 264 q 1167 336 1226 336 l 1133 335 q 1203 169 1203 261 q 1142 30 1203 85 q 989 -25 1082 -25 q 835 30 896 -25 q 775 169 775 85 q 817 304 775 240 l 699 304 l 699 285 q 656 125 699 196 q 534 15 613 54 q 350 -25 456 -25 q 190 5 258 -25 q 85 87 122 35 q 49 207 49 139 q 90 331 49 276 q 206 411 131 385 l 206 713 l 931 713 l 956 586 l 699 586 l 699 432 l 903 432 q 964 426 925 432 q 1167 469 1058 469 m 367 432 l 536 432 l 536 586 l 367 586 l 367 432 m 346 304 q 251 278 285 304 q 217 207 217 251 q 252 135 217 163 q 350 108 288 108 q 488 157 439 108 q 536 285 536 206 l 536 304 l 346 304 m 1054 169 q 1036 240 1054 210 q 985 288 1018 271 q 924 169 924 243 q 942 117 924 138 q 989 96 961 96 q 1035 117 1017 96 q 1054 169 1054 138 z "},"௧":{"ha":1071,"x_min":49,"x_max":1036,"o":"m 736 432 q 956 369 875 432 q 1036 203 1036 306 q 998 85 1036 136 q 888 4 960 33 q 721 -25 817 -25 l 721 103 q 832 129 796 103 q 868 203 868 156 q 738 304 868 304 l 699 304 l 699 285 q 656 125 699 196 q 534 15 613 54 q 350 -25 456 -25 q 190 5 258 -25 q 85 87 122 35 q 49 207 49 139 q 90 331 49 276 q 206 411 131 385 l 206 713 l 931 713 l 956 586 l 699 586 l 699 432 l 736 432 m 367 432 l 536 432 l 536 586 l 367 586 l 367 432 m 346 304 q 251 278 285 304 q 217 207 217 251 q 252 135 217 163 q 350 108 288 108 q 488 157 439 108 q 536 285 536 206 l 536 304 l 346 304 z "},"௭":{"ha":1125,"x_min":63,"x_max":1007,"o":"m 1007 0 l 846 0 l 846 586 l 563 586 q 312 517 393 586 q 231 329 231 447 q 256 224 231 269 q 328 373 263 315 q 492 431 394 431 q 624 401 565 431 q 717 319 683 371 q 750 201 750 267 q 715 85 750 136 q 616 4 679 33 q 474 -25 553 -25 q 262 21 356 -25 q 115 147 168 67 q 63 329 63 228 q 117 528 63 442 q 282 664 172 615 q 550 713 392 713 l 1007 713 l 1007 0 m 494 303 q 424 274 451 303 q 396 201 396 246 q 424 131 396 158 q 494 103 451 103 q 566 131 538 103 q 594 201 594 158 q 566 274 594 244 q 494 303 538 303 z "},"௬":{"ha":1524,"x_min":49,"x_max":1510,"o":"m 1510 0 l 1099 0 l 1099 126 q 1185 155 1154 126 q 1215 229 1215 183 q 1189 299 1215 272 q 1115 326 1163 326 q 1021 292 1056 326 q 986 203 986 257 l 986 0 l 825 0 l 825 203 q 793 276 825 249 q 699 304 761 303 l 699 285 q 656 125 699 196 q 534 15 613 54 q 350 -25 456 -25 q 190 5 258 -25 q 85 87 122 35 q 49 207 49 139 q 90 331 49 276 q 206 411 131 385 l 206 713 l 931 713 l 956 586 l 699 586 l 699 432 q 903 371 826 428 q 997 437 940 414 q 1124 460 1054 460 q 1315 399 1244 460 q 1385 242 1385 339 q 1350 126 1385 181 l 1510 126 l 1510 0 m 367 432 l 536 432 l 536 586 l 367 586 l 367 432 m 350 108 q 488 157 439 108 q 536 285 536 206 l 536 304 l 346 304 q 251 278 285 304 q 217 207 217 251 q 252 135 217 163 q 350 108 288 108 z "},"௩":{"ha":1203,"x_min":118,"x_max":1189,"o":"m 1189 0 l 481 0 l 481 126 l 690 126 q 815 165 772 126 q 857 267 857 203 q 830 350 857 317 q 757 383 803 383 q 674 351 707 383 q 642 272 642 318 l 642 222 l 481 222 l 481 586 l 279 586 l 279 0 l 118 0 l 118 713 l 868 713 l 893 585 l 642 585 l 642 485 q 776 518 704 518 q 958 449 889 518 q 1026 267 1026 381 q 983 126 1026 186 l 1189 126 l 1189 0 z "},"௨":{"ha":1086,"x_min":35,"x_max":1072,"o":"m 1072 0 l 99 0 l 99 126 l 406 126 q 602 197 529 126 q 675 379 675 267 q 611 541 675 478 q 438 604 547 604 q 293 572 354 604 q 434 517 382 571 q 486 382 486 464 q 458 282 486 326 q 378 212 429 238 q 264 186 328 186 q 146 213 199 186 q 64 289 93 240 q 35 399 35 338 q 89 572 35 494 q 235 694 143 650 q 438 738 328 738 q 651 692 558 738 q 794 564 743 646 q 844 379 844 482 q 818 241 844 306 q 742 126 792 176 l 1072 126 l 1072 0 m 351 382 q 325 448 351 422 q 260 474 299 474 q 195 448 221 474 q 169 382 169 422 q 195 318 169 343 q 261 293 221 293 q 326 318 300 293 q 351 382 351 343 z "},"௦":{"ha":988,"x_min":63,"x_max":925,"o":"m 493 738 q 713 688 615 738 q 867 552 811 639 q 925 357 924 465 q 867 160 924 247 q 713 24 811 74 q 493 -25 615 -25 q 273 24 371 -25 q 119 160 175 74 q 63 357 63 247 q 119 552 63 465 q 273 688 175 639 q 493 738 371 738 m 493 108 q 628 140 568 108 q 722 229 688 172 q 756 357 756 286 q 722 484 756 428 q 628 572 688 540 q 493 604 568 604 q 358 572 418 604 q 265 484 299 540 q 231 357 231 428 q 265 229 231 286 q 358 140 299 172 q 493 108 418 108 z "},"௱":{"ha":1451,"x_min":104,"x_max":1438,"o":"m 1186 0 l 1025 0 l 1025 586 l 731 586 l 731 0 l 569 0 l 569 378 q 528 543 569 482 q 404 604 488 604 q 297 556 328 604 q 265 419 265 507 l 265 0 l 104 0 l 104 426 q 177 653 104 568 q 394 738 250 738 q 569 668 496 738 l 569 713 l 1413 713 l 1438 586 l 1186 586 l 1186 0 z "},"௰":{"ha":1196,"x_min":63,"x_max":1133,"o":"m 1015 732 q 1104 530 1075 636 q 1133 336 1133 424 q 1056 73 1133 171 q 821 -25 979 -25 q 597 64 682 -25 q 501 -2 558 21 q 375 -25 444 -25 q 140 72 217 -25 q 63 336 63 169 q 92 529 63 424 q 179 732 121 635 l 344 713 q 260 528 289 633 q 231 336 231 424 q 265 169 231 231 q 376 108 300 108 q 480 156 443 108 q 517 290 517 203 l 517 469 l 678 469 l 678 290 q 715 156 678 203 q 818 108 751 108 q 929 169 894 108 q 964 336 964 231 q 935 528 964 424 q 850 713 906 633 l 1015 732 z "},"௲":{"ha":1589,"x_min":49,"x_max":1554,"o":"m 1267 207 q 1418 170 1353 206 q 1519 74 1483 135 q 1554 -64 1554 13 q 1515 -210 1554 -146 q 1403 -311 1476 -275 q 1232 -347 1331 -347 l 1006 -347 q 825 -396 860 -347 l 725 -303 q 811 -239 749 -258 q 997 -219 874 -219 l 1232 -219 q 1354 -176 1311 -219 q 1397 -64 1397 -133 q 1367 31 1397 -7 q 1281 68 1336 68 l 1267 68 q 1220 -56 1263 -4 q 1111 -133 1178 -107 q 968 -158 1044 -158 q 783 -106 847 -158 q 718 31 718 -53 q 780 158 718 108 q 949 207 842 207 l 1108 207 l 1108 304 l 699 304 l 699 285 q 656 125 699 196 q 534 15 613 54 q 350 -25 456 -25 q 190 5 258 -25 q 85 87 122 35 q 49 207 49 139 q 90 331 49 276 q 206 411 131 385 l 206 713 l 931 713 l 956 586 l 699 586 l 699 432 l 1482 432 l 1507 304 l 1267 304 l 1267 207 m 367 432 l 536 432 l 536 586 l 367 586 l 367 432 m 346 304 q 251 278 285 304 q 217 207 217 251 q 252 135 217 163 q 350 108 288 108 q 488 157 439 108 q 536 285 536 206 l 536 304 l 346 304 m 968 -25 q 1058 0 1019 -25 q 1106 68 1096 25 l 946 68 q 901 55 915 68 q 886 25 886 42 q 907 -9 886 7 q 968 -25 928 -25 z "},"௹":{"ha":1614,"x_min":90,"x_max":1551,"o":"m 1271 481 q 1418 435 1354 481 q 1517 310 1482 390 q 1551 131 1551 231 q 1463 -143 1551 -26 q 1223 -322 1375 -260 q 883 -383 1071 -383 q 462 -289 640 -383 q 187 -17 283 -194 q 90 406 90 161 q 194 824 90 635 q 488 1119 299 1013 q 922 1219 678 1225 q 1229 1176 1104 1214 q 1417 1076 1354 1139 q 1481 931 1481 1013 q 1428 806 1481 854 q 1293 757 1375 757 q 1158 806 1213 757 q 1103 931 1104 854 q 1151 1058 1103 1010 q 922 1081 1057 1081 q 572 992 722 1081 q 340 748 421 903 q 258 403 258 593 q 333 53 258 199 q 549 -168 408 -92 q 883 -244 689 -244 q 1135 -200 1022 -244 q 1315 -71 1249 -156 q 1382 131 1382 14 q 1347 283 1382 225 q 1253 342 1313 342 q 1169 311 1201 342 q 1136 235 1136 281 l 1136 0 l 975 0 l 975 586 l 731 586 l 731 0 l 569 0 l 569 713 l 1363 713 l 1388 586 l 1136 586 l 1136 446 q 1271 481 1197 481 m 1293 869 q 1341 888 1322 869 q 1360 933 1360 906 q 1341 980 1360 961 q 1293 999 1322 999 q 1247 980 1265 999 q 1228 933 1228 961 q 1247 888 1228 906 q 1293 869 1265 869 z "},"௺":{"ha":1529,"x_min":118,"x_max":1529,"o":"m 1529 749 l 1131 749 l 1131 875 q 1197 901 1174 875 q 1219 968 1219 928 q 1179 1052 1219 1019 q 1069 1085 1139 1085 q 1022 1083 1038 1085 q 1082 932 1082 1010 q 1022 792 1082 847 q 868 736 961 736 q 715 792 775 736 q 654 932 654 847 q 725 1085 654 1011 l 699 1085 q 548 1033 604 1085 q 492 896 492 981 q 542 763 492 814 q 672 713 593 713 l 868 713 l 893 585 l 642 585 l 642 446 q 776 481 700 481 q 924 435 860 481 q 1022 310 988 390 q 1056 131 1056 231 q 1012 -72 1056 17 q 885 -210 968 -160 q 689 -260 803 -260 l 492 -260 q 249 -337 301 -260 l 118 -256 q 231 -162 150 -192 q 472 -133 313 -133 l 689 -133 q 837 -61 786 -133 q 888 131 888 11 q 853 283 888 225 q 757 342 818 342 q 674 311 707 342 q 642 235 642 281 l 642 0 l 481 0 l 481 586 l 279 586 l 279 0 l 118 0 l 118 713 l 385 713 q 322 896 322 790 q 369 1063 322 989 q 502 1178 417 1136 q 699 1219 588 1219 q 882 1183 794 1219 q 1082 1219 979 1219 q 1240 1187 1169 1219 q 1349 1097 1310 1154 q 1389 968 1389 1040 q 1367 875 1389 915 l 1529 875 l 1529 749 m 932 932 q 874 1047 932 1010 q 803 932 803 1008 q 822 882 803 901 q 868 863 840 863 q 914 882 896 863 q 932 932 932 901 z "},"௴":{"ha":1844,"x_min":118,"x_max":1844,"o":"m 1844 749 l 1446 749 l 1446 875 q 1513 901 1489 875 q 1536 968 1536 928 q 1496 1052 1536 1019 q 1386 1085 1456 1085 q 1338 1083 1354 1085 q 1397 932 1397 1010 q 1337 792 1397 847 q 1183 736 1276 736 q 1030 792 1090 736 q 969 932 969 847 q 1040 1085 969 1011 l 1015 1085 q 864 1033 921 1085 q 807 896 807 981 q 833 796 807 839 q 903 732 858 753 q 1106 599 1031 708 q 1181 332 1181 490 q 1102 90 1181 179 q 867 0 1024 0 l 118 0 l 118 713 l 279 719 l 279 126 l 538 126 l 538 406 q 580 594 538 514 q 703 711 622 674 q 639 896 639 789 q 686 1063 639 989 q 819 1178 733 1136 q 1015 1219 904 1219 q 1199 1183 1111 1219 q 1399 1219 1296 1219 q 1556 1187 1486 1219 q 1666 1097 1626 1154 q 1706 968 1706 1040 q 1682 875 1706 918 l 1844 875 l 1844 749 m 1249 932 q 1190 1047 1249 1010 q 1119 932 1119 1008 q 1138 882 1119 901 q 1183 863 1156 863 q 1230 882 1211 863 q 1249 932 1249 901 m 1013 332 q 965 528 1013 453 q 838 604 918 604 q 699 394 699 604 l 699 126 l 867 126 q 983 178 953 126 q 1013 332 1013 229 z "},"௸":{"ha":2733,"x_min":63,"x_max":2615,"o":"m 2288 0 l 2288 -337 l 2126 -337 l 2126 0 l 1497 0 l 1497 126 q 1533 256 1521 189 q 1546 376 1546 322 q 1490 542 1546 481 q 1325 604 1435 604 q 1168 567 1246 604 q 1292 419 1247 501 q 1336 250 1336 338 q 1301 108 1336 171 q 1206 10 1267 46 q 1065 -25 1144 -25 q 925 10 986 -25 q 830 108 864 46 q 796 250 796 171 q 828 409 796 331 q 921 553 861 488 q 653 604 799 604 q 428 568 524 604 q 281 468 332 532 q 231 324 231 404 q 254 221 231 268 q 328 372 261 313 q 492 431 394 431 q 624 401 565 431 q 717 319 683 371 q 750 201 750 267 q 715 85 750 136 q 616 4 679 33 q 474 -25 553 -25 q 262 19 356 -25 q 115 143 168 64 q 63 324 63 222 q 135 536 63 442 q 341 684 207 631 q 653 738 475 738 q 1038 651 861 738 q 1175 715 1101 692 q 1325 738 1249 738 q 1535 692 1447 738 q 1668 564 1622 646 q 1714 376 1714 482 q 1667 126 1714 258 l 2126 126 l 2126 260 q 2083 258 2113 258 q 1922 290 1992 258 q 1813 378 1851 322 q 1775 503 1775 435 q 1809 626 1775 572 q 1903 708 1843 679 q 2038 738 1963 738 q 2220 673 2153 738 q 2288 500 2288 608 l 2288 442 q 2454 586 2396 494 l 2615 586 l 2615 0 l 2288 0 m 2083 393 q 2126 396 2099 393 l 2126 493 q 2104 574 2126 544 q 2038 604 2082 604 q 1969 576 1994 604 q 1943 503 1943 549 q 1979 424 1943 456 q 2083 393 2015 393 m 1065 108 q 1140 148 1114 108 q 1167 250 1167 188 q 1136 372 1167 314 q 1051 475 1106 429 q 987 370 1010 428 q 964 250 964 313 q 991 149 964 189 q 1065 108 1018 108 m 2454 392 q 2288 296 2378 329 l 2288 126 l 2454 126 l 2454 392 m 494 303 q 424 274 451 303 q 396 201 396 246 q 424 131 396 158 q 494 103 451 103 q 566 131 538 103 q 594 201 594 158 q 566 274 594 244 q 494 303 538 303 z "},"௳":{"ha":1256,"x_min":63,"x_max":1242,"o":"m 1242 0 l 813 0 l 813 126 q 876 354 876 233 q 796 535 876 467 q 557 604 715 604 q 384 568 458 604 q 270 469 310 532 q 231 329 231 407 q 256 224 231 269 q 328 373 263 315 q 492 431 394 431 q 624 401 565 431 q 717 319 683 371 q 750 201 750 267 q 715 85 750 136 q 616 4 679 33 q 474 -25 553 -25 q 262 21 356 -25 q 115 147 168 67 q 63 329 63 228 q 125 540 63 447 q 300 685 188 633 q 557 738 413 738 q 808 688 697 738 q 983 551 919 639 q 1046 354 1046 464 q 990 126 1046 233 l 1242 126 l 1242 0 m 494 303 q 424 274 451 303 q 396 201 396 246 q 424 131 396 158 q 494 103 451 103 q 566 131 538 103 q 594 201 594 158 q 566 274 594 244 q 494 303 538 303 z "},"௶":{"ha":1439,"x_min":118,"x_max":1321,"o":"m 907 -229 q 817 -367 883 -308 q 652 -459 751 -426 q 433 -492 553 -492 q 270 -466 342 -492 q 158 -394 199 -440 q 118 -287 118 -347 q 178 -153 118 -204 q 354 -103 239 -103 l 758 -103 l 758 0 l 118 0 l 118 713 l 279 719 l 279 126 l 758 126 l 758 713 l 919 713 l 919 -103 l 1160 -103 l 1160 713 l 1321 713 l 1321 -229 l 907 -229 m 433 -357 q 617 -323 538 -357 q 733 -229 697 -289 l 358 -229 q 302 -244 318 -229 q 286 -287 286 -260 q 326 -339 286 -321 q 433 -357 365 -357 z "},"௷":{"ha":2010,"x_min":63,"x_max":1996,"o":"m 1996 0 l 1597 0 l 1597 126 q 1664 153 1640 126 q 1688 219 1688 179 q 1650 305 1688 274 q 1538 336 1613 336 q 1472 332 1504 336 q 1528 258 1508 300 q 1549 169 1549 215 q 1488 30 1549 85 q 1335 -25 1428 -25 q 1181 28 1240 -25 q 1121 169 1121 81 q 1161 304 1121 243 l 1007 304 l 1007 0 l 846 0 l 846 586 l 563 586 q 312 517 393 586 q 231 329 231 447 q 256 224 231 269 q 328 373 263 315 q 492 431 394 431 q 624 401 565 431 q 717 319 683 371 q 750 201 750 267 q 715 85 750 136 q 616 4 679 33 q 474 -25 553 -25 q 262 21 356 -25 q 115 147 168 67 q 63 329 63 228 q 117 528 63 442 q 282 664 172 615 q 550 713 392 713 l 1233 713 l 1258 585 l 1007 585 l 1007 432 l 1165 432 q 1297 418 1231 432 q 1550 469 1404 469 q 1712 438 1643 469 q 1818 349 1781 406 q 1856 219 1856 292 q 1833 126 1856 167 l 1996 126 l 1996 0 m 494 303 q 424 274 451 303 q 396 201 396 246 q 424 131 396 158 q 494 103 451 103 q 566 131 538 103 q 594 201 594 158 q 566 274 594 244 q 494 303 538 303 m 1400 169 q 1329 283 1400 254 q 1269 169 1269 240 q 1288 121 1269 140 q 1335 101 1307 101 q 1381 121 1363 101 q 1400 169 1400 140 z "},"௵":{"ha":2578,"x_min":90,"x_max":2515,"o":"m 2235 481 q 2382 435 2318 481 q 2481 310 2446 390 q 2515 131 2515 231 q 2426 -149 2515 -31 q 2171 -333 2336 -268 q 1782 -397 2006 -397 l 818 -397 q 438 -319 603 -397 q 181 -97 272 -240 q 90 236 90 47 q 147 507 90 368 q 292 726 204 646 l 457 713 q 315 506 371 640 q 258 233 258 372 q 328 -31 258 83 q 524 -207 397 -144 q 818 -269 651 -269 l 1782 -269 q 2083 -220 1956 -269 q 2278 -81 2211 -171 q 2346 131 2346 10 q 2311 283 2346 225 q 2215 342 2276 342 q 2133 311 2165 342 q 2100 235 2100 281 l 2100 0 l 1939 0 l 1939 586 l 1724 586 l 1724 0 l 1178 0 l 1178 126 q 1243 354 1243 235 q 1163 535 1243 467 q 924 604 1082 604 q 751 568 825 604 q 637 469 676 532 q 597 329 597 407 q 622 224 597 269 q 695 373 629 315 q 858 431 761 431 q 990 401 932 431 q 1082 319 1049 371 q 1115 201 1115 267 q 1080 85 1115 136 q 982 4 1044 33 q 840 -25 919 -25 q 628 21 722 -25 q 481 147 535 67 q 428 329 428 228 q 490 540 428 447 q 665 685 553 633 q 924 738 778 738 q 1175 688 1064 738 q 1349 551 1286 639 q 1413 354 1413 464 q 1357 126 1413 233 l 1563 126 l 1563 713 l 2326 713 l 2351 586 l 2100 586 l 2100 446 q 2235 481 2158 481 m 861 303 q 790 274 818 303 q 763 201 763 246 q 790 131 763 158 q 861 103 818 103 q 933 131 904 103 q 961 201 961 158 q 933 274 961 244 q 861 303 904 303 z "},"ௗ":{"ha":1758,"x_min":63,"x_max":1744,"o":"m 1493 586 l 1493 0 l 1332 0 l 1332 586 l 1038 586 l 1038 0 l 876 0 l 876 317 q 834 465 876 399 q 716 567 792 531 q 544 604 640 604 q 376 568 447 604 q 268 469 306 532 q 231 329 231 407 q 256 224 231 269 q 328 373 263 315 q 492 431 394 431 q 624 401 565 431 q 717 319 683 371 q 750 201 750 267 q 715 85 750 136 q 616 4 679 33 q 474 -25 553 -25 q 262 21 356 -25 q 115 147 168 67 q 63 329 63 228 q 122 540 63 447 q 291 685 182 633 q 544 738 400 738 q 732 703 647 738 q 876 608 817 669 l 876 713 l 1719 713 l 1744 586 l 1493 586 m 494 303 q 424 274 451 303 q 396 201 396 246 q 424 131 396 158 q 494 103 451 103 q 566 131 538 103 q 594 201 594 158 q 566 274 594 244 q 494 303 538 303 z "},"ா":{"ha":971,"x_min":118,"x_max":957,"o":"m 544 0 l 544 586 l 279 586 l 279 0 l 118 0 l 118 713 l 932 713 l 957 586 l 706 586 l 706 0 l 544 0 z "},"ை":{"ha":1776,"x_min":63,"x_max":1714,"o":"m 1325 738 q 1535 692 1447 738 q 1668 564 1622 646 q 1714 376 1714 482 q 1685 183 1714 289 q 1597 -19 1656 78 l 1432 0 q 1517 184 1488 79 q 1546 376 1546 289 q 1490 542 1546 481 q 1325 604 1435 604 q 1168 567 1246 604 q 1292 419 1247 501 q 1336 250 1336 338 q 1301 108 1336 171 q 1206 10 1267 46 q 1065 -25 1144 -25 q 925 10 986 -25 q 830 108 864 46 q 796 250 796 171 q 828 409 796 331 q 921 553 861 488 q 653 604 799 604 q 428 568 524 604 q 281 468 332 532 q 231 324 231 404 q 254 221 231 268 q 328 372 261 313 q 492 431 394 431 q 624 401 565 431 q 717 319 683 371 q 750 201 750 267 q 715 85 750 136 q 616 4 679 33 q 474 -25 553 -25 q 262 19 356 -25 q 115 143 168 64 q 63 324 63 222 q 135 536 63 442 q 341 684 207 631 q 653 738 475 738 q 1038 651 861 738 q 1175 715 1101 692 q 1325 738 1249 738 m 1065 108 q 1140 148 1114 108 q 1167 250 1167 188 q 1136 372 1167 314 q 1051 475 1106 429 q 987 370 1010 428 q 964 250 964 313 q 991 149 964 189 q 1065 108 1018 108 m 494 303 q 424 274 451 303 q 396 201 396 246 q 424 131 396 158 q 494 103 451 103 q 566 131 538 103 q 594 201 594 158 q 566 274 594 244 q 494 303 538 303 z "},"ௌ":{"ha":3619,"x_min":68,"x_max":3606,"o":"m 572 938 q 820 878 714 938 q 985 713 926 819 q 1043 467 1043 606 l 1043 0 l 882 0 l 882 467 q 799 712 882 619 q 572 804 715 804 q 394 759 471 804 q 277 635 318 714 q 236 454 236 556 q 274 257 236 340 q 355 383 292 335 q 506 431 418 431 q 636 401 579 431 q 724 319 693 371 q 756 201 756 267 q 720 85 756 136 q 622 4 685 33 q 479 -25 558 -25 q 267 37 361 -25 q 121 208 174 99 q 68 454 68 317 q 131 703 68 593 q 308 875 193 813 q 572 938 422 938 m 500 303 q 429 274 457 303 q 401 201 401 246 q 429 131 401 158 q 500 103 457 103 q 572 131 543 103 q 600 201 600 158 q 572 274 600 244 q 500 303 543 303 m 3354 586 l 3354 0 l 3193 0 l 3193 586 l 2899 586 l 2899 0 l 2738 0 l 2738 317 q 2695 465 2738 399 q 2577 567 2653 531 q 2406 604 2501 604 q 2238 568 2308 604 q 2129 469 2167 532 q 2092 329 2092 407 q 2117 224 2092 269 q 2190 373 2124 315 q 2353 431 2256 431 q 2485 401 2426 431 q 2578 319 2544 371 q 2611 201 2611 267 q 2576 85 2611 136 q 2477 4 2540 33 q 2335 -25 2414 -25 q 2123 21 2217 -25 q 1976 147 2029 67 q 1924 329 1924 228 q 1983 540 1924 447 q 2152 685 2043 633 q 2406 738 2261 738 q 2593 703 2508 738 q 2738 608 2678 669 l 2738 713 l 3581 713 l 3606 586 l 3354 586 m 2356 303 q 2285 274 2313 303 q 2257 201 2257 246 q 2285 131 2257 158 q 2356 103 2313 103 q 2427 131 2399 103 q 2456 201 2456 158 q 2427 274 2456 244 q 2356 303 2399 303 m 1497 638 q 1526 649 1515 638 q 1538 678 1538 660 q 1526 708 1538 696 q 1497 719 1515 719 q 1468 708 1479 719 q 1457 678 1457 696 q 1468 649 1457 660 q 1497 638 1479 638 m 1374 697 q 1344 686 1356 697 q 1333 657 1333 675 q 1344 628 1333 639 q 1374 617 1356 617 q 1403 628 1392 617 q 1414 657 1414 639 q 1403 686 1414 675 q 1374 697 1392 697 m 1622 617 q 1651 628 1640 617 q 1663 657 1663 639 q 1651 686 1663 675 q 1622 697 1640 697 q 1593 686 1604 697 q 1582 657 1582 675 q 1593 628 1582 639 q 1622 617 1604 617 m 1268 628 q 1238 616 1250 628 q 1226 586 1226 604 q 1238 557 1226 568 q 1268 546 1250 546 q 1297 557 1286 546 q 1308 586 1308 568 q 1297 616 1308 604 q 1268 628 1286 628 m 1728 546 q 1758 557 1746 546 q 1769 586 1769 568 q 1758 616 1769 604 q 1728 628 1746 628 q 1699 616 1710 628 q 1688 586 1688 604 q 1699 557 1688 568 q 1728 546 1710 546 m 1201 518 q 1172 506 1183 518 q 1160 476 1160 494 q 1172 447 1160 458 q 1201 436 1183 436 q 1231 447 1219 436 q 1242 476 1242 458 q 1231 506 1242 494 q 1201 518 1219 518 m 1794 436 q 1824 447 1813 436 q 1835 476 1835 458 q 1824 506 1835 494 q 1794 518 1813 518 q 1765 506 1776 518 q 1754 476 1754 494 q 1765 447 1754 458 q 1794 436 1776 436 m 1182 399 q 1152 387 1164 399 q 1140 357 1140 375 q 1152 328 1140 339 q 1182 318 1164 318 q 1211 328 1200 318 q 1222 357 1222 339 q 1211 387 1222 375 q 1182 399 1200 399 m 1814 318 q 1844 328 1832 318 q 1856 357 1856 339 q 1844 387 1856 375 q 1814 399 1832 399 q 1785 387 1796 399 q 1774 357 1774 375 q 1785 328 1774 339 q 1814 318 1796 318 m 1201 282 q 1172 271 1183 282 q 1160 242 1160 260 q 1172 213 1160 224 q 1201 201 1183 201 q 1231 213 1219 201 q 1242 242 1242 224 q 1231 271 1242 260 q 1201 282 1219 282 m 1794 201 q 1824 213 1813 201 q 1835 242 1835 224 q 1824 271 1835 260 q 1794 282 1813 282 q 1765 271 1776 282 q 1754 242 1754 260 q 1765 213 1754 224 q 1794 201 1776 201 m 1267 171 q 1237 160 1249 171 q 1225 131 1225 149 q 1237 101 1225 113 q 1267 90 1249 90 q 1296 101 1285 90 q 1307 131 1307 113 q 1296 160 1307 149 q 1267 171 1285 171 m 1729 90 q 1759 101 1747 90 q 1771 131 1771 113 q 1759 160 1771 149 q 1729 171 1747 171 q 1700 160 1711 171 q 1689 131 1689 149 q 1700 101 1689 113 q 1729 90 1711 90 m 1374 103 q 1344 91 1356 103 q 1333 61 1333 79 q 1344 32 1333 43 q 1374 21 1356 21 q 1403 32 1392 21 q 1414 61 1414 43 q 1403 91 1414 79 q 1374 103 1392 103 m 1622 21 q 1651 32 1640 21 q 1663 61 1663 43 q 1651 91 1663 79 q 1622 103 1640 103 q 1593 91 1604 103 q 1582 61 1582 79 q 1593 32 1582 43 q 1622 21 1604 21 m 1497 0 q 1526 11 1515 0 q 1538 40 1538 22 q 1526 70 1538 58 q 1497 82 1515 82 q 1468 70 1479 82 q 1457 40 1457 58 q 1468 11 1457 22 q 1497 0 1479 0 z "},"ெ":{"ha":1156,"x_min":63,"x_max":1038,"o":"m 567 938 q 815 878 708 938 q 979 713 921 819 q 1038 467 1038 606 l 1038 0 l 876 0 l 876 467 q 793 712 876 619 q 567 804 710 804 q 389 759 465 804 q 272 635 313 714 q 231 454 231 556 q 268 257 231 340 q 349 383 286 335 q 500 431 413 431 q 631 401 574 431 q 719 319 688 371 q 750 201 750 267 q 715 85 750 136 q 616 4 679 33 q 474 -25 553 -25 q 262 37 356 -25 q 115 208 168 99 q 63 454 63 317 q 125 703 63 593 q 302 875 188 813 q 567 938 417 938 m 494 303 q 424 274 451 303 q 396 201 396 246 q 424 131 396 158 q 494 103 451 103 q 566 131 538 103 q 594 201 594 158 q 566 274 594 244 q 494 303 538 303 z "},"ே":{"ha":963,"x_min":63,"x_max":900,"o":"m 675 413 q 790 387 739 413 q 871 315 842 361 q 900 211 900 268 q 859 90 900 144 q 743 6 818 36 q 571 -25 668 -25 q 309 37 425 -25 q 128 209 193 99 q 63 457 63 319 q 128 704 63 594 q 309 876 193 814 q 571 938 425 938 q 743 907 668 938 q 859 822 818 876 q 900 701 900 768 q 871 598 900 644 q 790 526 842 551 q 675 500 739 500 q 523 557 582 500 q 464 704 464 614 q 496 801 464 761 q 306 692 378 786 q 231 457 233 599 q 306 221 233 315 q 496 111 378 126 q 464 208 464 151 q 523 356 464 299 q 675 413 582 413 m 678 628 q 735 649 713 628 q 757 706 757 671 q 735 762 757 740 q 682 783 714 783 q 625 762 647 783 q 603 707 603 740 q 624 650 603 672 q 678 628 646 628 m 678 285 q 624 263 646 285 q 603 206 603 240 q 625 151 603 172 q 682 129 647 129 q 735 151 714 129 q 757 207 757 172 q 735 263 757 242 q 678 285 713 285 z "},"ி":{"ha":397,"x_min":-525,"x_max":279,"o":"m -167 1107 q 68 1055 -33 1107 q 224 910 169 1003 q 279 699 279 817 l 279 0 l 118 0 l 118 699 q 42 899 118 824 q -167 974 -35 974 q -313 938 -261 974 q -365 842 -365 903 q -336 747 -365 782 q -247 713 -307 713 l -247 600 q -449 667 -375 600 q -525 842 -524 735 q -481 978 -525 918 q -356 1073 -437 1039 q -167 1107 -275 1107 z "},"ொ":{"ha":2817,"x_min":63,"x_max":2775,"o":"m 567 938 q 815 878 708 938 q 979 713 921 819 q 1038 467 1038 606 l 1038 0 l 876 0 l 876 467 q 793 712 876 619 q 567 804 710 804 q 389 759 465 804 q 272 635 313 714 q 231 454 231 556 q 268 257 231 340 q 349 383 286 335 q 500 431 413 431 q 631 401 574 431 q 719 319 688 371 q 750 201 750 267 q 715 85 750 136 q 616 4 679 33 q 474 -25 553 -25 q 262 37 356 -25 q 115 208 168 99 q 63 454 63 317 q 125 703 63 593 q 302 875 188 813 q 567 938 417 938 m 494 303 q 424 274 451 303 q 396 201 396 246 q 424 131 396 158 q 494 103 451 103 q 566 131 538 103 q 594 201 594 158 q 566 274 594 244 q 494 303 538 303 m 2363 0 l 2363 586 l 2097 586 l 2097 0 l 1936 0 l 1936 713 l 2750 713 l 2775 586 l 2524 586 l 2524 0 l 2363 0 m 1485 638 q 1514 649 1503 638 q 1525 678 1525 660 q 1514 708 1525 696 q 1485 719 1503 719 q 1456 708 1467 719 q 1444 678 1444 696 q 1456 649 1444 660 q 1485 638 1467 638 m 1361 697 q 1332 686 1343 697 q 1321 657 1321 675 q 1332 628 1321 639 q 1361 617 1343 617 q 1390 628 1379 617 q 1401 657 1401 639 q 1390 686 1401 675 q 1361 697 1379 697 m 1610 617 q 1639 628 1628 617 q 1650 657 1650 639 q 1639 686 1650 675 q 1610 697 1628 697 q 1581 686 1592 697 q 1569 657 1569 675 q 1581 628 1569 639 q 1610 617 1592 617 m 1256 628 q 1226 616 1238 628 q 1214 586 1214 604 q 1226 557 1214 568 q 1256 546 1238 546 q 1285 557 1274 546 q 1296 586 1296 568 q 1285 616 1296 604 q 1256 628 1274 628 m 1715 546 q 1745 557 1733 546 q 1757 586 1757 568 q 1745 616 1757 604 q 1715 628 1733 628 q 1686 616 1697 628 q 1675 586 1675 604 q 1686 557 1675 568 q 1715 546 1697 546 m 1189 518 q 1159 506 1171 518 q 1147 476 1147 494 q 1159 447 1147 458 q 1189 436 1171 436 q 1218 447 1207 436 q 1229 476 1229 458 q 1218 506 1229 494 q 1189 518 1207 518 m 1782 436 q 1811 447 1800 436 q 1822 476 1822 458 q 1811 506 1822 494 q 1782 518 1800 518 q 1753 506 1764 518 q 1742 476 1742 494 q 1753 447 1742 458 q 1782 436 1764 436 m 1169 399 q 1140 387 1151 399 q 1128 357 1128 375 q 1140 328 1128 339 q 1169 318 1151 318 q 1199 328 1188 318 q 1210 357 1210 339 q 1199 387 1210 375 q 1169 399 1188 399 m 1801 318 q 1831 328 1819 318 q 1843 357 1843 339 q 1831 387 1843 375 q 1801 399 1819 399 q 1772 387 1783 399 q 1761 357 1761 375 q 1772 328 1761 339 q 1801 318 1783 318 m 1189 282 q 1159 271 1171 282 q 1147 242 1147 260 q 1159 213 1147 224 q 1189 201 1171 201 q 1218 213 1207 201 q 1229 242 1229 224 q 1218 271 1229 260 q 1189 282 1207 282 m 1782 201 q 1811 213 1800 201 q 1822 242 1822 224 q 1811 271 1822 260 q 1782 282 1800 282 q 1753 271 1764 282 q 1742 242 1742 260 q 1753 213 1742 224 q 1782 201 1764 201 m 1254 171 q 1224 160 1236 171 q 1213 131 1213 149 q 1224 101 1213 113 q 1254 90 1236 90 q 1283 101 1272 90 q 1294 131 1294 113 q 1283 160 1294 149 q 1254 171 1272 171 m 1717 90 q 1747 101 1735 90 q 1758 131 1758 113 q 1747 160 1758 149 q 1717 171 1735 171 q 1688 160 1699 171 q 1676 131 1676 149 q 1688 101 1676 113 q 1717 90 1699 90 m 1361 103 q 1332 91 1343 103 q 1321 61 1321 79 q 1332 32 1321 43 q 1361 21 1343 21 q 1390 32 1379 21 q 1401 61 1401 43 q 1390 91 1401 79 q 1361 103 1379 103 m 1610 21 q 1639 32 1628 21 q 1650 61 1650 43 q 1639 91 1650 79 q 1610 103 1628 103 q 1581 91 1592 103 q 1569 61 1569 79 q 1581 32 1569 43 q 1610 21 1592 21 m 1485 0 q 1514 11 1503 0 q 1525 40 1525 22 q 1514 70 1525 58 q 1485 82 1503 82 q 1456 70 1467 82 q 1444 40 1444 58 q 1456 11 1444 22 q 1485 0 1467 0 z "},"ோ":{"ha":2689,"x_min":63,"x_max":2647,"o":"m 675 413 q 790 387 739 413 q 871 315 842 361 q 900 211 900 268 q 859 90 900 144 q 743 6 818 36 q 571 -25 668 -25 q 309 37 425 -25 q 128 209 193 99 q 63 457 63 319 q 128 704 63 594 q 309 876 193 814 q 571 938 425 938 q 743 907 668 938 q 859 822 818 876 q 900 701 900 768 q 871 598 900 644 q 790 526 842 551 q 675 500 739 500 q 523 557 582 500 q 464 704 464 614 q 496 801 464 761 q 306 692 378 786 q 231 457 233 599 q 306 221 233 315 q 496 111 378 126 q 464 208 464 151 q 523 356 464 299 q 675 413 582 413 m 678 628 q 735 649 713 628 q 757 706 757 671 q 735 762 757 740 q 682 783 714 783 q 625 762 647 783 q 603 707 603 740 q 624 650 603 672 q 678 628 646 628 m 678 285 q 624 263 646 285 q 603 206 603 240 q 625 151 603 172 q 682 129 647 129 q 735 151 714 129 q 757 207 757 172 q 735 263 757 242 q 678 285 713 285 m 2235 0 l 2235 586 l 1969 586 l 1969 0 l 1808 0 l 1808 713 l 2622 713 l 2647 586 l 2396 586 l 2396 0 l 2235 0 m 1351 638 q 1381 649 1369 638 q 1392 678 1392 660 q 1381 708 1392 696 q 1351 719 1369 719 q 1322 708 1333 719 q 1311 678 1311 696 q 1322 649 1311 660 q 1351 638 1333 638 m 1228 697 q 1199 686 1210 697 q 1188 657 1188 675 q 1199 628 1188 639 q 1228 617 1210 617 q 1257 628 1246 617 q 1268 657 1268 639 q 1257 686 1268 675 q 1228 697 1246 697 m 1476 617 q 1506 628 1494 617 q 1517 657 1517 639 q 1506 686 1517 675 q 1476 697 1494 697 q 1447 686 1458 697 q 1436 657 1436 675 q 1447 628 1436 639 q 1476 617 1458 617 m 1122 628 q 1092 616 1104 628 q 1081 586 1081 604 q 1092 557 1081 568 q 1122 546 1104 546 q 1151 557 1140 546 q 1163 586 1163 568 q 1151 616 1163 604 q 1122 628 1140 628 m 1582 546 q 1612 557 1600 546 q 1624 586 1624 568 q 1612 616 1624 604 q 1582 628 1600 628 q 1553 616 1564 628 q 1542 586 1542 604 q 1553 557 1542 568 q 1582 546 1564 546 m 1056 518 q 1026 506 1038 518 q 1014 476 1014 494 q 1026 447 1014 458 q 1056 436 1038 436 q 1085 447 1074 436 q 1096 476 1096 458 q 1085 506 1096 494 q 1056 518 1074 518 m 1649 436 q 1678 447 1667 436 q 1689 476 1689 458 q 1678 506 1689 494 q 1649 518 1667 518 q 1619 506 1631 518 q 1608 476 1608 494 q 1619 447 1608 458 q 1649 436 1631 436 m 1036 399 q 1006 387 1018 399 q 994 357 994 375 q 1006 328 994 339 q 1036 318 1018 318 q 1065 328 1054 318 q 1076 357 1076 339 q 1065 387 1076 375 q 1036 399 1054 399 m 1668 318 q 1698 328 1686 318 q 1710 357 1710 339 q 1698 387 1710 375 q 1668 399 1686 399 q 1639 387 1650 399 q 1628 357 1628 375 q 1639 328 1628 339 q 1668 318 1650 318 m 1056 282 q 1026 271 1038 282 q 1014 242 1014 260 q 1026 213 1014 224 q 1056 201 1038 201 q 1085 213 1074 201 q 1096 242 1096 224 q 1085 271 1096 260 q 1056 282 1074 282 m 1649 201 q 1678 213 1667 201 q 1689 242 1689 224 q 1678 271 1689 260 q 1649 282 1667 282 q 1619 271 1631 282 q 1608 242 1608 260 q 1619 213 1608 224 q 1649 201 1631 201 m 1121 171 q 1091 160 1103 171 q 1079 131 1079 149 q 1091 101 1079 113 q 1121 90 1103 90 q 1150 101 1139 90 q 1161 131 1161 113 q 1150 160 1161 149 q 1121 171 1139 171 m 1583 90 q 1613 101 1601 90 q 1625 131 1625 113 q 1613 160 1625 149 q 1583 171 1601 171 q 1554 160 1565 171 q 1543 131 1543 149 q 1554 101 1543 113 q 1583 90 1565 90 m 1228 103 q 1199 91 1210 103 q 1188 61 1188 79 q 1199 32 1188 43 q 1228 21 1210 21 q 1257 32 1246 21 q 1268 61 1268 43 q 1257 91 1268 79 q 1228 103 1246 103 m 1476 21 q 1506 32 1494 21 q 1517 61 1517 43 q 1506 91 1517 79 q 1476 103 1494 103 q 1447 91 1458 103 q 1436 61 1436 79 q 1447 32 1436 43 q 1476 21 1458 21 m 1351 0 q 1381 11 1369 0 q 1392 40 1392 22 q 1381 70 1392 58 q 1351 82 1369 82 q 1322 70 1333 82 q 1311 40 1311 58 q 1322 11 1311 22 q 1351 0 1333 0 z "},"ு":{"ha":647,"x_min":-279,"x_max":619,"o":"m 344 713 q 486 683 424 713 q 584 603 549 654 q 619 486 619 551 q 586 369 619 421 q 494 287 553 317 q 363 257 436 257 q 238 286 293 257 q 151 367 182 315 q 119 485 119 419 q 147 586 119 542 l -279 586 l -279 713 l 344 713 m 365 385 q 438 414 410 385 q 467 486 467 443 q 438 558 467 529 q 365 586 410 586 q 294 558 322 586 q 265 486 265 531 q 294 413 265 442 q 365 385 322 385 z "},"ூ":{"ha":960,"x_min":-279,"x_max":932,"o":"m 525 850 q 733 801 640 850 q 879 667 826 753 q 932 472 932 581 q 871 266 932 357 q 699 124 810 175 q 442 72 588 72 l 338 72 l 338 199 l 442 199 q 612 234 539 199 q 724 331 685 269 q 763 472 763 393 q 697 653 763 583 q 522 722 632 722 q 424 707 472 722 q 565 631 510 692 q 619 486 619 571 q 586 369 619 421 q 494 287 553 317 q 363 257 436 257 q 186 324 253 257 q 119 497 119 392 q 131 586 119 542 l -279 586 l -279 713 l 196 713 q 335 814 250 778 q 525 850 421 850 m 467 486 q 435 558 467 531 q 349 586 403 586 l 283 586 q 265 499 265 543 q 292 416 265 447 q 365 385 318 385 q 438 414 408 385 q 467 486 467 443 z "},"ஂ":{"ha":0,"x_min":-178,"x_max":181,"o":"m 0 886 q 88 910 46 886 q 156 973 131 933 q 181 1057 181 1013 q 156 1144 181 1104 q 89 1208 131 1185 q 0 1232 47 1232 q -87 1208 -46 1232 q -153 1144 -128 1185 q -178 1057 -178 1104 q -153 973 -178 1013 q -87 910 -128 933 q 0 886 -46 886 m 0 1003 q -41 1019 -25 1003 q -57 1058 -57 1035 q -41 1099 -57 1083 q 0 1115 -25 1115 q 40 1099 24 1115 q 56 1058 56 1083 q 40 1019 56 1035 q 0 1003 24 1003 z "},"்":{"ha":0,"x_min":-96,"x_max":99,"o":"m 0 886 q 71 914 43 886 q 99 983 99 942 q 71 1054 99 1026 q 0 1082 43 1082 q -69 1054 -42 1082 q -96 983 -96 1026 q -69 914 -96 942 q 0 886 -42 886 z "},"ீ":{"ha":0,"x_min":-585,"x_max":150,"o":"m -196 1219 q -22 1184 -101 1219 q 103 1087 57 1149 q 150 949 150 1025 q 94 818 150 869 q -46 767 39 767 q -185 817 -129 767 q -240 944 -240 868 q -222 1024 -240 989 q -172 1085 -204 1060 l -196 1085 q -358 1033 -299 1085 q -417 896 -417 981 q -365 763 -417 814 q -235 713 -314 713 l -235 590 q -415 629 -335 590 q -540 738 -494 668 q -585 896 -585 807 q -537 1063 -585 989 q -401 1178 -489 1136 q -196 1219 -312 1219 m -46 874 q 5 894 -15 874 q 25 944 25 914 q 5 994 25 974 q -46 1014 -15 1014 q -97 994 -76 1014 q -117 944 -117 974 q -97 894 -117 914 q -46 874 -76 874 z "}}}
